G04 EAGLE Gerber RS-274X export*
G75*
%MOMM*%
%FSLAX34Y34*%
%LPD*%
%INBottom Copper*%
%IPPOS*%
%AMOC8*
5,1,8,0,0,1.08239X$1,22.5*%
G01*
G04 Define Apertures*
%ADD10C,1.158000*%
%ADD11R,1.066800X1.066800*%
%ADD12C,0.808000*%
%ADD13C,0.152400*%
%ADD14C,0.756400*%
G36*
X-94379Y949767D02*
X-93200Y949900D01*
X-92021Y949767D01*
X-90900Y949375D01*
X-89895Y948744D01*
X-89056Y947905D01*
X-88425Y946900D01*
X-88033Y945779D01*
X-87900Y944603D01*
X-87900Y933597D01*
X-88033Y932421D01*
X-88425Y931300D01*
X-89056Y930295D01*
X-89895Y929456D01*
X-90900Y928825D01*
X-92021Y928433D01*
X-93200Y928300D01*
X-94379Y928433D01*
X-95500Y928825D01*
X-96505Y929456D01*
X-97344Y930295D01*
X-97975Y931300D01*
X-98367Y932421D01*
X-98500Y933597D01*
X-98500Y944603D01*
X-98367Y945779D01*
X-97975Y946900D01*
X-97344Y947905D01*
X-96505Y948744D01*
X-95500Y949375D01*
X-94379Y949767D01*
G37*
G36*
X-94379Y949767D02*
X-93200Y949900D01*
X-92021Y949767D01*
X-90900Y949375D01*
X-89895Y948744D01*
X-89056Y947905D01*
X-88425Y946900D01*
X-88033Y945779D01*
X-87900Y944603D01*
X-87900Y933597D01*
X-88033Y932421D01*
X-88425Y931300D01*
X-89056Y930295D01*
X-89895Y929456D01*
X-90900Y928825D01*
X-92021Y928433D01*
X-93200Y928300D01*
X-94379Y928433D01*
X-95500Y928825D01*
X-96505Y929456D01*
X-97344Y930295D01*
X-97975Y931300D01*
X-98367Y932421D01*
X-98500Y933597D01*
X-98500Y944603D01*
X-98367Y945779D01*
X-97975Y946900D01*
X-97344Y947905D01*
X-96505Y948744D01*
X-95500Y949375D01*
X-94379Y949767D01*
G37*
G36*
X-7979Y949767D02*
X-6800Y949900D01*
X-5621Y949767D01*
X-4500Y949375D01*
X-3495Y948744D01*
X-2656Y947905D01*
X-2025Y946900D01*
X-1633Y945779D01*
X-1500Y944603D01*
X-1500Y933597D01*
X-1633Y932421D01*
X-2025Y931300D01*
X-2656Y930295D01*
X-3495Y929456D01*
X-4500Y928825D01*
X-5621Y928433D01*
X-6800Y928300D01*
X-7979Y928433D01*
X-9100Y928825D01*
X-10105Y929456D01*
X-10944Y930295D01*
X-11575Y931300D01*
X-11967Y932421D01*
X-12100Y933597D01*
X-12100Y944603D01*
X-11967Y945779D01*
X-11575Y946900D01*
X-10944Y947905D01*
X-10105Y948744D01*
X-9100Y949375D01*
X-7979Y949767D01*
G37*
G36*
X-7979Y949767D02*
X-6800Y949900D01*
X-5621Y949767D01*
X-4500Y949375D01*
X-3495Y948744D01*
X-2656Y947905D01*
X-2025Y946900D01*
X-1633Y945779D01*
X-1500Y944603D01*
X-1500Y933597D01*
X-1633Y932421D01*
X-2025Y931300D01*
X-2656Y930295D01*
X-3495Y929456D01*
X-4500Y928825D01*
X-5621Y928433D01*
X-6800Y928300D01*
X-7979Y928433D01*
X-9100Y928825D01*
X-10105Y929456D01*
X-10944Y930295D01*
X-11575Y931300D01*
X-11967Y932421D01*
X-12100Y933597D01*
X-12100Y944603D01*
X-11967Y945779D01*
X-11575Y946900D01*
X-10944Y947905D01*
X-10105Y948744D01*
X-9100Y949375D01*
X-7979Y949767D01*
G37*
G36*
X-94379Y989767D02*
X-93200Y989900D01*
X-92021Y989767D01*
X-90900Y989375D01*
X-89895Y988744D01*
X-89056Y987905D01*
X-88425Y986900D01*
X-88033Y985779D01*
X-87900Y984603D01*
X-87900Y976597D01*
X-88033Y975421D01*
X-88425Y974300D01*
X-89056Y973295D01*
X-89895Y972456D01*
X-90900Y971825D01*
X-92021Y971433D01*
X-93200Y971300D01*
X-94379Y971433D01*
X-95500Y971825D01*
X-96505Y972456D01*
X-97344Y973295D01*
X-97975Y974300D01*
X-98367Y975421D01*
X-98500Y976597D01*
X-98500Y984603D01*
X-98367Y985779D01*
X-97975Y986900D01*
X-97344Y987905D01*
X-96505Y988744D01*
X-95500Y989375D01*
X-94379Y989767D01*
G37*
G36*
X-94379Y989767D02*
X-93200Y989900D01*
X-92021Y989767D01*
X-90900Y989375D01*
X-89895Y988744D01*
X-89056Y987905D01*
X-88425Y986900D01*
X-88033Y985779D01*
X-87900Y984603D01*
X-87900Y976597D01*
X-88033Y975421D01*
X-88425Y974300D01*
X-89056Y973295D01*
X-89895Y972456D01*
X-90900Y971825D01*
X-92021Y971433D01*
X-93200Y971300D01*
X-94379Y971433D01*
X-95500Y971825D01*
X-96505Y972456D01*
X-97344Y973295D01*
X-97975Y974300D01*
X-98367Y975421D01*
X-98500Y976597D01*
X-98500Y984603D01*
X-98367Y985779D01*
X-97975Y986900D01*
X-97344Y987905D01*
X-96505Y988744D01*
X-95500Y989375D01*
X-94379Y989767D01*
G37*
G36*
X-7979Y989767D02*
X-6800Y989900D01*
X-5621Y989767D01*
X-4500Y989375D01*
X-3495Y988744D01*
X-2656Y987905D01*
X-2025Y986900D01*
X-1633Y985779D01*
X-1500Y984603D01*
X-1500Y976597D01*
X-1633Y975421D01*
X-2025Y974300D01*
X-2656Y973295D01*
X-3495Y972456D01*
X-4500Y971825D01*
X-5621Y971433D01*
X-6800Y971300D01*
X-7979Y971433D01*
X-9100Y971825D01*
X-10105Y972456D01*
X-10944Y973295D01*
X-11575Y974300D01*
X-11967Y975421D01*
X-12100Y976597D01*
X-12100Y984603D01*
X-11967Y985779D01*
X-11575Y986900D01*
X-10944Y987905D01*
X-10105Y988744D01*
X-9100Y989375D01*
X-7979Y989767D01*
G37*
G36*
X-7979Y989767D02*
X-6800Y989900D01*
X-5621Y989767D01*
X-4500Y989375D01*
X-3495Y988744D01*
X-2656Y987905D01*
X-2025Y986900D01*
X-1633Y985779D01*
X-1500Y984603D01*
X-1500Y976597D01*
X-1633Y975421D01*
X-2025Y974300D01*
X-2656Y973295D01*
X-3495Y972456D01*
X-4500Y971825D01*
X-5621Y971433D01*
X-6800Y971300D01*
X-7979Y971433D01*
X-9100Y971825D01*
X-10105Y972456D01*
X-10944Y973295D01*
X-11575Y974300D01*
X-11967Y975421D01*
X-12100Y976597D01*
X-12100Y984603D01*
X-11967Y985779D01*
X-11575Y986900D01*
X-10944Y987905D01*
X-10105Y988744D01*
X-9100Y989375D01*
X-7979Y989767D01*
G37*
D10*
X-6800Y980600D03*
X-93200Y980600D03*
X-6800Y939100D03*
X-93200Y939100D03*
D11*
X-148882Y666490D03*
X-185838Y666490D03*
X-40102Y666956D03*
X-77058Y666956D03*
X70408Y666490D03*
X33452Y666490D03*
D12*
X-43600Y838500D03*
X-55600Y838500D03*
X-55600Y850500D03*
X-43600Y850500D03*
X-31600Y850500D03*
X-19600Y850500D03*
X-19600Y838500D03*
X-31600Y838500D03*
X-55600Y826500D03*
X-43600Y826500D03*
X-31600Y826500D03*
X-19600Y826500D03*
X-19600Y814500D03*
X-31600Y814500D03*
X-43600Y814500D03*
X-55600Y814500D03*
D13*
X-182880Y931164D02*
X-192024Y931164D01*
X-201168Y922020D01*
D14*
X-182880Y931164D03*
X-201168Y922020D03*
X-210312Y969264D03*
X-242316Y950976D03*
X-124968Y911352D03*
D13*
X-210312Y969264D02*
X-222504Y969264D01*
X-228600Y975360D01*
X-234696Y975360D01*
X-242316Y967740D01*
X-242316Y950976D01*
X-245364Y947928D01*
X-246888Y947928D01*
X-249936Y944880D01*
X-249936Y932688D01*
X-252984Y929640D01*
X-252984Y905256D01*
X-245364Y897636D01*
X-211836Y897636D01*
X-187452Y873252D01*
X-170688Y873252D01*
X-167640Y876300D01*
X-156972Y876300D01*
D14*
X-156972Y876300D03*
X-161544Y702564D03*
X-68580Y818388D03*
X-141732Y771144D03*
X-170688Y693420D03*
X-201168Y691896D03*
X-111252Y774192D03*
D13*
X-68580Y818388D02*
X-59436Y818388D01*
X-56388Y815340D01*
X-55600Y814500D01*
X-54864Y815340D02*
X-44196Y815340D01*
X-54864Y815340D02*
X-55600Y814500D01*
X-44196Y815340D02*
X-43600Y814500D01*
X-56388Y873252D02*
X-56388Y891540D01*
X-56388Y873252D02*
X-53340Y870204D01*
X-53340Y853440D01*
X-54864Y851916D01*
X-55600Y850500D01*
X15240Y853440D02*
X19812Y853440D01*
X15240Y853440D02*
X1524Y839724D01*
X-18288Y839724D01*
X-19600Y838500D01*
X68580Y827532D02*
X85344Y844296D01*
X68580Y827532D02*
X13716Y827532D01*
X1524Y839724D01*
X120396Y946404D02*
X86868Y979932D01*
X120396Y946404D02*
X150876Y915924D01*
X86868Y979932D02*
X-6096Y979932D01*
X-6800Y980600D01*
X120396Y946404D02*
X120396Y941832D01*
X-161544Y702564D02*
X-170688Y693420D01*
X-172212Y691896D02*
X-201168Y691896D01*
X-172212Y691896D02*
X-170688Y693420D01*
X-210312Y682752D02*
X-210312Y678180D01*
X-210312Y682752D02*
X-201168Y691896D01*
X-192024Y915924D02*
X-213360Y915924D01*
X-192024Y915924D02*
X-187452Y911352D01*
X-156972Y911352D01*
X-153924Y914400D01*
X-146304Y914400D01*
X-134112Y926592D01*
X-117348Y926592D01*
X-156972Y702564D02*
X-161544Y702564D01*
X-156972Y702564D02*
X-152400Y707136D01*
X-147828Y707136D01*
X-137160Y717804D01*
X-99060Y717804D01*
X-92964Y723900D01*
X-92964Y751332D01*
X-89916Y754380D01*
X-89916Y784860D01*
X-91440Y786384D01*
X-99060Y786384D01*
X-111252Y774192D01*
X-44196Y746760D02*
X-44196Y813816D01*
X-44196Y746760D02*
X-54864Y736092D01*
X-80772Y736092D01*
X-92964Y723900D01*
X-44196Y813816D02*
X-43600Y814500D01*
D14*
X-56388Y891540D03*
X19812Y853440D03*
X85344Y844296D03*
X150876Y915924D03*
X120396Y941832D03*
X-210312Y678180D03*
X-213360Y915924D03*
X-192024Y915924D03*
X-117348Y926592D03*
D13*
X-240792Y918972D02*
X-240792Y906780D01*
X-240792Y918972D02*
X-224028Y935736D01*
X-211836Y935736D01*
D14*
X-240792Y906780D03*
X-211836Y935736D03*
X-120396Y810768D03*
X-137160Y819912D03*
D13*
X47244Y926592D02*
X50292Y926592D01*
X47244Y926592D02*
X38100Y935736D01*
X25908Y935736D01*
X19812Y929640D01*
D14*
X50292Y926592D03*
X19812Y929640D03*
X-59436Y835152D03*
X-121920Y826008D03*
D13*
X-77724Y826008D01*
D14*
X-77724Y826008D03*
D13*
X-74676Y920496D02*
X-67056Y928116D01*
X-13716Y928116D01*
X-10668Y925068D01*
X1524Y925068D01*
X28956Y952500D01*
D14*
X-74676Y920496D03*
X28956Y952500D03*
D13*
X-16764Y871728D02*
X-35052Y871728D01*
X-16764Y871728D02*
X-4572Y859536D01*
X32004Y859536D01*
X57912Y833628D01*
X54864Y804672D02*
X51816Y801624D01*
X51816Y739140D01*
X62484Y728472D01*
X74676Y716280D02*
X74676Y711708D01*
X86868Y699516D01*
X91440Y699516D01*
X96012Y694944D01*
X96012Y685800D01*
X91440Y681228D01*
X82296Y681228D01*
X77724Y685800D01*
X77724Y690372D01*
X65532Y702564D01*
X-77724Y702564D01*
X-82296Y707136D01*
X-82296Y720852D01*
X-80772Y755904D02*
X-80772Y760476D01*
X-86868Y766572D01*
X-86868Y786384D01*
X-99060Y798576D01*
X-109728Y798576D01*
X-112776Y795528D01*
X-121920Y795528D01*
X-143256Y816864D01*
X-188976Y816864D01*
X-192024Y813816D01*
D14*
X-35052Y871728D03*
X57912Y833628D03*
X54864Y804672D03*
X62484Y728472D03*
X74676Y716280D03*
X-82296Y720852D03*
X-80772Y755904D03*
X-192024Y813816D03*
X-231648Y969264D03*
X-243840Y925068D03*
X-71628Y842772D03*
X-138684Y836676D03*
X-106680Y908304D03*
D13*
X-231648Y932688D02*
X-231648Y944880D01*
X-231648Y969264D01*
X-231648Y932688D02*
X-239268Y925068D01*
X-243840Y925068D01*
X-231648Y944880D02*
X-207264Y944880D01*
X-77724Y835152D02*
X-71628Y841248D01*
X-71628Y842772D01*
X-129540Y836676D02*
X-138684Y836676D01*
X-129540Y836676D02*
X-124968Y832104D01*
X-112776Y832104D01*
X-109728Y829056D01*
X-83820Y829056D01*
X-77724Y835152D01*
X30480Y938784D02*
X36576Y944880D01*
X30480Y938784D02*
X19812Y938784D01*
X-6096Y912876D01*
X-57912Y912876D01*
X-62484Y908304D01*
X-89916Y908304D02*
X-106680Y908304D01*
X-89916Y908304D02*
X-62484Y908304D01*
X-71628Y899160D02*
X-71628Y842772D01*
X-71628Y899160D02*
X-62484Y908304D01*
X-199644Y937260D02*
X-207264Y944880D01*
X-199644Y937260D02*
X-118872Y937260D01*
X-89916Y908304D01*
D14*
X-207264Y944880D03*
X-77724Y835152D03*
X36576Y944880D03*
X-6096Y903732D03*
X-88392Y896112D03*
X-222504Y928116D03*
X-173736Y879348D03*
X-164592Y870204D03*
X-106680Y835152D03*
X-94488Y847344D03*
D13*
X-222504Y912876D02*
X-222504Y928116D01*
X-210312Y900684D02*
X-185928Y876300D01*
X-210312Y900684D02*
X-222504Y912876D01*
X-185928Y876300D02*
X-176784Y876300D01*
X-173736Y879348D01*
X-243840Y941832D02*
X-246888Y938784D01*
X-246888Y931164D01*
X-249936Y928116D01*
X-249936Y906780D01*
X-243840Y900684D01*
X-210312Y900684D01*
X-103632Y838200D02*
X-94488Y847344D01*
X-103632Y838200D02*
X-106680Y835152D01*
X-88392Y853440D02*
X-88392Y896112D01*
X-88392Y853440D02*
X-94488Y847344D01*
X7620Y917448D02*
X105156Y917448D01*
X129540Y917448D01*
X7620Y917448D02*
X-6096Y903732D01*
X59436Y931164D02*
X68580Y931164D01*
X76200Y923544D01*
X86868Y923544D01*
X96012Y932688D01*
X99060Y932688D01*
X105156Y926592D01*
X105156Y917448D01*
X-196596Y943356D02*
X-201168Y947928D01*
X-201168Y955548D01*
X-176784Y979932D01*
X-108204Y979932D01*
X-86868Y958596D01*
X-64008Y958596D02*
X32004Y958596D01*
X-64008Y958596D02*
X-86868Y958596D01*
X32004Y958596D02*
X59436Y931164D01*
X-77724Y926592D02*
X-83820Y920496D01*
X-77724Y926592D02*
X-73152Y926592D01*
X-64008Y935736D01*
X-64008Y958596D01*
X-138684Y873252D02*
X-138684Y868680D01*
X-117348Y847344D01*
X-112776Y847344D01*
X-103632Y838200D01*
D14*
X-243840Y941832D03*
X129540Y917448D03*
X59436Y931164D03*
X-196596Y943356D03*
X-83820Y920496D03*
X-138684Y873252D03*
X36576Y710184D03*
X19812Y726948D03*
D13*
X19812Y752856D01*
X32004Y714756D02*
X36576Y710184D01*
X32004Y714756D02*
X13716Y714756D01*
X-3048Y731520D01*
X-7620Y731520D01*
X-59436Y705612D02*
X-62484Y708660D01*
X-59436Y705612D02*
X4572Y705612D01*
X13716Y714756D01*
D14*
X19812Y752856D03*
X-7620Y731520D03*
X-62484Y708660D03*
X-124968Y841248D03*
X-59436Y867156D03*
X-140208Y911352D03*
X-164592Y896112D03*
X-59436Y826008D03*
X-234696Y676656D03*
X-57912Y742188D03*
X-16764Y789432D03*
X118872Y830580D03*
X28956Y888492D03*
D13*
X-222504Y676656D02*
X-234696Y676656D01*
X-222504Y676656D02*
X-214884Y669036D01*
X-205740Y669036D01*
X-199644Y675132D01*
X-175260Y675132D01*
X-149352Y701040D01*
X-144780Y701040D01*
X-134112Y711708D01*
X-91440Y711708D01*
X-79248Y699516D01*
X64008Y699516D01*
X74676Y688848D01*
X74676Y684276D01*
X80772Y678180D01*
X92964Y678180D01*
X97536Y682752D01*
X128016Y682752D01*
X118872Y830580D02*
X118872Y851916D01*
X135636Y868680D01*
X135636Y883920D01*
X141732Y890016D01*
X141732Y903732D01*
X144780Y906780D01*
X35052Y929640D02*
X25908Y920496D01*
X6096Y920496D01*
X-4572Y909828D01*
X-12192Y909828D02*
X-56388Y909828D01*
X-12192Y909828D02*
X-4572Y909828D01*
X-56388Y909828D02*
X-68580Y897636D01*
X-68580Y876300D01*
X-59436Y867156D01*
X0Y888492D02*
X28956Y888492D01*
X0Y888492D02*
X-12192Y900684D01*
X-12192Y909828D01*
X96012Y920496D02*
X99060Y923544D01*
X96012Y920496D02*
X25908Y920496D01*
X-176784Y908304D02*
X-207264Y908304D01*
X-176784Y908304D02*
X-164592Y896112D01*
X-124968Y845820D02*
X-124968Y841248D01*
X-132588Y853440D02*
X-150876Y871728D01*
X-132588Y853440D02*
X-124968Y845820D01*
X-150876Y871728D02*
X-150876Y882396D01*
X-164592Y896112D01*
X-152400Y911352D02*
X-140208Y911352D01*
X-152400Y911352D02*
X-155448Y908304D01*
X-176784Y908304D01*
X-100584Y871728D02*
X-100584Y854964D01*
X-117348Y888492D02*
X-140208Y911352D01*
X-117348Y888492D02*
X-100584Y871728D01*
X-77724Y880872D02*
X-74676Y883920D01*
X-74676Y894588D01*
X-85344Y905256D01*
X-100584Y905256D01*
X-117348Y888492D01*
X-83820Y768096D02*
X-57912Y742188D01*
X-83820Y768096D02*
X-83820Y787908D01*
X-97536Y801624D01*
X-111252Y801624D01*
X-114300Y798576D01*
X-120396Y798576D01*
X-131064Y809244D01*
X-131064Y822960D01*
X-138684Y830580D01*
X-141732Y830580D01*
X-144780Y833628D01*
X-144780Y841248D01*
X-132588Y853440D01*
D14*
X128016Y682752D03*
X144780Y906780D03*
X35052Y929640D03*
X99060Y923544D03*
X-207264Y908304D03*
X-100584Y854964D03*
X-77724Y880872D03*
X-207264Y960120D03*
X-195072Y952500D03*
X-54864Y804672D03*
X-59436Y789432D03*
X-117348Y950976D03*
X-131064Y964692D03*
X-147828Y905256D03*
X-124968Y920496D03*
D13*
X-117348Y950976D02*
X-131064Y964692D01*
X-195072Y957072D02*
X-195072Y952500D01*
X-195072Y957072D02*
X-175260Y976884D01*
X-143256Y976884D01*
X-131064Y964692D01*
X-65532Y795528D02*
X-59436Y789432D01*
X-65532Y795528D02*
X-71628Y801624D01*
X-64008Y795528D02*
X-54864Y804672D01*
X-64008Y795528D02*
X-65532Y795528D01*
X-147828Y873252D02*
X-147828Y905256D01*
X-147828Y873252D02*
X-115824Y841248D01*
X-105156Y822960D02*
X-108204Y819912D01*
X-105156Y822960D02*
X-92964Y822960D01*
X-71628Y801624D01*
X56388Y720852D02*
X86868Y690372D01*
X48768Y720852D02*
X16764Y720852D01*
X48768Y720852D02*
X56388Y720852D01*
X16764Y720852D02*
X-13716Y751332D01*
X-30480Y751332D01*
X-38100Y758952D01*
X-50292Y768096D02*
X-50292Y780288D01*
X-59436Y789432D01*
X-117348Y944880D02*
X-117348Y950976D01*
X-117348Y944880D02*
X-86868Y914400D01*
X-65532Y914400D01*
X-62484Y917448D01*
X-62484Y922020D01*
X27432Y899160D02*
X35052Y891540D01*
X35052Y861060D01*
X47244Y848868D01*
X51816Y848868D01*
X48768Y812292D02*
X48768Y720852D01*
D14*
X-71628Y801624D03*
X-115824Y841248D03*
X-108204Y819912D03*
X86868Y690372D03*
X-38100Y758952D03*
X-50292Y768096D03*
X-62484Y922020D03*
X27432Y899160D03*
X51816Y848868D03*
X48768Y812292D03*
X76200Y937260D03*
X67056Y861060D03*
D13*
X76200Y937260D02*
X83820Y944880D01*
X94488Y944880D01*
X97536Y941832D01*
X33528Y807720D02*
X33528Y798576D01*
X33528Y807720D02*
X38100Y812292D01*
X114300Y908304D02*
X120396Y908304D01*
X114300Y908304D02*
X67056Y861060D01*
D14*
X97536Y941832D03*
X33528Y798576D03*
X38100Y812292D03*
X120396Y908304D03*
X-18288Y882396D03*
X-30480Y882396D03*
D13*
X-18288Y882396D01*
X-42672Y894588D02*
X-42672Y899160D01*
X-42672Y894588D02*
X-32004Y883920D01*
X-18288Y868680D02*
X1524Y848868D01*
X-18288Y868680D02*
X-28956Y868680D01*
X-32004Y865632D01*
X-38100Y865632D01*
X-41148Y868680D01*
X-41148Y874776D01*
X-32004Y883920D01*
X-30480Y882396D01*
D14*
X-42672Y899160D03*
X1524Y848868D03*
D13*
X1524Y862584D02*
X-3048Y867156D01*
X1524Y862584D02*
X18288Y862584D01*
X28956Y873252D01*
X41148Y873252D02*
X41148Y880872D01*
X60960Y900684D01*
D14*
X-3048Y867156D03*
X28956Y873252D03*
X41148Y873252D03*
X60960Y900684D03*
X-153924Y950976D03*
X-53340Y922020D03*
D13*
X-143256Y940308D02*
X-153924Y950976D01*
X-132588Y940308D02*
X-117348Y940308D01*
X-132588Y940308D02*
X-143256Y940308D01*
X-117348Y940308D02*
X-88392Y911352D01*
X-64008Y911352D01*
X-53340Y922020D01*
X-132588Y940308D02*
X-132588Y943356D01*
D14*
X-132588Y943356D03*
X73152Y906780D03*
X132588Y906780D03*
D13*
X80772Y914400D02*
X73152Y906780D01*
X80772Y914400D02*
X123444Y914400D01*
X129540Y908304D02*
X131064Y906780D01*
X129540Y908304D02*
X123444Y914400D01*
X131064Y906780D02*
X132588Y906780D01*
X129540Y908304D02*
X129540Y891540D01*
X132588Y906780D02*
X129540Y908304D01*
D14*
X129540Y891540D03*
X-149352Y810768D03*
X-173736Y810768D03*
X-195072Y748284D03*
D13*
X-149352Y810768D02*
X-152400Y813816D01*
X-170688Y813816D01*
X-173736Y810768D01*
X70104Y947928D02*
X109728Y947928D01*
X128016Y947928D02*
X128016Y943356D01*
X149352Y922020D01*
X153924Y922020D01*
X158496Y917448D01*
X158496Y861060D01*
X121920Y824484D01*
X0Y824484D01*
X-32004Y792480D01*
X-74676Y781812D02*
X-74676Y768096D01*
X-103632Y768096D02*
X-114300Y768096D01*
X-123444Y777240D01*
X-123444Y792480D01*
X-144780Y813816D01*
X-152400Y813816D01*
X-199644Y752856D02*
X-195072Y748284D01*
X-199644Y752856D02*
X-199644Y787908D01*
X-176784Y810768D01*
X-173736Y810768D01*
D14*
X70104Y947928D03*
X109728Y947928D03*
X128016Y947928D03*
X-32004Y792480D03*
X-74676Y781812D03*
X-74676Y768096D03*
X-103632Y768096D03*
X-140208Y786384D03*
X-192024Y786384D03*
D13*
X-140208Y786384D01*
D14*
X-144780Y749808D03*
X-173736Y778764D03*
D13*
X-144780Y752856D02*
X-144780Y749808D01*
X-144780Y752856D02*
X-170688Y778764D01*
X-173736Y778764D01*
D14*
X-120396Y699516D03*
X-167640Y766572D03*
D13*
X-156972Y755904D02*
X-156972Y733044D01*
X-156972Y755904D02*
X-167640Y766572D01*
D14*
X-156972Y733044D03*
X-178308Y740664D03*
X-178308Y726948D03*
D13*
X-202692Y841248D02*
X-198120Y845820D01*
X-202692Y841248D02*
X-202692Y746760D01*
X-196596Y740664D01*
X-178308Y740664D01*
D14*
X-198120Y845820D03*
X-198120Y858012D03*
X-201168Y736092D03*
D13*
X59436Y940308D02*
X65532Y934212D01*
X70104Y934212D01*
X77724Y926592D01*
X85344Y926592D01*
X94488Y935736D01*
X126492Y935736D01*
X138684Y923544D01*
X138684Y891540D01*
X132588Y885444D01*
X132588Y870204D01*
X92964Y830580D01*
X74676Y812292D02*
X74676Y797052D01*
X68580Y790956D01*
X68580Y713232D01*
X85344Y696468D01*
X89916Y696468D01*
X92964Y693420D01*
X92964Y687324D01*
X89916Y684276D01*
X83820Y684276D01*
X80772Y687324D01*
X80772Y691896D01*
X54864Y717804D01*
X15240Y717804D01*
X-15240Y748284D01*
X-38100Y748284D01*
X-53340Y733044D01*
X-79248Y733044D01*
X-97536Y714756D01*
X-135636Y714756D01*
X-146304Y704088D01*
X-150876Y704088D01*
X-176784Y678180D01*
X-201168Y678180D01*
X-207264Y672084D01*
X-213360Y672084D01*
X-234696Y693420D01*
X-248412Y693420D01*
X-251460Y690372D01*
X-257556Y690372D01*
X-260604Y693420D01*
X-260604Y699516D01*
X-224028Y736092D01*
X-205740Y736092D02*
X-201168Y736092D01*
X-205740Y736092D02*
X-224028Y736092D01*
X-195072Y729996D02*
X-195072Y711708D01*
X-195072Y729996D02*
X-201168Y736092D01*
X-205740Y850392D02*
X-198120Y858012D01*
X-205740Y850392D02*
X-205740Y736092D01*
D14*
X59436Y940308D03*
X92964Y830580D03*
X74676Y812292D03*
X-195072Y711708D03*
X-96012Y780288D03*
X-192024Y685800D03*
D13*
X-96012Y780288D02*
X-92964Y777240D01*
X-92964Y755904D01*
X-96012Y752856D01*
X-96012Y725424D01*
X-100584Y720852D01*
X-138684Y720852D01*
X-149352Y710184D01*
X-182880Y710184D01*
X-188976Y704088D01*
X-205740Y696468D02*
X-254508Y696468D01*
X-205740Y696468D02*
X-198120Y704088D01*
X-188976Y704088D01*
D14*
X-188976Y704088D03*
X-254508Y696468D03*
M02*
