G04 EAGLE Gerber RS-274X export*
G75*
%MOMM*%
%FSLAX34Y34*%
%LPD*%
%INTop Copper*%
%IPPOS*%
%AMOC8*
5,1,8,0,0,1.08239X$1,22.5*%
G01*
G04 Define Apertures*
%ADD10R,1.150000X1.800000*%
%ADD11R,0.280000X0.430000*%
%ADD12R,0.600000X0.500000*%
%ADD13R,0.430000X0.280000*%
%ADD14R,0.500000X0.600000*%
%ADD15R,0.700000X0.600000*%
%ADD16R,0.600000X1.200000*%
%ADD17R,1.150000X0.800000*%
%ADD18C,0.200000*%
%ADD19R,0.300000X0.350000*%
%ADD20R,0.350000X0.300000*%
%ADD21C,0.250000*%
%ADD22C,0.216000*%
%ADD23C,0.783000*%
%ADD24R,0.300000X1.150000*%
%ADD25R,0.600000X1.150000*%
%ADD26C,1.158000*%
%ADD27R,0.700000X0.300000*%
%ADD28R,1.000000X0.300000*%
%ADD29R,1.200000X2.200000*%
%ADD30R,0.900000X5.300000*%
%ADD31R,2.200000X1.200000*%
%ADD32R,0.800000X0.900000*%
%ADD33R,1.050000X0.500000*%
%ADD34R,0.350000X0.250000*%
%ADD35R,1.168400X1.600200*%
%ADD36R,0.711200X1.092200*%
%ADD37R,1.066800X1.066800*%
%ADD38R,1.397000X1.092200*%
%ADD39C,2.000000*%
%ADD40R,4.850000X4.850000*%
%ADD41C,0.808000*%
%ADD42C,0.067500*%
%ADD43R,0.900000X1.300000*%
%ADD44R,0.950000X0.850000*%
%ADD45R,1.800000X1.000000*%
%ADD46C,0.152400*%
%ADD47C,0.756400*%
G36*
X-228540Y744370D02*
X-228540Y691030D01*
X-248860Y691030D01*
X-248860Y701108D01*
X-246256Y702808D01*
X-246256Y702808D01*
X-246256Y702808D01*
X-243538Y705038D01*
X-241311Y707752D01*
X-241311Y707752D01*
X-241311Y707752D01*
X-239657Y710848D01*
X-239657Y710848D01*
X-238641Y714198D01*
X-238827Y717700D01*
X-238641Y721202D01*
X-239657Y724552D01*
X-239657Y724552D01*
X-241311Y727648D01*
X-241311Y727648D01*
X-241311Y727648D01*
X-243538Y730362D01*
X-246256Y732592D01*
X-246256Y732592D01*
X-248860Y734292D01*
X-248860Y744370D01*
X-228540Y744370D01*
G37*
G36*
X-228540Y744370D02*
X-228540Y691030D01*
X-248860Y691030D01*
X-248860Y701108D01*
X-246256Y702808D01*
X-246256Y702808D01*
X-246256Y702808D01*
X-243538Y705038D01*
X-241311Y707752D01*
X-241311Y707752D01*
X-241311Y707752D01*
X-239657Y710848D01*
X-239657Y710848D01*
X-238641Y714198D01*
X-238827Y717700D01*
X-238641Y721202D01*
X-239657Y724552D01*
X-239657Y724552D01*
X-241311Y727648D01*
X-241311Y727648D01*
X-241311Y727648D01*
X-243538Y730362D01*
X-246256Y732592D01*
X-246256Y732592D01*
X-248860Y734292D01*
X-248860Y744370D01*
X-228540Y744370D01*
G37*
G36*
X-263540Y701108D02*
X-263540Y691030D01*
X-283860Y691030D01*
X-283860Y744370D01*
X-263540Y744370D01*
X-263540Y734292D01*
X-266144Y732592D01*
X-266144Y732592D01*
X-268862Y730362D01*
X-271089Y727648D01*
X-271089Y727648D01*
X-271089Y727648D01*
X-272743Y724552D01*
X-272743Y724552D01*
X-273759Y721202D01*
X-273573Y717700D01*
X-273759Y714198D01*
X-272743Y710848D01*
X-272743Y710848D01*
X-271089Y707752D01*
X-271089Y707752D01*
X-271089Y707752D01*
X-268862Y705038D01*
X-266144Y702808D01*
X-266144Y702808D01*
X-263540Y701108D01*
G37*
G36*
X-263540Y701108D02*
X-263540Y691030D01*
X-283860Y691030D01*
X-283860Y744370D01*
X-263540Y744370D01*
X-263540Y734292D01*
X-266144Y732592D01*
X-266144Y732592D01*
X-268862Y730362D01*
X-271089Y727648D01*
X-271089Y727648D01*
X-271089Y727648D01*
X-272743Y724552D01*
X-272743Y724552D01*
X-273759Y721202D01*
X-273573Y717700D01*
X-273759Y714198D01*
X-272743Y710848D01*
X-272743Y710848D01*
X-271089Y707752D01*
X-271089Y707752D01*
X-271089Y707752D01*
X-268862Y705038D01*
X-266144Y702808D01*
X-266144Y702808D01*
X-263540Y701108D01*
G37*
G36*
X-94379Y949767D02*
X-93200Y949900D01*
X-92021Y949767D01*
X-90900Y949375D01*
X-89895Y948744D01*
X-89056Y947905D01*
X-88425Y946900D01*
X-88033Y945779D01*
X-87900Y944603D01*
X-87900Y933597D01*
X-88033Y932421D01*
X-88425Y931300D01*
X-89056Y930295D01*
X-89895Y929456D01*
X-90900Y928825D01*
X-92021Y928433D01*
X-93200Y928300D01*
X-94379Y928433D01*
X-95500Y928825D01*
X-96505Y929456D01*
X-97344Y930295D01*
X-97975Y931300D01*
X-98367Y932421D01*
X-98500Y933597D01*
X-98500Y944603D01*
X-98367Y945779D01*
X-97975Y946900D01*
X-97344Y947905D01*
X-96505Y948744D01*
X-95500Y949375D01*
X-94379Y949767D01*
G37*
G36*
X-94379Y949767D02*
X-93200Y949900D01*
X-92021Y949767D01*
X-90900Y949375D01*
X-89895Y948744D01*
X-89056Y947905D01*
X-88425Y946900D01*
X-88033Y945779D01*
X-87900Y944603D01*
X-87900Y933597D01*
X-88033Y932421D01*
X-88425Y931300D01*
X-89056Y930295D01*
X-89895Y929456D01*
X-90900Y928825D01*
X-92021Y928433D01*
X-93200Y928300D01*
X-94379Y928433D01*
X-95500Y928825D01*
X-96505Y929456D01*
X-97344Y930295D01*
X-97975Y931300D01*
X-98367Y932421D01*
X-98500Y933597D01*
X-98500Y944603D01*
X-98367Y945779D01*
X-97975Y946900D01*
X-97344Y947905D01*
X-96505Y948744D01*
X-95500Y949375D01*
X-94379Y949767D01*
G37*
G36*
X-7979Y949767D02*
X-6800Y949900D01*
X-5621Y949767D01*
X-4500Y949375D01*
X-3495Y948744D01*
X-2656Y947905D01*
X-2025Y946900D01*
X-1633Y945779D01*
X-1500Y944603D01*
X-1500Y933597D01*
X-1633Y932421D01*
X-2025Y931300D01*
X-2656Y930295D01*
X-3495Y929456D01*
X-4500Y928825D01*
X-5621Y928433D01*
X-6800Y928300D01*
X-7979Y928433D01*
X-9100Y928825D01*
X-10105Y929456D01*
X-10944Y930295D01*
X-11575Y931300D01*
X-11967Y932421D01*
X-12100Y933597D01*
X-12100Y944603D01*
X-11967Y945779D01*
X-11575Y946900D01*
X-10944Y947905D01*
X-10105Y948744D01*
X-9100Y949375D01*
X-7979Y949767D01*
G37*
G36*
X-7979Y949767D02*
X-6800Y949900D01*
X-5621Y949767D01*
X-4500Y949375D01*
X-3495Y948744D01*
X-2656Y947905D01*
X-2025Y946900D01*
X-1633Y945779D01*
X-1500Y944603D01*
X-1500Y933597D01*
X-1633Y932421D01*
X-2025Y931300D01*
X-2656Y930295D01*
X-3495Y929456D01*
X-4500Y928825D01*
X-5621Y928433D01*
X-6800Y928300D01*
X-7979Y928433D01*
X-9100Y928825D01*
X-10105Y929456D01*
X-10944Y930295D01*
X-11575Y931300D01*
X-11967Y932421D01*
X-12100Y933597D01*
X-12100Y944603D01*
X-11967Y945779D01*
X-11575Y946900D01*
X-10944Y947905D01*
X-10105Y948744D01*
X-9100Y949375D01*
X-7979Y949767D01*
G37*
G36*
X-94379Y989767D02*
X-93200Y989900D01*
X-92021Y989767D01*
X-90900Y989375D01*
X-89895Y988744D01*
X-89056Y987905D01*
X-88425Y986900D01*
X-88033Y985779D01*
X-87900Y984603D01*
X-87900Y976597D01*
X-88033Y975421D01*
X-88425Y974300D01*
X-89056Y973295D01*
X-89895Y972456D01*
X-90900Y971825D01*
X-92021Y971433D01*
X-93200Y971300D01*
X-94379Y971433D01*
X-95500Y971825D01*
X-96505Y972456D01*
X-97344Y973295D01*
X-97975Y974300D01*
X-98367Y975421D01*
X-98500Y976597D01*
X-98500Y984603D01*
X-98367Y985779D01*
X-97975Y986900D01*
X-97344Y987905D01*
X-96505Y988744D01*
X-95500Y989375D01*
X-94379Y989767D01*
G37*
G36*
X-94379Y989767D02*
X-93200Y989900D01*
X-92021Y989767D01*
X-90900Y989375D01*
X-89895Y988744D01*
X-89056Y987905D01*
X-88425Y986900D01*
X-88033Y985779D01*
X-87900Y984603D01*
X-87900Y976597D01*
X-88033Y975421D01*
X-88425Y974300D01*
X-89056Y973295D01*
X-89895Y972456D01*
X-90900Y971825D01*
X-92021Y971433D01*
X-93200Y971300D01*
X-94379Y971433D01*
X-95500Y971825D01*
X-96505Y972456D01*
X-97344Y973295D01*
X-97975Y974300D01*
X-98367Y975421D01*
X-98500Y976597D01*
X-98500Y984603D01*
X-98367Y985779D01*
X-97975Y986900D01*
X-97344Y987905D01*
X-96505Y988744D01*
X-95500Y989375D01*
X-94379Y989767D01*
G37*
G36*
X-7979Y989767D02*
X-6800Y989900D01*
X-5621Y989767D01*
X-4500Y989375D01*
X-3495Y988744D01*
X-2656Y987905D01*
X-2025Y986900D01*
X-1633Y985779D01*
X-1500Y984603D01*
X-1500Y976597D01*
X-1633Y975421D01*
X-2025Y974300D01*
X-2656Y973295D01*
X-3495Y972456D01*
X-4500Y971825D01*
X-5621Y971433D01*
X-6800Y971300D01*
X-7979Y971433D01*
X-9100Y971825D01*
X-10105Y972456D01*
X-10944Y973295D01*
X-11575Y974300D01*
X-11967Y975421D01*
X-12100Y976597D01*
X-12100Y984603D01*
X-11967Y985779D01*
X-11575Y986900D01*
X-10944Y987905D01*
X-10105Y988744D01*
X-9100Y989375D01*
X-7979Y989767D01*
G37*
G36*
X-7979Y989767D02*
X-6800Y989900D01*
X-5621Y989767D01*
X-4500Y989375D01*
X-3495Y988744D01*
X-2656Y987905D01*
X-2025Y986900D01*
X-1633Y985779D01*
X-1500Y984603D01*
X-1500Y976597D01*
X-1633Y975421D01*
X-2025Y974300D01*
X-2656Y973295D01*
X-3495Y972456D01*
X-4500Y971825D01*
X-5621Y971433D01*
X-6800Y971300D01*
X-7979Y971433D01*
X-9100Y971825D01*
X-10105Y972456D01*
X-10944Y973295D01*
X-11575Y974300D01*
X-11967Y975421D01*
X-12100Y976597D01*
X-12100Y984603D01*
X-11967Y985779D01*
X-11575Y986900D01*
X-10944Y987905D01*
X-10105Y988744D01*
X-9100Y989375D01*
X-7979Y989767D01*
G37*
G36*
X-190537Y656838D02*
X-190537Y663696D01*
X-178853Y663696D01*
X-178853Y656838D01*
X-190537Y656838D01*
G37*
G36*
X-155867Y656838D02*
X-155867Y663696D01*
X-144183Y663696D01*
X-144183Y656838D01*
X-155867Y656838D01*
G37*
G36*
X-81757Y657304D02*
X-81757Y664162D01*
X-70073Y664162D01*
X-70073Y657304D01*
X-81757Y657304D01*
G37*
G36*
X-47087Y657304D02*
X-47087Y664162D01*
X-35403Y664162D01*
X-35403Y657304D01*
X-47087Y657304D01*
G37*
G36*
X28753Y656838D02*
X28753Y663696D01*
X40437Y663696D01*
X40437Y656838D01*
X28753Y656838D01*
G37*
G36*
X63423Y656838D02*
X63423Y663696D01*
X75107Y663696D01*
X75107Y656838D01*
X63423Y656838D01*
G37*
D10*
X77400Y970500D03*
X107400Y970500D03*
D11*
X57850Y863900D03*
X62950Y863900D03*
D12*
X-218400Y656600D03*
X-218400Y666600D03*
D13*
X10900Y849150D03*
X10900Y854250D03*
X10600Y862950D03*
X10600Y868050D03*
X-4000Y884050D03*
X-4000Y889150D03*
X-18100Y887350D03*
X-18100Y892450D03*
D14*
X-88800Y863400D03*
X-98800Y863400D03*
D12*
X-46600Y881300D03*
X-46600Y891300D03*
D13*
X-32100Y884950D03*
X-32100Y890050D03*
D11*
X-119950Y850100D03*
X-114850Y850100D03*
X-120450Y863100D03*
X-115350Y863100D03*
D13*
X8600Y940050D03*
X8600Y934950D03*
X82100Y885350D03*
X82100Y890450D03*
D14*
X-179700Y695400D03*
X-169700Y695400D03*
X-88800Y787400D03*
X-98800Y787400D03*
D12*
X-65400Y783700D03*
X-65400Y773700D03*
D13*
X20100Y806450D03*
X20100Y801350D03*
D14*
X-135800Y909400D03*
X-145800Y909400D03*
D11*
X-193050Y907900D03*
X-198150Y907900D03*
D12*
X-165100Y942100D03*
X-165100Y952100D03*
D14*
X87300Y677600D03*
X97300Y677600D03*
D13*
X-123400Y937050D03*
X-123400Y931950D03*
X3100Y840450D03*
X3100Y835350D03*
D12*
X-181900Y975400D03*
X-181900Y965400D03*
X114900Y922600D03*
X114900Y932600D03*
D13*
X19100Y893650D03*
X19100Y888550D03*
D15*
X-226400Y964600D03*
X-226400Y974600D03*
X-197400Y964500D03*
X-197400Y974500D03*
X-213400Y964700D03*
X-213400Y974700D03*
D13*
X8100Y806250D03*
X8100Y801150D03*
X-129900Y879150D03*
X-129900Y874050D03*
D12*
X11100Y731200D03*
X11100Y721200D03*
X-25900Y732000D03*
X-25900Y722000D03*
X-62900Y733800D03*
X-62900Y723800D03*
D11*
X-90950Y874400D03*
X-96050Y874400D03*
D14*
X-88300Y799400D03*
X-98300Y799400D03*
D13*
X-19400Y784550D03*
X-19400Y779450D03*
X-39400Y784050D03*
X-39400Y778950D03*
X3600Y824550D03*
X3600Y819450D03*
D16*
X-132900Y956100D03*
X-123400Y956100D03*
X-113900Y956100D03*
X-113900Y981100D03*
X-123400Y981100D03*
X-132900Y981100D03*
D17*
X-131900Y700700D03*
X-96900Y700700D03*
X-131500Y663700D03*
X-96500Y663700D03*
X-131300Y737200D03*
X-96300Y737200D03*
D11*
X-154850Y841600D03*
X-159950Y841600D03*
D14*
X-148800Y831600D03*
X-158800Y831600D03*
X-149200Y820600D03*
X-159200Y820600D03*
X-149600Y810600D03*
X-159600Y810600D03*
X-150000Y799600D03*
X-160000Y799600D03*
X-149400Y788600D03*
X-159400Y788600D03*
X-148800Y777600D03*
X-158800Y777600D03*
X-148800Y765400D03*
X-158800Y765400D03*
X-148900Y861400D03*
X-158900Y861400D03*
X-149000Y851400D03*
X-159000Y851400D03*
D18*
X-194200Y936400D03*
X-190200Y936400D03*
X-194200Y932400D03*
X-190200Y932400D03*
X-194200Y928400D03*
X-190200Y928400D03*
X-194200Y924400D03*
X-190200Y924400D03*
D19*
X42300Y937150D03*
X37300Y937150D03*
X32300Y937150D03*
X27300Y937150D03*
D20*
X27050Y931900D03*
X27050Y926900D03*
D19*
X27300Y921650D03*
X32300Y921650D03*
X37300Y921650D03*
X42300Y921650D03*
D20*
X42550Y926900D03*
X42550Y931900D03*
D21*
X135700Y930400D03*
X140700Y930400D03*
X145700Y930400D03*
X135700Y925400D03*
X140700Y925400D03*
X145700Y925400D03*
X135700Y920400D03*
X140700Y920400D03*
X145700Y920400D03*
D22*
X-233200Y924400D03*
X-229200Y924400D03*
X-225200Y924400D03*
X-233200Y920400D03*
X-229200Y920400D03*
X-225200Y920400D03*
X-233200Y916400D03*
X-229200Y916400D03*
X-225200Y916400D03*
X-233200Y912400D03*
X-229200Y912400D03*
X-225200Y912400D03*
X-233200Y908400D03*
X-229200Y908400D03*
X-225200Y908400D03*
D23*
X124230Y781550D03*
X124230Y768850D03*
X111530Y781550D03*
X111530Y768850D03*
X98820Y781550D03*
X98820Y768850D03*
D24*
X-47500Y933350D03*
X-42500Y933350D03*
X-37500Y933350D03*
X-32500Y933350D03*
X-52500Y933350D03*
X-57500Y933350D03*
X-62500Y933350D03*
X-67500Y933350D03*
D25*
X-18000Y933350D03*
X-26000Y933350D03*
X-74000Y933350D03*
X-82000Y933350D03*
D26*
X-6800Y980600D03*
X-93200Y980600D03*
X-6800Y939100D03*
X-93200Y939100D03*
D27*
X-182950Y874300D03*
X-182950Y869300D03*
X-182950Y864300D03*
X-182950Y859300D03*
X-182950Y854300D03*
X-182950Y849300D03*
X-182950Y844300D03*
X-182950Y839300D03*
X-182950Y834300D03*
X-182950Y829300D03*
X-182950Y824300D03*
X-182950Y819300D03*
X-182950Y814300D03*
X-182950Y809300D03*
X-182950Y804300D03*
X-182950Y799300D03*
X-182950Y794300D03*
X-182950Y789300D03*
X-182950Y784300D03*
X-182950Y779300D03*
X-182950Y774300D03*
X-182950Y769300D03*
X-182950Y764300D03*
X-182950Y759300D03*
D28*
X-209450Y882200D03*
X-209450Y751400D03*
D29*
X16120Y830100D03*
X36680Y830100D03*
D12*
X-67100Y875900D03*
X-67100Y885900D03*
X-67100Y897400D03*
X-67100Y907400D03*
D30*
X-279060Y717700D03*
X-233340Y717700D03*
D31*
X-269900Y920180D03*
X-269900Y899620D03*
D32*
X70600Y922800D03*
X89600Y922800D03*
X80100Y943800D03*
D33*
X-207000Y725000D03*
X-207000Y712000D03*
X-186000Y718500D03*
D34*
X-51500Y753250D03*
X-51500Y747750D03*
X11900Y752250D03*
X11900Y746750D03*
X-236500Y948250D03*
X-236500Y942750D03*
X-228900Y948250D03*
X-228900Y942750D03*
X80100Y917250D03*
X80100Y911750D03*
X-215300Y948250D03*
X-215300Y942750D03*
X-28700Y911250D03*
X-28700Y905750D03*
X-196900Y692750D03*
X-196900Y698250D03*
X-135500Y855250D03*
X-135500Y849750D03*
X-221900Y948250D03*
X-221900Y942750D03*
X-24300Y753250D03*
X-24300Y747750D03*
X-166300Y915750D03*
X-166300Y921250D03*
X58700Y953250D03*
X58700Y947750D03*
X-223700Y685250D03*
X-223700Y679750D03*
X-214100Y698250D03*
X-214100Y692750D03*
D35*
X-247280Y678300D03*
X-262520Y678300D03*
D36*
X-153358Y680015D03*
X-181362Y680015D03*
D37*
X-148882Y666490D03*
X-185838Y666490D03*
D38*
X-167360Y681539D03*
D36*
X-44578Y680481D03*
X-72582Y680481D03*
D37*
X-40102Y666956D03*
X-77058Y666956D03*
D38*
X-58580Y682005D03*
D36*
X65932Y680015D03*
X37928Y680015D03*
D37*
X70408Y666490D03*
X33452Y666490D03*
D38*
X51930Y681539D03*
D39*
X126600Y843900D03*
X145700Y682700D03*
X30100Y969900D03*
X103500Y843900D03*
X149700Y867900D03*
X103800Y897700D03*
X149500Y843900D03*
X-257100Y959700D03*
X-269200Y939900D03*
X125100Y867900D03*
X144800Y708900D03*
X117400Y707900D03*
X-157100Y970900D03*
X-151700Y890900D03*
D40*
X-37600Y832500D03*
D18*
X-65100Y832500D03*
X-65100Y837500D03*
X-65100Y842500D03*
X-65100Y847500D03*
X-65100Y852500D03*
X-70100Y855000D03*
X-70100Y845000D03*
X-70100Y840000D03*
X-70100Y835000D03*
X-70100Y830000D03*
X-65100Y827500D03*
X-65100Y822500D03*
X-70100Y825000D03*
X-70100Y820000D03*
X-70100Y815000D03*
X-65100Y812500D03*
X-65100Y807500D03*
X-65100Y800000D03*
X-60100Y800000D03*
X-57600Y805000D03*
X-55100Y800000D03*
X-50100Y800000D03*
X-45100Y800000D03*
X-40100Y800000D03*
X-35100Y800000D03*
X-30100Y800000D03*
X-25100Y800000D03*
X-20100Y800000D03*
X-15100Y800000D03*
X-10100Y800000D03*
X-17600Y805000D03*
X-22600Y805000D03*
X-27600Y805000D03*
X-32600Y805000D03*
X-37600Y805000D03*
X-42600Y805000D03*
X-47600Y805000D03*
X-10100Y812500D03*
X-5100Y810000D03*
X-5100Y805000D03*
X-5100Y815000D03*
X-10100Y817500D03*
X-5100Y820000D03*
X-10100Y822500D03*
X-10100Y827500D03*
X-5100Y825000D03*
X-5100Y830000D03*
X-5100Y835000D03*
X-5100Y840000D03*
X-10100Y842500D03*
X-10100Y847500D03*
X-5100Y850000D03*
X-10100Y852500D03*
X-5100Y860000D03*
X-70100Y860000D03*
X-57600Y860000D03*
X-52600Y860000D03*
X-47600Y860000D03*
X-45100Y865000D03*
X-42600Y860000D03*
X-40100Y865000D03*
X-37600Y860000D03*
X-35100Y865000D03*
X-32600Y860000D03*
X-30100Y865000D03*
X-27600Y860000D03*
X-25100Y865000D03*
X-22600Y860000D03*
X-20100Y865000D03*
X-15100Y865000D03*
X-10100Y865000D03*
X-62600Y860000D03*
X-50100Y865000D03*
D41*
X-43600Y838500D03*
X-55600Y838500D03*
X-55600Y850500D03*
X-43600Y850500D03*
X-31600Y850500D03*
X-19600Y850500D03*
X-19600Y838500D03*
X-31600Y838500D03*
X-55600Y826500D03*
X-43600Y826500D03*
X-31600Y826500D03*
X-19600Y826500D03*
X-19600Y814500D03*
X-31600Y814500D03*
X-43600Y814500D03*
X-55600Y814500D03*
D42*
X-113987Y902587D02*
X-120913Y902587D01*
X-120913Y904613D01*
X-113987Y904613D01*
X-113987Y902587D01*
X-113987Y903228D02*
X-120913Y903228D01*
X-120913Y903869D02*
X-113987Y903869D01*
X-113987Y904510D02*
X-120913Y904510D01*
X-120913Y897587D02*
X-113987Y897587D01*
X-120913Y897587D02*
X-120913Y899613D01*
X-113987Y899613D01*
X-113987Y897587D01*
X-113987Y898228D02*
X-120913Y898228D01*
X-120913Y898869D02*
X-113987Y898869D01*
X-113987Y899510D02*
X-120913Y899510D01*
X-120913Y892587D02*
X-113987Y892587D01*
X-120913Y892587D02*
X-120913Y894613D01*
X-113987Y894613D01*
X-113987Y892587D01*
X-113987Y893228D02*
X-120913Y893228D01*
X-120913Y893869D02*
X-113987Y893869D01*
X-113987Y894510D02*
X-120913Y894510D01*
X-120913Y887587D02*
X-113987Y887587D01*
X-120913Y887587D02*
X-120913Y889613D01*
X-113987Y889613D01*
X-113987Y887587D01*
X-113987Y888228D02*
X-120913Y888228D01*
X-120913Y888869D02*
X-113987Y888869D01*
X-113987Y889510D02*
X-120913Y889510D01*
X-101213Y887587D02*
X-94287Y887587D01*
X-101213Y887587D02*
X-101213Y889613D01*
X-94287Y889613D01*
X-94287Y887587D01*
X-94287Y888228D02*
X-101213Y888228D01*
X-101213Y888869D02*
X-94287Y888869D01*
X-94287Y889510D02*
X-101213Y889510D01*
X-101213Y892587D02*
X-94287Y892587D01*
X-101213Y892587D02*
X-101213Y894613D01*
X-94287Y894613D01*
X-94287Y892587D01*
X-94287Y893228D02*
X-101213Y893228D01*
X-101213Y893869D02*
X-94287Y893869D01*
X-94287Y894510D02*
X-101213Y894510D01*
X-101213Y897587D02*
X-94287Y897587D01*
X-101213Y897587D02*
X-101213Y899613D01*
X-94287Y899613D01*
X-94287Y897587D01*
X-94287Y898228D02*
X-101213Y898228D01*
X-101213Y898869D02*
X-94287Y898869D01*
X-94287Y899510D02*
X-101213Y899510D01*
X-101213Y902587D02*
X-94287Y902587D01*
X-101213Y902587D02*
X-101213Y904613D01*
X-94287Y904613D01*
X-94287Y902587D01*
X-94287Y903228D02*
X-101213Y903228D01*
X-101213Y903869D02*
X-94287Y903869D01*
X-94287Y904510D02*
X-101213Y904510D01*
D43*
X-107600Y896100D03*
D44*
X51650Y879450D03*
X66150Y879450D03*
X66150Y890950D03*
X51650Y890950D03*
D45*
X-93500Y817600D03*
X-93500Y842600D03*
D46*
X-228600Y925068D02*
X-233172Y925068D01*
X-229200Y924400D02*
X-228600Y925068D01*
X-190500Y932688D02*
X-184404Y932688D01*
X-182880Y931164D01*
X-201168Y922020D02*
X-201168Y918972D01*
X-198120Y915924D01*
X-198120Y908304D01*
X-190200Y932400D02*
X-190500Y932688D01*
X-198120Y908304D02*
X-198150Y907900D01*
X-233172Y925068D02*
X-233172Y928116D01*
X-228600Y932688D01*
X-227076Y932688D01*
X-225552Y934212D01*
X-219456Y934212D01*
X-216408Y931164D01*
X-216408Y925068D01*
X-208788Y925068D01*
X-205740Y922020D01*
X-201168Y922020D01*
X-233200Y924400D02*
X-233172Y925068D01*
X-160020Y891540D02*
X-152400Y891540D01*
X-160020Y891540D02*
X-163068Y888492D01*
X-196596Y888492D01*
X-198120Y890016D01*
X-198120Y906780D01*
X-152400Y891540D02*
X-151700Y890900D01*
X-198120Y906780D02*
X-198150Y907900D01*
D47*
X-182880Y931164D03*
X-201168Y922020D03*
X-210312Y969264D03*
X-242316Y950976D03*
X-124968Y911352D03*
D46*
X-230124Y963168D02*
X-242316Y950976D01*
X-230124Y963168D02*
X-227076Y963168D01*
X-226400Y964600D01*
X-134112Y902208D02*
X-124968Y911352D01*
X-134112Y902208D02*
X-134112Y900684D01*
X-132588Y899160D01*
X-118872Y899160D01*
X-117450Y898600D01*
X-131064Y891540D02*
X-131064Y879348D01*
X-131064Y891540D02*
X-129540Y893064D01*
X-118872Y893064D01*
X-117450Y893600D01*
X-118872Y894588D02*
X-118872Y897636D01*
X-117450Y898600D01*
X-118872Y894588D02*
X-117450Y893600D01*
X-124968Y911352D02*
X-131064Y917448D01*
X-131064Y922020D01*
X-144780Y935736D01*
X-144780Y967740D01*
X-143256Y969264D01*
X-144780Y970788D01*
X-156972Y970788D01*
X-157100Y970900D01*
X-156972Y876300D02*
X-153924Y873252D01*
X-152400Y873252D01*
X-146304Y879348D01*
X-131064Y879348D01*
X-129900Y879150D01*
D47*
X-156972Y876300D03*
X-161544Y702564D03*
X-68580Y818388D03*
X-141732Y771144D03*
X-170688Y693420D03*
X-201168Y691896D03*
X-111252Y774192D03*
D46*
X9144Y801624D02*
X19812Y801624D01*
X9144Y801624D02*
X8100Y801150D01*
X19812Y801624D02*
X20100Y801350D01*
X21336Y801624D02*
X25908Y801624D01*
X27432Y800100D01*
X27432Y795528D01*
X30480Y792480D01*
X56388Y792480D01*
X70104Y806196D01*
X77724Y806196D01*
X99060Y827532D01*
X99060Y844296D01*
X102108Y844296D01*
X21336Y801624D02*
X20100Y801350D01*
X102108Y844296D02*
X103500Y843900D01*
X9144Y813816D02*
X4572Y818388D01*
X9144Y813816D02*
X21336Y813816D01*
X27432Y819912D01*
X27432Y841248D01*
X28956Y842772D01*
X28956Y853440D01*
X27432Y854964D01*
X19812Y854964D02*
X12192Y854964D01*
X19812Y854964D02*
X25908Y854964D01*
X27432Y854964D01*
X3600Y819450D02*
X4572Y818388D01*
X10900Y854250D02*
X12192Y854964D01*
X10668Y868680D02*
X24384Y868680D01*
X25908Y867156D01*
X25908Y854964D01*
X10600Y868050D02*
X10668Y868680D01*
X-35052Y890016D02*
X-41148Y890016D01*
X-35052Y890016D02*
X-33528Y890016D01*
X-41148Y890016D02*
X-42672Y891540D01*
X-45720Y891540D01*
X-33528Y890016D02*
X-32100Y890050D01*
X-45720Y891540D02*
X-46600Y891300D01*
X-27432Y905256D02*
X-13716Y905256D01*
X-12192Y903732D01*
X-12192Y894588D01*
X-13716Y893064D01*
X-16764Y893064D01*
X-27432Y905256D02*
X-28700Y905750D01*
X-18100Y892450D02*
X-16764Y893064D01*
X-3048Y888492D02*
X7620Y888492D01*
X7620Y890016D01*
X6096Y891540D01*
X1524Y891540D01*
X0Y893064D01*
X-13716Y893064D01*
X-4000Y889150D02*
X-3048Y888492D01*
X-35052Y890016D02*
X-35052Y891540D01*
X-33528Y893064D01*
X-18288Y893064D01*
X-18100Y892450D01*
X-53340Y859536D02*
X-54864Y858012D01*
X-54864Y851916D01*
X-53340Y859536D02*
X-52600Y860000D01*
X-27432Y847344D02*
X-19812Y847344D01*
X-10668Y847344D01*
X-27432Y847344D02*
X-30480Y850392D01*
X-10668Y847344D02*
X-10100Y847500D01*
X-42672Y826008D02*
X-42672Y815340D01*
X-42672Y826008D02*
X-43600Y826500D01*
X-42672Y826008D02*
X-37600Y832500D01*
X-42672Y815340D02*
X-32004Y815340D01*
X-31600Y814500D01*
X-42672Y815340D02*
X-43600Y814500D01*
X-32004Y827532D02*
X-32004Y832104D01*
X-36576Y832104D01*
X-32004Y827532D02*
X-31600Y826500D01*
X-36576Y832104D02*
X-37600Y832500D01*
X-48768Y845820D02*
X-54864Y839724D01*
X-55600Y838500D01*
X-48768Y845820D02*
X-37600Y832500D01*
X-43600Y838500D02*
X-42672Y839724D01*
X-37600Y832500D01*
X-32004Y839724D02*
X-33528Y841248D01*
X-32004Y839724D02*
X-31600Y838500D01*
X-33528Y841248D02*
X-37600Y832500D01*
X-30480Y815340D02*
X-19812Y815340D01*
X-19600Y814500D01*
X-30480Y815340D02*
X-31600Y814500D01*
X-19812Y827532D02*
X-19812Y830580D01*
X-21336Y832104D01*
X-32004Y832104D01*
X-19812Y827532D02*
X-19600Y826500D01*
X-32004Y832104D02*
X-37600Y832500D01*
X-19812Y830580D02*
X-19812Y838200D01*
X-19600Y838500D01*
X-19812Y830580D02*
X-37600Y832500D01*
X-55600Y850500D02*
X-54864Y851916D01*
X-37600Y832500D01*
X-44196Y850392D02*
X-47244Y850392D01*
X-50292Y847344D01*
X-44196Y850392D02*
X-43600Y850500D01*
X-50292Y847344D02*
X-37600Y832500D01*
X-31600Y850500D02*
X-30480Y850392D01*
X-37600Y832500D01*
X-19812Y847344D02*
X-19812Y850392D01*
X-19600Y850500D01*
X-19812Y847344D02*
X-37600Y832500D01*
X-47244Y891540D02*
X-56388Y891540D01*
X-47244Y891540D02*
X-46600Y891300D01*
X19812Y854964D02*
X19812Y853440D01*
X85344Y844296D02*
X99060Y844296D01*
X103500Y843900D01*
X25908Y882396D02*
X19812Y888492D01*
X25908Y882396D02*
X32004Y882396D01*
X36576Y886968D01*
X36576Y890016D01*
X38100Y891540D01*
X50292Y891540D01*
X19812Y888492D02*
X19100Y888550D01*
X50292Y891540D02*
X51650Y890950D01*
X80772Y917448D02*
X88392Y909828D01*
X88392Y897636D01*
X82296Y891540D01*
X82100Y890450D01*
X83820Y879348D02*
X67056Y879348D01*
X83820Y879348D02*
X92964Y888492D01*
X91440Y890016D01*
X82296Y890016D01*
X67056Y879348D02*
X66150Y879450D01*
X82296Y890016D02*
X82100Y890450D01*
X54864Y891540D02*
X51816Y891540D01*
X54864Y891540D02*
X54864Y888492D01*
X64008Y879348D01*
X65532Y879348D01*
X51650Y890950D02*
X51816Y891540D01*
X65532Y879348D02*
X66150Y879450D01*
X32004Y914400D02*
X32004Y920496D01*
X32004Y914400D02*
X36576Y914400D01*
X36576Y920496D01*
X32300Y921650D02*
X32004Y920496D01*
X36576Y920496D02*
X37300Y921650D01*
X7620Y934212D02*
X-6096Y934212D01*
X-7620Y935736D01*
X-7620Y938784D01*
X-6800Y939100D01*
X21336Y914400D02*
X32004Y914400D01*
X21336Y914400D02*
X7620Y928116D01*
X7620Y934212D01*
X8600Y934950D01*
X124968Y925068D02*
X135636Y925068D01*
X124968Y925068D02*
X123444Y926592D01*
X123444Y932688D01*
X120396Y932688D02*
X115824Y932688D01*
X120396Y932688D02*
X123444Y932688D01*
X135700Y925400D02*
X135636Y925068D01*
X115824Y932688D02*
X114900Y932600D01*
X146304Y925068D02*
X153924Y925068D01*
X155448Y923544D01*
X155448Y920496D01*
X150876Y915924D01*
X146304Y925068D02*
X145700Y925400D01*
X120396Y932688D02*
X120396Y941832D01*
X28956Y969264D02*
X6096Y969264D01*
X-4572Y979932D01*
X-6096Y979932D01*
X28956Y969264D02*
X30100Y969900D01*
X-6096Y979932D02*
X-6800Y980600D01*
X-6096Y957072D02*
X-6096Y940308D01*
X-6096Y957072D02*
X6096Y969264D01*
X-6096Y940308D02*
X-6800Y939100D01*
X80772Y926592D02*
X80772Y917448D01*
X80772Y926592D02*
X91440Y937260D01*
X91440Y950976D01*
X88392Y954024D01*
X71628Y954024D01*
X57912Y967740D01*
X48768Y967740D01*
X47244Y969264D01*
X30480Y969264D01*
X80100Y917250D02*
X80772Y917448D01*
X30480Y969264D02*
X30100Y969900D01*
X97536Y691896D02*
X97536Y678180D01*
X97536Y691896D02*
X92964Y696468D01*
X67056Y696468D01*
X65532Y694944D01*
X65532Y681228D01*
X97300Y677600D02*
X97536Y678180D01*
X65932Y680015D02*
X65532Y681228D01*
X-7620Y722376D02*
X-24384Y722376D01*
X-7620Y722376D02*
X-6096Y720852D01*
X10668Y720852D01*
X-24384Y722376D02*
X-25900Y722000D01*
X10668Y720852D02*
X11100Y721200D01*
X-44196Y723900D02*
X-62484Y723900D01*
X-44196Y723900D02*
X-42672Y722376D01*
X-25908Y722376D01*
X-62484Y723900D02*
X-62900Y723800D01*
X-25908Y722376D02*
X-25900Y722000D01*
X-44196Y723900D02*
X-44196Y681228D01*
X-44578Y680481D01*
X59436Y696468D02*
X67056Y696468D01*
X59436Y696468D02*
X33528Y722376D01*
X30480Y722376D01*
X28956Y720852D01*
X12192Y720852D01*
X11100Y721200D01*
X-219456Y665988D02*
X-245364Y665988D01*
X-246888Y667512D01*
X-246888Y678180D01*
X-219456Y665988D02*
X-218400Y666600D01*
X-246888Y678180D02*
X-247280Y678300D01*
X-213360Y697992D02*
X-207264Y697992D01*
X-201168Y691896D01*
X-213360Y697992D02*
X-214100Y698250D01*
X-199644Y693420D02*
X-198120Y693420D01*
X-199644Y693420D02*
X-201168Y691896D01*
X-198120Y693420D02*
X-196900Y692750D01*
X-161544Y702564D02*
X-158496Y702564D01*
X-153924Y697992D01*
X-153924Y681228D01*
X-153358Y680015D01*
X-132588Y672084D02*
X-132588Y664464D01*
X-132588Y672084D02*
X-138684Y678180D01*
X-153924Y678180D01*
X-153924Y679704D01*
X-132588Y664464D02*
X-131500Y663700D01*
X-153358Y680015D02*
X-153924Y679704D01*
X-207264Y665988D02*
X-217932Y665988D01*
X-207264Y665988D02*
X-207264Y675132D01*
X-210312Y678180D01*
X-218400Y666600D02*
X-217932Y665988D01*
X-231648Y915924D02*
X-233172Y917448D01*
X-231648Y915924D02*
X-230124Y915924D01*
X-229200Y916400D01*
X-233172Y920496D02*
X-236220Y917448D01*
X-236220Y915924D01*
X-234696Y915924D01*
X-233172Y917448D01*
X-233200Y920400D02*
X-233172Y920496D01*
X-233172Y917448D02*
X-233200Y916400D01*
X-228600Y915924D02*
X-225552Y915924D01*
X-228600Y915924D02*
X-229200Y916400D01*
X-185928Y918972D02*
X-182880Y915924D01*
X-185928Y918972D02*
X-190500Y923544D01*
X-182880Y915924D02*
X-167640Y915924D01*
X-190500Y923544D02*
X-190200Y924400D01*
X-167640Y915924D02*
X-166300Y915750D01*
X-193548Y915924D02*
X-193548Y908304D01*
X-192024Y915924D02*
X-182880Y915924D01*
X-192024Y915924D02*
X-193548Y915924D01*
X-193548Y908304D02*
X-193050Y907900D01*
X-213360Y915924D02*
X-225552Y915924D01*
X-225200Y916400D01*
X-181356Y964692D02*
X-173736Y964692D01*
X-173736Y952500D01*
X-166116Y952500D01*
X-181356Y964692D02*
X-181900Y965400D01*
X-166116Y952500D02*
X-165100Y952100D01*
X-214884Y975360D02*
X-225552Y975360D01*
X-226400Y974600D01*
X-214884Y975360D02*
X-213400Y974700D01*
X-205740Y973836D02*
X-198120Y973836D01*
X-205740Y973836D02*
X-207264Y975360D01*
X-213360Y975360D01*
X-198120Y973836D02*
X-197400Y974500D01*
X-213360Y975360D02*
X-213400Y974700D01*
X-187452Y970788D02*
X-182880Y966216D01*
X-187452Y970788D02*
X-187452Y972312D01*
X-188976Y973836D01*
X-196596Y973836D01*
X-182880Y966216D02*
X-181900Y965400D01*
X-196596Y973836D02*
X-197400Y974500D01*
X-172212Y932688D02*
X-185928Y918972D01*
X-172212Y932688D02*
X-172212Y934212D01*
X-179832Y941832D01*
X-179832Y950976D01*
X-178308Y952500D01*
X-173736Y952500D01*
X-99060Y786384D02*
X-106680Y778764D01*
X-111252Y774192D01*
X-99060Y786384D02*
X-98800Y787400D01*
X-99060Y787908D02*
X-99060Y798576D01*
X-98300Y799400D01*
X-99060Y787908D02*
X-98800Y787400D01*
X-38100Y778764D02*
X-19812Y778764D01*
X-38100Y778764D02*
X-39400Y778950D01*
X-19812Y778764D02*
X-19400Y779450D01*
X-50292Y774192D02*
X-64008Y774192D01*
X-50292Y774192D02*
X-45720Y778764D01*
X-39624Y778764D01*
X-64008Y774192D02*
X-65400Y773700D01*
X-39624Y778764D02*
X-39400Y778950D01*
X-102108Y774192D02*
X-106680Y778764D01*
X-102108Y774192D02*
X-65532Y774192D01*
X-65400Y773700D01*
X-100584Y932688D02*
X-112776Y932688D01*
X-115824Y932688D01*
X-121920Y932688D01*
X-100584Y932688D02*
X-94488Y938784D01*
X-121920Y932688D02*
X-123400Y931950D01*
X-94488Y938784D02*
X-93200Y939100D01*
X-123444Y944880D02*
X-123444Y955548D01*
X-123444Y944880D02*
X-115824Y937260D01*
X-115824Y932688D01*
X-123444Y955548D02*
X-123400Y956100D01*
X-106680Y967740D02*
X-94488Y979932D01*
X-106680Y967740D02*
X-121920Y967740D01*
X-123444Y966216D01*
X-123444Y957072D01*
X-94488Y979932D02*
X-93200Y980600D01*
X-123444Y957072D02*
X-123400Y956100D01*
X-184404Y794004D02*
X-198120Y794004D01*
X-205740Y801624D01*
X-205740Y835152D01*
X-201168Y839724D01*
X-184404Y839724D01*
X-182950Y794300D02*
X-184404Y794004D01*
X-182950Y839300D02*
X-184404Y839724D01*
X-129540Y874776D02*
X-121920Y874776D01*
X-120396Y876300D01*
X-109728Y876300D01*
X-108204Y877824D01*
X-108204Y888492D02*
X-108204Y894588D01*
X-108204Y888492D02*
X-108204Y877824D01*
X-129540Y874776D02*
X-129900Y874050D01*
X-108204Y894588D02*
X-107600Y896100D01*
X-108204Y888492D02*
X-117348Y888492D01*
X-117450Y888600D01*
X-112776Y903732D02*
X-111252Y903732D01*
X-112776Y903732D02*
X-117348Y903732D01*
X-111252Y903732D02*
X-108204Y900684D01*
X-108204Y896112D01*
X-117450Y903600D02*
X-117348Y903732D01*
X-108204Y896112D02*
X-107600Y896100D01*
X-105156Y893064D02*
X-99060Y893064D01*
X-105156Y893064D02*
X-106680Y894588D01*
X-99060Y893064D02*
X-97750Y893600D01*
X-106680Y894588D02*
X-107600Y896100D01*
X-120396Y854964D02*
X-120396Y850392D01*
X-120396Y854964D02*
X-120396Y862584D01*
X-120450Y863100D01*
X-120396Y850392D02*
X-119950Y850100D01*
X-96012Y865632D02*
X-96012Y873252D01*
X-96012Y865632D02*
X-97536Y864108D01*
X-96012Y873252D02*
X-96050Y874400D01*
X-97536Y864108D02*
X-98800Y863400D01*
X-120396Y864108D02*
X-120396Y867156D01*
X-117348Y870204D01*
X-106680Y870204D01*
X-100584Y876300D01*
X-99060Y874776D01*
X-99060Y864108D01*
X-120396Y864108D02*
X-120450Y863100D01*
X-99060Y864108D02*
X-98800Y863400D01*
X-149352Y798576D02*
X-149352Y789432D01*
X-149352Y798576D02*
X-150000Y799600D01*
X-149352Y789432D02*
X-149400Y788600D01*
X-149352Y771144D02*
X-141732Y771144D01*
X-149352Y771144D02*
X-149352Y777240D01*
X-148800Y777600D01*
X-149352Y771144D02*
X-149352Y766572D01*
X-148800Y765400D01*
X-149352Y778764D02*
X-149352Y787908D01*
X-149400Y788600D01*
X-149352Y778764D02*
X-148800Y777600D01*
X-149352Y854964D02*
X-135636Y854964D01*
X-149352Y854964D02*
X-149352Y861060D01*
X-135636Y854964D02*
X-135500Y855250D01*
X-148900Y861400D02*
X-149352Y861060D01*
X-149352Y830580D02*
X-149352Y821436D01*
X-149200Y820600D01*
X-149352Y830580D02*
X-148800Y831600D01*
X-150876Y842772D02*
X-153924Y842772D01*
X-150876Y842772D02*
X-149352Y844296D01*
X-149352Y850392D01*
X-153924Y842772D02*
X-154850Y841600D01*
X-149352Y850392D02*
X-149000Y851400D01*
X-149352Y844296D02*
X-149352Y842772D01*
X-149352Y832104D01*
X-148800Y831600D01*
X-149352Y851916D02*
X-149352Y854964D01*
X-149352Y851916D02*
X-149000Y851400D01*
X-149352Y804672D02*
X-149352Y800100D01*
X-149352Y804672D02*
X-146304Y804672D01*
X-143256Y807720D01*
X-143256Y813816D01*
X-147828Y818388D01*
X-149352Y818388D01*
X-149352Y819912D01*
X-149352Y800100D02*
X-150000Y799600D01*
X-149352Y819912D02*
X-149200Y820600D01*
X-124968Y854964D02*
X-120396Y854964D01*
X-124968Y854964D02*
X-124968Y848868D01*
X-126492Y847344D01*
X-128016Y847344D01*
X-132588Y842772D01*
X-149352Y842772D01*
X-131064Y854964D02*
X-131064Y873252D01*
X-131064Y854964D02*
X-134112Y854964D01*
X-131064Y873252D02*
X-129900Y874050D01*
X-134112Y854964D02*
X-135500Y855250D01*
X-198120Y794004D02*
X-201168Y794004D01*
X-205740Y789432D01*
X-205740Y751332D01*
X-201168Y751332D01*
X-198120Y754380D01*
X-192024Y754380D01*
X-188976Y751332D01*
X-152400Y751332D01*
X-149352Y754380D01*
X-149352Y765048D01*
X-148800Y765400D01*
X-112776Y903732D02*
X-112776Y926592D01*
X-112776Y932688D01*
X-111252Y774192D02*
X-138684Y774192D01*
X-141732Y771144D01*
X-117348Y926592D02*
X-112776Y926592D01*
X-76200Y723900D02*
X-64008Y723900D01*
X-76200Y723900D02*
X-79248Y726948D01*
X-79248Y733044D01*
X-76200Y736092D01*
X-76200Y749808D01*
X-65532Y760476D01*
X-65532Y772668D01*
X-64008Y723900D02*
X-62900Y723800D01*
X-65532Y772668D02*
X-65400Y773700D01*
X-92964Y979932D02*
X-7620Y979932D01*
X-6800Y980600D01*
X-92964Y979932D02*
X-93200Y980600D01*
D47*
X-56388Y891540D03*
X19812Y853440D03*
X85344Y844296D03*
X150876Y915924D03*
X120396Y941832D03*
X-210312Y678180D03*
X-213360Y915924D03*
X-192024Y915924D03*
X-117348Y926592D03*
D46*
X-233172Y908304D02*
X-233172Y906780D01*
X-234696Y905256D01*
X-239268Y905256D01*
X-240792Y906780D01*
X-211836Y935736D02*
X-211836Y938784D01*
X-214884Y941832D01*
X-233200Y908400D02*
X-233172Y908304D01*
X-214884Y941832D02*
X-215300Y942750D01*
D47*
X-240792Y906780D03*
X-211836Y935736D03*
X-120396Y810768D03*
X-137160Y819912D03*
D46*
X-129540Y819912D02*
X-120396Y810768D01*
X-129540Y819912D02*
X-137160Y819912D01*
X24384Y918972D02*
X25908Y920496D01*
X24384Y918972D02*
X21336Y918972D01*
X13716Y926592D01*
X16764Y929640D01*
X16764Y940308D01*
X9144Y940308D01*
X25908Y920496D02*
X27300Y921650D01*
X9144Y940308D02*
X8600Y940050D01*
X42672Y920496D02*
X42672Y914400D01*
X44196Y914400D01*
X50292Y920496D01*
X50292Y926592D01*
X19812Y929640D02*
X16764Y929640D01*
X42300Y921650D02*
X42672Y920496D01*
D47*
X50292Y926592D03*
X19812Y929640D03*
D46*
X-225552Y920496D02*
X-228600Y920496D01*
X-229200Y920400D01*
X-225552Y920496D02*
X-225200Y920400D01*
X-233172Y912876D02*
X-237744Y912876D01*
X-240792Y915924D01*
X-239268Y917448D01*
X-239268Y920496D01*
X-237744Y922020D01*
X-237744Y925068D01*
X-236220Y926592D01*
X-236220Y929640D01*
X-230124Y935736D01*
X-228600Y935736D01*
X-222504Y941832D01*
X-233172Y912876D02*
X-233200Y912400D01*
X-222504Y941832D02*
X-221900Y942750D01*
D47*
X-59436Y835152D03*
X-121920Y826008D03*
D46*
X-73152Y830580D02*
X-70104Y830580D01*
X-73152Y830580D02*
X-77724Y826008D01*
X-70100Y830000D02*
X-70104Y830580D01*
D47*
X-77724Y826008D03*
D46*
X-128016Y850392D02*
X-134112Y850392D01*
X-128016Y850392D02*
X-128016Y868680D01*
X-124968Y871728D01*
X-120396Y871728D01*
X-118872Y873252D01*
X-108204Y873252D01*
X-97536Y883920D01*
X-83820Y883920D01*
X-77724Y890016D01*
X-77724Y917448D01*
X-74676Y920496D01*
X28956Y952500D02*
X39624Y952500D01*
X42672Y949452D01*
X42672Y937260D01*
X-134112Y850392D02*
X-135500Y849750D01*
X42300Y937150D02*
X42672Y937260D01*
D47*
X-74676Y920496D03*
X28956Y952500D03*
D46*
X3048Y809244D02*
X-4572Y809244D01*
X3048Y809244D02*
X4572Y810768D01*
X22860Y810768D01*
X24384Y809244D01*
X32004Y809244D01*
X45720Y795528D01*
X54864Y795528D01*
X68580Y809244D01*
X68580Y839724D01*
X94488Y865632D01*
X106680Y865632D01*
X108204Y867156D01*
X124968Y867156D01*
X-4572Y809244D02*
X-5100Y810000D01*
X124968Y867156D02*
X125100Y867900D01*
X6096Y794004D02*
X-4572Y804672D01*
X6096Y794004D02*
X24384Y794004D01*
X28956Y789432D01*
X32004Y789432D01*
X97536Y723900D01*
X132588Y723900D01*
X134112Y722376D01*
X134112Y710184D01*
X135636Y708660D01*
X144780Y708660D01*
X-4572Y804672D02*
X-5100Y805000D01*
X144800Y708900D02*
X144780Y708660D01*
X-36576Y868680D02*
X-39624Y865632D01*
X-36576Y868680D02*
X-36576Y870204D01*
X-35052Y871728D01*
X54864Y830580D02*
X57912Y833628D01*
X54864Y830580D02*
X54864Y804672D01*
X62484Y728472D02*
X74676Y716280D01*
X-82296Y720852D02*
X-82296Y734568D01*
X-79248Y737616D01*
X-79248Y754380D01*
X-80772Y755904D01*
X-184404Y813816D02*
X-192024Y813816D01*
X-40100Y865000D02*
X-39624Y865632D01*
X-182950Y814300D02*
X-184404Y813816D01*
D47*
X-35052Y871728D03*
X57912Y833628D03*
X54864Y804672D03*
X62484Y728472D03*
X74676Y716280D03*
X-82296Y720852D03*
X-80772Y755904D03*
X-192024Y813816D03*
X-231648Y969264D03*
X-243840Y925068D03*
X-71628Y842772D03*
X-138684Y836676D03*
X-106680Y908304D03*
D46*
X-195072Y928116D02*
X-201168Y928116D01*
X-205740Y932688D01*
X-205740Y944880D02*
X-205740Y946404D01*
X-205740Y944880D02*
X-205740Y932688D01*
X-205740Y946404D02*
X-208788Y949452D01*
X-214884Y949452D01*
X-195072Y928116D02*
X-194200Y928400D01*
X-215300Y948250D02*
X-214884Y949452D01*
X-230124Y941832D02*
X-230124Y940308D01*
X-240792Y929640D02*
X-243840Y926592D01*
X-240792Y929640D02*
X-230124Y940308D01*
X-243840Y926592D02*
X-243840Y925068D01*
X-230124Y941832D02*
X-228900Y942750D01*
X-207264Y944880D02*
X-205740Y944880D01*
X-251460Y940308D02*
X-268224Y940308D01*
X-251460Y940308D02*
X-240792Y929640D01*
X-268224Y940308D02*
X-269200Y939900D01*
X-77724Y835152D02*
X-70104Y835152D01*
X-70100Y835000D01*
X36576Y937260D02*
X36576Y944880D01*
X36576Y937260D02*
X37300Y937150D01*
X-99060Y903732D02*
X-103632Y908304D01*
X-106680Y908304D01*
X-99060Y903732D02*
X-97750Y903600D01*
D47*
X-207264Y944880D03*
X-77724Y835152D03*
X36576Y944880D03*
X-6096Y903732D03*
X-88392Y896112D03*
X-222504Y928116D03*
X-173736Y879348D03*
X-164592Y870204D03*
X-106680Y835152D03*
X-94488Y847344D03*
D46*
X-243840Y943356D02*
X-251460Y943356D01*
X-243840Y943356D02*
X-237744Y943356D01*
X-251460Y943356D02*
X-252984Y944880D01*
X-252984Y960120D01*
X-256032Y960120D01*
X-237744Y943356D02*
X-236500Y942750D01*
X-256032Y960120D02*
X-257100Y959700D01*
X-173736Y879348D02*
X-164592Y870204D01*
X-243840Y941832D02*
X-243840Y943356D01*
X-89916Y899160D02*
X-88392Y897636D01*
X-89916Y899160D02*
X-97536Y899160D01*
X-97750Y898600D01*
X-195072Y932688D02*
X-196596Y931164D01*
X-199644Y931164D01*
X-202692Y934212D01*
X-202692Y940308D01*
X-201168Y941832D01*
X-201168Y943356D02*
X-201168Y947928D01*
X-201168Y943356D02*
X-201168Y941832D01*
X-201168Y947928D02*
X-205740Y952500D01*
X-213360Y952500D01*
X-214884Y954024D01*
X-216408Y954024D01*
X-220980Y949452D01*
X-195072Y932688D02*
X-194200Y932400D01*
X-220980Y949452D02*
X-221900Y948250D01*
X132588Y917448D02*
X135636Y920496D01*
X132588Y917448D02*
X129540Y917448D01*
X135636Y920496D02*
X135700Y920400D01*
X45720Y931164D02*
X42672Y931164D01*
X45720Y931164D02*
X48768Y934212D01*
X51816Y934212D01*
X54864Y931164D01*
X59436Y931164D01*
X42672Y931164D02*
X42550Y931900D01*
X-196596Y943356D02*
X-201168Y943356D01*
X-88392Y915924D02*
X-88392Y897636D01*
X-88392Y915924D02*
X-83820Y920496D01*
X-88392Y897636D02*
X-88392Y896112D01*
X-150876Y870204D02*
X-164592Y870204D01*
X-150876Y870204D02*
X-147828Y873252D01*
X-138684Y873252D01*
D47*
X-243840Y941832D03*
X129540Y917448D03*
X59436Y931164D03*
X-196596Y943356D03*
X-83820Y920496D03*
X-138684Y873252D03*
X36576Y710184D03*
X19812Y726948D03*
D46*
X-181356Y687324D02*
X-181356Y681228D01*
X-181356Y687324D02*
X-185928Y691896D01*
X-185928Y697992D01*
X-182880Y701040D01*
X-182880Y710184D01*
X-178308Y714756D01*
X-176784Y714756D01*
X-169164Y722376D01*
X-169164Y734568D01*
X-164592Y739140D01*
X-153924Y739140D01*
X-138684Y723900D01*
X-99060Y723900D01*
X-73152Y697992D01*
X-73152Y681228D01*
X-181356Y681228D02*
X-181362Y680015D01*
X-73152Y681228D02*
X-72582Y680481D01*
X36576Y699516D02*
X36576Y710184D01*
X36576Y699516D02*
X38100Y697992D01*
X38100Y681228D01*
X37928Y680015D01*
X19812Y752856D02*
X12192Y752856D01*
X11900Y752250D01*
X-24384Y752856D02*
X-50292Y752856D01*
X-51500Y753250D01*
X-24384Y752856D02*
X-24300Y753250D01*
X-7620Y731520D02*
X10668Y731520D01*
X-7620Y731520D02*
X-24384Y731520D01*
X-25900Y732000D01*
X10668Y731520D02*
X11100Y731200D01*
X-44196Y733044D02*
X-62484Y733044D01*
X-44196Y733044D02*
X-42672Y731520D01*
X-25908Y731520D01*
X-62484Y733044D02*
X-62900Y733800D01*
X-25900Y732000D02*
X-25908Y731520D01*
X-51816Y752856D02*
X-68580Y752856D01*
X-73152Y748284D01*
X-73152Y734568D01*
X-71628Y733044D01*
X-64008Y733044D01*
X-51816Y752856D02*
X-51500Y753250D01*
X-62900Y733800D02*
X-64008Y733044D01*
X19812Y731520D02*
X19812Y726948D01*
X19812Y731520D02*
X12192Y731520D01*
X11100Y731200D01*
X-62484Y708660D02*
X-73152Y697992D01*
D47*
X19812Y752856D03*
X-7620Y731520D03*
X-62484Y708660D03*
X-124968Y841248D03*
X-59436Y867156D03*
X-140208Y911352D03*
X-164592Y896112D03*
X-59436Y826008D03*
X-234696Y676656D03*
X-57912Y742188D03*
X-16764Y789432D03*
X118872Y830580D03*
X28956Y888492D03*
D46*
X-9144Y800100D02*
X-7620Y798576D01*
X-7620Y786384D01*
X-9144Y784860D01*
X-16764Y784860D02*
X-18288Y784860D01*
X-16764Y784860D02*
X-9144Y784860D01*
X-10100Y800000D02*
X-9144Y800100D01*
X-18288Y784860D02*
X-19400Y784550D01*
X-27432Y783336D02*
X-38100Y783336D01*
X-27432Y783336D02*
X-25908Y784860D01*
X-19812Y784860D01*
X-38100Y783336D02*
X-39400Y784050D01*
X-19812Y784860D02*
X-19400Y784550D01*
X-16764Y784860D02*
X-16764Y789432D01*
X-24384Y748284D02*
X-50292Y748284D01*
X-51500Y747750D01*
X-24384Y748284D02*
X-24300Y747750D01*
X-6096Y746760D02*
X-4572Y746760D01*
X10668Y746760D01*
X-6096Y746760D02*
X-7620Y748284D01*
X-22860Y748284D01*
X10668Y746760D02*
X11900Y746750D01*
X-22860Y748284D02*
X-24300Y747750D01*
X-57912Y745236D02*
X-57912Y742188D01*
X-57912Y745236D02*
X-59436Y746760D01*
X-59436Y748284D01*
X-51816Y748284D01*
X-51500Y747750D01*
X-7620Y749808D02*
X-7620Y786384D01*
X-7620Y749808D02*
X-4572Y746760D01*
X-224028Y679704D02*
X-233172Y679704D01*
X-234696Y678180D01*
X-234696Y676656D01*
X-224028Y679704D02*
X-223700Y679750D01*
X128016Y682752D02*
X144780Y682752D01*
X145700Y682700D01*
X25908Y746760D02*
X12192Y746760D01*
X25908Y746760D02*
X35052Y737616D01*
X35052Y725424D01*
X60960Y699516D01*
X94488Y699516D01*
X111252Y682752D01*
X128016Y682752D01*
X12192Y746760D02*
X11900Y746750D01*
X118872Y830580D02*
X118872Y842772D01*
X120396Y844296D01*
X126492Y844296D01*
X126600Y843900D01*
X141732Y918972D02*
X141732Y920496D01*
X141732Y918972D02*
X143256Y917448D01*
X143256Y908304D01*
X135636Y900684D01*
X117348Y900684D01*
X115824Y902208D01*
X115824Y903732D01*
X103632Y915924D01*
X99060Y915924D02*
X89916Y915924D01*
X99060Y915924D02*
X103632Y915924D01*
X89916Y915924D02*
X89916Y922020D01*
X140700Y920400D02*
X141732Y920496D01*
X89916Y922020D02*
X89600Y922800D01*
X143256Y908304D02*
X144780Y906780D01*
X27432Y893064D02*
X19812Y893064D01*
X27432Y893064D02*
X28956Y891540D01*
X28956Y888492D01*
X19812Y893064D02*
X19100Y893650D01*
X-9144Y871728D02*
X-15240Y865632D01*
X-9144Y871728D02*
X-9144Y882396D01*
X-7620Y883920D01*
X-4572Y883920D01*
X-15240Y865632D02*
X-15100Y865000D01*
X-4572Y883920D02*
X-4000Y884050D01*
X10668Y893064D02*
X18288Y893064D01*
X10668Y893064D02*
X10668Y885444D01*
X9144Y883920D01*
X-3048Y883920D01*
X18288Y893064D02*
X19100Y893650D01*
X-3048Y883920D02*
X-4000Y884050D01*
X-70104Y859536D02*
X-77724Y859536D01*
X-77724Y874776D01*
X-74676Y877824D02*
X-71628Y880872D01*
X-74676Y877824D02*
X-77724Y874776D01*
X-71628Y880872D02*
X-62484Y880872D01*
X-57912Y876300D01*
X-57912Y868680D01*
X-59436Y867156D01*
X-70100Y860000D02*
X-70104Y859536D01*
X32004Y935736D02*
X35052Y932688D01*
X35052Y929640D01*
X32004Y935736D02*
X32300Y937150D01*
X99060Y923544D02*
X99060Y915924D01*
X-35052Y800100D02*
X-39624Y795528D01*
X-45720Y795528D01*
X-48768Y792480D01*
X-53340Y792480D01*
X-57912Y797052D01*
X-59436Y795528D01*
X-80772Y795528D01*
X-86868Y801624D01*
X-88392Y801624D01*
X-88392Y800100D01*
X-35100Y800000D02*
X-35052Y800100D01*
X-88300Y799400D02*
X-88392Y800100D01*
X-80772Y812292D02*
X-65532Y812292D01*
X-86868Y806196D02*
X-88392Y804672D01*
X-86868Y806196D02*
X-80772Y812292D01*
X-88392Y804672D02*
X-88392Y801624D01*
X-65532Y812292D02*
X-65100Y812500D01*
X-88392Y801624D02*
X-88300Y799400D01*
X-225552Y908304D02*
X-228600Y908304D01*
X-229200Y908400D01*
X-225552Y908304D02*
X-207264Y908304D01*
X-225200Y908400D02*
X-225552Y908304D01*
X-88392Y862584D02*
X-88392Y854964D01*
X-89916Y853440D01*
X-99060Y853440D01*
X-100584Y854964D01*
X-88392Y862584D02*
X-88800Y863400D01*
X-149352Y941832D02*
X-164592Y941832D01*
X-149352Y941832D02*
X-147828Y940308D01*
X-147828Y918972D01*
X-163068Y903732D01*
X-163068Y897636D01*
X-164592Y896112D01*
X-164592Y941832D02*
X-165100Y942100D01*
X-173736Y975360D02*
X-181356Y975360D01*
X-173736Y975360D02*
X-173736Y972312D01*
X-169164Y967740D01*
X-169164Y964692D01*
X-161544Y957072D01*
X-150876Y957072D01*
X-147828Y954024D01*
X-147828Y940308D01*
X-181356Y975360D02*
X-181900Y975400D01*
X-106680Y806196D02*
X-86868Y806196D01*
X-106680Y806196D02*
X-117348Y816864D01*
X-121920Y816864D01*
X-128016Y822960D01*
X-128016Y838200D01*
X-124968Y841248D01*
X-77724Y880872D02*
X-74676Y877824D01*
D47*
X128016Y682752D03*
X144780Y906780D03*
X35052Y929640D03*
X99060Y923544D03*
X-207264Y908304D03*
X-100584Y854964D03*
X-77724Y880872D03*
D46*
X-4572Y830580D02*
X0Y830580D01*
X1524Y829056D01*
X1524Y824484D01*
X3048Y824484D01*
X-4572Y830580D02*
X-5100Y830000D01*
X3048Y824484D02*
X3600Y824550D01*
D47*
X-207264Y960120D03*
X-195072Y952500D03*
X-54864Y804672D03*
X-59436Y789432D03*
X-117348Y950976D03*
X-131064Y964692D03*
X-147828Y905256D03*
X-124968Y920496D03*
D46*
X-190500Y937260D02*
X-190500Y947928D01*
X-195072Y952500D01*
X-190500Y937260D02*
X-190200Y936400D01*
X-207264Y960120D02*
X-202692Y964692D01*
X-198120Y964692D01*
X-197400Y964500D01*
X-195072Y964692D02*
X-195072Y952500D01*
X-195072Y964692D02*
X-196596Y964692D01*
X-197400Y964500D01*
X-135636Y937260D02*
X-123444Y937260D01*
X-135636Y937260D02*
X-137160Y935736D01*
X-137160Y932688D01*
X-124968Y920496D01*
X-123400Y937050D02*
X-123444Y937260D01*
X-131064Y964692D02*
X-131064Y966216D01*
X-129540Y967740D01*
X-126492Y967740D01*
X-123444Y970788D01*
X-123444Y979932D01*
X-123400Y981100D01*
X-135636Y937260D02*
X-140208Y937260D01*
X-141732Y938784D01*
X-141732Y966216D01*
X-140208Y967740D01*
X-129540Y967740D01*
X-131064Y964692D01*
X-65532Y800100D02*
X-67056Y798576D01*
X-68580Y798576D01*
X-71628Y801624D01*
X-65532Y800100D02*
X-65100Y800000D01*
X-115824Y827532D02*
X-115824Y841248D01*
X-115824Y827532D02*
X-108204Y819912D01*
X86868Y690372D02*
X86868Y678180D01*
X-38100Y758952D02*
X-41148Y758952D01*
X-50292Y768096D01*
X86868Y678180D02*
X87300Y677600D01*
X-59436Y783336D02*
X-64008Y783336D01*
X-59436Y783336D02*
X-59436Y789432D01*
X-64008Y783336D02*
X-65400Y783700D01*
X-56388Y915924D02*
X-62484Y922020D01*
X-56388Y915924D02*
X-53340Y915924D01*
X-51816Y914400D01*
X-32004Y914400D01*
X-30480Y915924D01*
X-22860Y915924D01*
X-16764Y909828D01*
X0Y909828D01*
X1524Y908304D01*
X18288Y908304D01*
X27432Y899160D01*
X51816Y848868D02*
X51816Y815340D01*
X48768Y812292D01*
D47*
X-71628Y801624D03*
X-115824Y841248D03*
X-108204Y819912D03*
X86868Y690372D03*
X-38100Y758952D03*
X-50292Y768096D03*
X-62484Y922020D03*
X27432Y899160D03*
X51816Y848868D03*
X48768Y812292D03*
D46*
X-9144Y851916D02*
X-10668Y851916D01*
X-9144Y851916D02*
X-6096Y854964D01*
X-4572Y854964D01*
X-3048Y856488D01*
X0Y856488D01*
X6096Y862584D01*
X9144Y862584D01*
X-10100Y852500D02*
X-10668Y851916D01*
X9144Y862584D02*
X10600Y862950D01*
X-7620Y842772D02*
X-9144Y842772D01*
X-7620Y842772D02*
X-6096Y844296D01*
X-4572Y844296D01*
X-3048Y842772D01*
X1524Y842772D01*
X3048Y841248D01*
X-9144Y842772D02*
X-10100Y842500D01*
X3048Y841248D02*
X3100Y840450D01*
X4572Y839724D02*
X16764Y839724D01*
X16764Y830580D01*
X4572Y839724D02*
X3100Y840450D01*
X16120Y830100D02*
X16764Y830580D01*
D47*
X76200Y937260D03*
X67056Y861060D03*
D46*
X97536Y941832D02*
X94488Y944880D01*
X94488Y952500D01*
X89916Y957072D01*
X77724Y957072D01*
X77724Y969264D01*
X77400Y970500D01*
X19812Y806196D02*
X9144Y806196D01*
X8100Y806250D01*
X19812Y806196D02*
X20100Y806450D01*
X65532Y859536D02*
X67056Y861060D01*
X65532Y859536D02*
X65532Y856488D01*
X62484Y853440D01*
X56388Y853440D01*
X54864Y854964D01*
X44196Y854964D01*
X36576Y847344D01*
X36576Y830580D01*
X36680Y830100D01*
X30480Y806196D02*
X21336Y806196D01*
X30480Y806196D02*
X35052Y801624D01*
X35052Y800100D01*
X33528Y798576D01*
X38100Y812292D02*
X36576Y813816D01*
X36576Y829056D01*
X21336Y806196D02*
X20100Y806450D01*
X36576Y829056D02*
X36680Y830100D01*
X100584Y938784D02*
X97536Y941832D01*
X100584Y938784D02*
X100584Y931164D01*
X105156Y926592D01*
X105156Y918972D01*
X109728Y914400D01*
X118872Y914400D01*
X120396Y912876D01*
X120396Y908304D01*
D47*
X97536Y941832D03*
X33528Y798576D03*
X38100Y812292D03*
X120396Y908304D03*
X-18288Y882396D03*
X-30480Y882396D03*
D46*
X1524Y850392D02*
X4572Y850392D01*
X1524Y850392D02*
X-4572Y850392D01*
X4572Y850392D02*
X6096Y848868D01*
X10668Y848868D01*
X-4572Y850392D02*
X-5100Y850000D01*
X10668Y848868D02*
X10900Y849150D01*
X-32004Y882396D02*
X-32004Y883920D01*
X-32004Y882396D02*
X-33528Y880872D01*
X-45720Y880872D01*
X-32004Y883920D02*
X-32100Y884950D01*
X-45720Y880872D02*
X-46600Y881300D01*
X-32004Y880872D02*
X-30480Y882396D01*
X-32004Y880872D02*
X-33528Y880872D01*
X-50292Y906780D02*
X-67056Y906780D01*
X-50292Y906780D02*
X-42672Y899160D01*
X-67056Y906780D02*
X-67100Y907400D01*
X1524Y850392D02*
X1524Y848868D01*
D47*
X-42672Y899160D03*
X1524Y848868D03*
D46*
X-1524Y859536D02*
X-4572Y859536D01*
X-1524Y859536D02*
X3048Y864108D01*
X3048Y874776D01*
X9144Y880872D01*
X22860Y880872D01*
X24384Y879348D01*
X50292Y879348D01*
X-4572Y859536D02*
X-5100Y860000D01*
X50292Y879348D02*
X51650Y879450D01*
X57912Y877824D02*
X57912Y864108D01*
X57912Y877824D02*
X56388Y879348D01*
X51816Y879348D01*
X57912Y864108D02*
X57850Y863900D01*
X51816Y879348D02*
X51650Y879450D01*
X-9144Y867156D02*
X-10668Y865632D01*
X-9144Y867156D02*
X-3048Y867156D01*
X28956Y873252D02*
X41148Y873252D01*
X62484Y899160D02*
X60960Y900684D01*
X62484Y899160D02*
X62484Y893064D01*
X65532Y890016D01*
X-10100Y865000D02*
X-10668Y865632D01*
X65532Y890016D02*
X66150Y890950D01*
X73152Y885444D02*
X80772Y885444D01*
X73152Y885444D02*
X68580Y890016D01*
X68580Y891540D01*
X67056Y891540D01*
X80772Y885444D02*
X82100Y885350D01*
X67056Y891540D02*
X66150Y890950D01*
D47*
X-3048Y867156D03*
X28956Y873252D03*
X41148Y873252D03*
X60960Y900684D03*
D46*
X-70104Y854964D02*
X-80772Y854964D01*
X-80772Y871728D01*
X-89916Y880872D01*
X-91440Y879348D01*
X-91440Y874776D01*
X-70100Y855000D02*
X-70104Y854964D01*
X-90950Y874400D02*
X-91440Y874776D01*
X-67056Y851916D02*
X-65532Y851916D01*
X-67056Y851916D02*
X-68580Y850392D01*
X-71628Y850392D01*
X-73152Y851916D01*
X-80772Y851916D01*
X-91440Y841248D01*
X-92964Y841248D01*
X-65532Y851916D02*
X-65100Y852500D01*
X-92964Y841248D02*
X-93500Y842600D01*
X-108204Y842772D02*
X-114300Y848868D01*
X-108204Y842772D02*
X-99060Y842772D01*
X-97536Y841248D01*
X-94488Y841248D01*
X-114300Y848868D02*
X-114850Y850100D01*
X-94488Y841248D02*
X-93500Y842600D01*
X-62484Y859536D02*
X-62484Y861060D01*
X-65532Y864108D01*
X-65532Y876300D01*
X-67056Y876300D01*
X-62600Y860000D02*
X-62484Y859536D01*
X-67100Y875900D02*
X-67056Y876300D01*
X-24384Y865632D02*
X-22860Y867156D01*
X-22860Y877824D01*
X-24384Y879348D01*
X-24384Y885444D01*
X-21336Y888492D01*
X-18288Y888492D01*
X-24384Y865632D02*
X-25100Y865000D01*
X-18100Y887350D02*
X-18288Y888492D01*
X-68580Y885444D02*
X-73152Y885444D01*
X-74676Y886968D01*
X-74676Y897636D01*
X-68580Y897636D01*
X-67100Y885900D02*
X-68580Y885444D01*
X-67100Y897400D02*
X-68580Y897636D01*
X-230124Y947928D02*
X-236220Y947928D01*
X-236500Y948250D01*
X-230124Y947928D02*
X-228900Y948250D01*
D47*
X-153924Y950976D03*
X-53340Y922020D03*
D46*
X-51816Y922020D02*
X-51816Y932688D01*
X-52500Y933350D01*
X-42672Y932688D02*
X-42672Y918972D01*
X-44196Y917448D01*
X-50292Y917448D01*
X-51816Y918972D01*
X-51816Y922020D01*
X-42672Y932688D02*
X-42500Y933350D01*
X-51816Y922020D02*
X-53340Y922020D01*
X-132588Y943356D02*
X-132588Y955548D01*
X-132900Y956100D01*
D47*
X-132588Y943356D03*
D46*
X-57912Y947928D02*
X-57912Y934212D01*
X-57912Y947928D02*
X-56388Y949452D01*
X-48768Y949452D01*
X-47244Y947928D01*
X-47244Y934212D01*
X-57500Y933350D02*
X-57912Y934212D01*
X-47500Y933350D02*
X-47244Y934212D01*
X-114300Y957072D02*
X-114300Y963168D01*
X-112776Y964692D01*
X-71628Y964692D01*
X-56388Y949452D01*
X-113900Y956100D02*
X-114300Y957072D01*
X77724Y911352D02*
X79248Y911352D01*
X77724Y911352D02*
X76200Y912876D01*
X70104Y912876D01*
X68580Y911352D01*
X3048Y911352D01*
X1524Y912876D01*
X-15240Y912876D01*
X-21336Y918972D01*
X-33528Y918972D01*
X-38100Y923544D01*
X-38100Y932688D01*
X79248Y911352D02*
X80100Y911750D01*
X-37500Y933350D02*
X-38100Y932688D01*
X-28956Y911352D02*
X-53340Y911352D01*
X-54864Y912876D01*
X-57912Y912876D01*
X-60960Y915924D01*
X-65532Y915924D01*
X-68580Y918972D01*
X-68580Y925068D01*
X-67056Y926592D01*
X-67056Y932688D01*
X-28956Y911352D02*
X-28700Y911250D01*
X-67056Y932688D02*
X-67500Y933350D01*
X134112Y937260D02*
X140208Y931164D01*
X134112Y937260D02*
X134112Y950976D01*
X131064Y954024D01*
X106680Y954024D01*
X103632Y950976D01*
X103632Y932688D01*
X108204Y928116D01*
X108204Y922020D01*
X114300Y922020D01*
X140208Y931164D02*
X140700Y930400D01*
X114900Y922600D02*
X114300Y922020D01*
X146304Y929640D02*
X153924Y929640D01*
X158496Y925068D01*
X158496Y911352D01*
X147828Y900684D01*
X140208Y900684D01*
X137160Y897636D01*
X105156Y897636D01*
X145700Y930400D02*
X146304Y929640D01*
X105156Y897636D02*
X103800Y897700D01*
D47*
X73152Y906780D03*
X132588Y906780D03*
D46*
X144780Y867156D02*
X149352Y867156D01*
X144780Y867156D02*
X141732Y870204D01*
X141732Y882396D01*
X132588Y891540D01*
X129540Y891540D01*
X149700Y867900D02*
X149352Y867156D01*
D47*
X129540Y891540D03*
X-149352Y810768D03*
X-173736Y810768D03*
X-195072Y748284D03*
D46*
X-201168Y742188D01*
X-207264Y742188D01*
X-213360Y736092D01*
X-231648Y736092D01*
X-233172Y734568D01*
X-233172Y717804D01*
X-233340Y717700D01*
X-217932Y656844D02*
X-205740Y656844D01*
X-204216Y658368D01*
X-204216Y681228D01*
X-207264Y684276D01*
X-214884Y684276D01*
X-227076Y696468D01*
X-231648Y696468D01*
X-233172Y697992D01*
X-233172Y716280D01*
X-217932Y656844D02*
X-218400Y656600D01*
X-233172Y716280D02*
X-233340Y717700D01*
X-198120Y798576D02*
X-184404Y798576D01*
X-198120Y798576D02*
X-202692Y803148D01*
X-201168Y804672D01*
X-184404Y804672D01*
X-182950Y799300D02*
X-184404Y798576D01*
X-182950Y804300D02*
X-184404Y804672D01*
X-167640Y833628D02*
X-160020Y841248D01*
X-167640Y833628D02*
X-167640Y829056D01*
X-170688Y826008D01*
X-170688Y813816D01*
X-173736Y810768D01*
X-160020Y841248D02*
X-159950Y841600D01*
X80772Y944880D02*
X80772Y950976D01*
X73152Y950976D01*
X70104Y947928D01*
X109728Y947928D02*
X112776Y950976D01*
X124968Y950976D01*
X128016Y947928D01*
X-32004Y792480D02*
X-44196Y792480D01*
X-47244Y789432D01*
X-47244Y781812D01*
X-51816Y777240D01*
X-59436Y777240D01*
X-60960Y778764D01*
X-70104Y778764D01*
X-73152Y781812D01*
X-74676Y781812D01*
X-77724Y771144D02*
X-74676Y768096D01*
X-77724Y771144D02*
X-100584Y771144D01*
X-103632Y768096D01*
X80100Y943800D02*
X80772Y944880D01*
X-173736Y804672D02*
X-182880Y804672D01*
X-173736Y804672D02*
X-170688Y807720D01*
X-170688Y813816D01*
X-182880Y804672D02*
X-182950Y804300D01*
D47*
X70104Y947928D03*
X109728Y947928D03*
X128016Y947928D03*
X-32004Y792480D03*
X-74676Y781812D03*
X-74676Y768096D03*
X-103632Y768096D03*
D46*
X-160020Y862584D02*
X-164592Y862584D01*
X-166116Y864108D01*
X-182880Y864108D01*
X-160020Y862584D02*
X-158900Y861400D01*
X-182880Y864108D02*
X-182950Y864300D01*
X-166116Y851916D02*
X-160020Y851916D01*
X-166116Y851916D02*
X-167640Y853440D01*
X-167640Y858012D01*
X-169164Y859536D01*
X-182880Y859536D01*
X-160020Y851916D02*
X-159000Y851400D01*
X-182950Y859300D02*
X-182880Y859536D01*
X-161544Y830580D02*
X-160020Y830580D01*
X-161544Y830580D02*
X-167640Y824484D01*
X-167640Y806196D01*
X-172212Y801624D01*
X-172212Y800100D01*
X-175260Y797052D01*
X-175260Y790956D01*
X-176784Y789432D01*
X-182880Y789432D01*
X-160020Y830580D02*
X-158800Y831600D01*
X-182880Y789432D02*
X-182950Y789300D01*
D47*
X-140208Y786384D03*
X-192024Y786384D03*
D46*
X-190500Y784860D01*
X-184404Y784860D01*
X-182950Y784300D01*
X-164592Y815340D02*
X-160020Y819912D01*
X-164592Y815340D02*
X-164592Y804672D01*
X-169164Y800100D01*
X-169164Y798576D01*
X-172212Y795528D01*
X-172212Y789432D01*
X-176784Y784860D01*
X-182880Y784860D01*
X-160020Y819912D02*
X-159200Y820600D01*
X-182880Y784860D02*
X-182950Y784300D01*
D47*
X-144780Y749808D03*
X-173736Y778764D03*
D46*
X-144780Y749808D02*
X-144780Y739140D01*
X-143256Y737616D01*
X-132588Y737616D01*
X-131300Y737200D01*
X-173736Y775716D02*
X-173736Y778764D01*
X-173736Y775716D02*
X-175260Y774192D01*
X-182880Y774192D01*
X-182950Y774300D01*
X-164592Y798576D02*
X-160020Y798576D01*
X-164592Y798576D02*
X-169164Y794004D01*
X-169164Y787908D01*
X-173736Y783336D01*
X-173736Y778764D01*
X-160020Y798576D02*
X-160000Y799600D01*
X-160020Y787908D02*
X-164592Y787908D01*
X-167640Y784860D01*
X-167640Y775716D01*
X-173736Y769620D01*
X-182880Y769620D01*
X-160020Y787908D02*
X-159400Y788600D01*
X-182880Y769620D02*
X-182950Y769300D01*
D47*
X-120396Y699516D03*
X-167640Y766572D03*
D46*
X-120396Y699516D02*
X-115824Y699516D01*
X-114300Y701040D01*
X-97536Y701040D01*
X-96900Y700700D01*
X-167640Y766572D02*
X-169164Y765048D01*
X-173736Y765048D02*
X-182880Y765048D01*
X-173736Y765048D02*
X-169164Y765048D01*
X-182880Y765048D02*
X-182950Y764300D01*
X-158496Y774192D02*
X-158496Y777240D01*
X-158496Y774192D02*
X-164592Y774192D01*
X-173736Y765048D01*
X-158800Y777600D02*
X-158496Y777240D01*
X-120396Y708660D02*
X-120396Y699516D01*
X-120396Y708660D02*
X-132588Y720852D01*
X-140208Y720852D01*
X-152400Y733044D01*
X-156972Y733044D01*
D47*
X-156972Y733044D03*
D46*
X-158496Y754380D02*
X-158496Y765048D01*
X-158496Y754380D02*
X-161544Y754380D01*
X-166116Y758952D01*
X-182880Y758952D01*
X-158800Y765400D02*
X-158496Y765048D01*
X-182950Y759300D02*
X-182880Y758952D01*
X-185928Y717804D02*
X-178308Y717804D01*
X-172212Y723900D01*
X-172212Y736092D01*
X-166116Y742188D01*
X-152400Y742188D01*
X-137160Y726948D01*
X-120396Y726948D01*
X-115824Y731520D01*
X-115824Y736092D01*
X-114300Y737616D01*
X-97536Y737616D01*
X-186000Y718500D02*
X-185928Y717804D01*
X-97536Y737616D02*
X-96300Y737200D01*
X-179832Y708660D02*
X-179832Y696468D01*
X-179832Y708660D02*
X-176784Y711708D01*
X-160020Y711708D01*
X-149352Y701040D01*
X-132588Y701040D01*
X-179700Y695400D02*
X-179832Y696468D01*
X-132588Y701040D02*
X-131900Y700700D01*
X-111252Y662940D02*
X-97536Y662940D01*
X-111252Y662940D02*
X-126492Y678180D01*
X-126492Y701040D01*
X-131064Y701040D01*
X-97536Y662940D02*
X-96500Y663700D01*
X-131064Y701040D02*
X-131900Y700700D01*
D47*
X-178308Y740664D03*
X-178308Y726948D03*
D46*
X-178308Y740664D01*
X-198120Y697992D02*
X-202692Y697992D01*
X-205740Y701040D01*
X-210312Y701040D01*
X-217932Y708660D01*
X-217932Y723900D01*
X-216408Y725424D01*
X-207264Y725424D01*
X-198120Y697992D02*
X-196900Y698250D01*
X-207000Y725000D02*
X-207264Y725424D01*
X-193548Y726948D02*
X-178308Y726948D01*
X-193548Y726948D02*
X-195072Y725424D01*
X-205740Y725424D01*
X-207000Y725000D01*
X-199644Y874776D02*
X-184404Y874776D01*
X-199644Y874776D02*
X-205740Y868680D01*
X-205740Y853440D01*
X-198120Y845820D01*
X-184404Y874776D02*
X-182950Y874300D01*
D47*
X-198120Y845820D03*
X-198120Y858012D03*
X-201168Y736092D03*
D46*
X-198120Y858012D02*
X-202692Y862584D01*
X-202692Y867156D01*
X-201168Y868680D01*
X-184404Y868680D01*
X-182950Y869300D01*
X59436Y940308D02*
X59436Y947928D01*
X92964Y830580D02*
X92964Y826008D01*
X79248Y812292D01*
X74676Y812292D01*
X58700Y947750D02*
X59436Y947928D01*
X-195072Y711708D02*
X-205740Y711708D01*
X-207000Y712000D01*
D47*
X59436Y940308D03*
X92964Y830580D03*
X74676Y812292D03*
X-195072Y711708D03*
X-96012Y780288D03*
X-192024Y685800D03*
D46*
X-208788Y687324D02*
X-213360Y691896D01*
X-208788Y687324D02*
X-205740Y687324D01*
X-204216Y685800D01*
X-192024Y685800D01*
X-213360Y691896D02*
X-214100Y692750D01*
X-188976Y687324D02*
X-188976Y704088D01*
X-188976Y687324D02*
X-190500Y685800D01*
X-192024Y685800D01*
X-262128Y688848D02*
X-262128Y679704D01*
X-262128Y688848D02*
X-254508Y696468D01*
X-262128Y679704D02*
X-262520Y678300D01*
D47*
X-188976Y704088D03*
X-254508Y696468D03*
M02*
