G04 EAGLE Gerber RS-274X export*
G75*
%MOMM*%
%FSLAX34Y34*%
%LPD*%
%IN*%
%IPPOS*%
%AMOC8*
5,1,8,0,0,1.08239X$1,22.5*%
G01*
G04 Define Apertures*
%ADD10C,0.254000*%
D10*
X-288500Y711900D02*
X-288234Y705799D01*
X-287437Y699745D01*
X-286115Y693783D01*
X-284278Y687959D01*
X-281942Y682317D01*
X-279122Y676900D01*
X-275841Y671750D01*
X-272123Y666905D01*
X-267997Y662403D01*
X-263495Y658277D01*
X-258650Y654559D01*
X-253500Y651278D01*
X-248083Y648458D01*
X-242441Y646122D01*
X-236617Y644285D01*
X-230655Y642963D01*
X-224601Y642166D01*
X-218500Y641900D01*
X-192500Y641900D01*
X-192500Y659900D01*
X-144500Y659900D01*
X-144500Y641900D01*
X-82500Y641900D01*
X-82500Y659900D01*
X-34500Y659900D01*
X-34500Y641900D01*
X27500Y641900D01*
X27500Y659900D01*
X75500Y659900D01*
X75500Y641900D01*
X101500Y641900D01*
X107601Y642166D01*
X113655Y642963D01*
X119617Y644285D01*
X125441Y646122D01*
X131083Y648458D01*
X136500Y651278D01*
X141650Y654559D01*
X146495Y658277D01*
X150997Y662403D01*
X155123Y666905D01*
X158841Y671750D01*
X162122Y676900D01*
X164942Y682317D01*
X167278Y687959D01*
X169115Y693783D01*
X170437Y699745D01*
X171234Y705799D01*
X171500Y711900D01*
X171500Y921900D01*
X171234Y928001D01*
X170437Y934055D01*
X169115Y940017D01*
X167278Y945841D01*
X164942Y951483D01*
X162122Y956900D01*
X158841Y962050D01*
X155123Y966895D01*
X150997Y971397D01*
X146495Y975523D01*
X141650Y979241D01*
X136500Y982522D01*
X131083Y985342D01*
X125441Y987678D01*
X119617Y989515D01*
X113655Y990837D01*
X107601Y991634D01*
X101500Y991900D01*
X-218500Y991900D01*
X-224601Y991634D01*
X-230655Y990837D01*
X-236617Y989515D01*
X-242441Y987678D01*
X-248083Y985342D01*
X-253500Y982522D01*
X-258650Y979241D01*
X-263495Y975523D01*
X-267997Y971397D01*
X-272123Y966895D01*
X-275841Y962050D01*
X-279122Y956900D01*
X-281942Y951483D01*
X-284278Y945841D01*
X-286115Y940017D01*
X-287437Y934055D01*
X-288234Y928001D01*
X-288500Y921900D01*
X-288500Y885900D01*
X-218500Y885900D01*
X-218500Y747900D01*
X-288500Y747900D01*
X-288500Y711900D01*
X-96450Y933600D02*
X-96438Y933317D01*
X-96401Y933036D01*
X-96339Y932759D01*
X-96254Y932488D01*
X-96146Y932227D01*
X-96015Y931975D01*
X-95862Y931736D01*
X-95690Y931511D01*
X-95498Y931302D01*
X-95289Y931110D01*
X-95064Y930938D01*
X-94825Y930785D01*
X-94574Y930655D01*
X-94312Y930546D01*
X-94041Y930461D01*
X-93764Y930399D01*
X-93483Y930362D01*
X-93200Y930350D01*
X-92917Y930362D01*
X-92636Y930399D01*
X-92359Y930461D01*
X-92088Y930546D01*
X-91827Y930655D01*
X-91575Y930785D01*
X-91336Y930938D01*
X-91111Y931110D01*
X-90902Y931302D01*
X-90710Y931511D01*
X-90538Y931736D01*
X-90385Y931975D01*
X-90255Y932227D01*
X-90146Y932488D01*
X-90061Y932759D01*
X-89999Y933036D01*
X-89962Y933317D01*
X-89950Y933600D01*
X-89950Y944600D01*
X-89962Y944883D01*
X-89999Y945164D01*
X-90061Y945441D01*
X-90146Y945712D01*
X-90255Y945974D01*
X-90385Y946225D01*
X-90538Y946464D01*
X-90710Y946689D01*
X-90902Y946898D01*
X-91111Y947090D01*
X-91336Y947262D01*
X-91575Y947415D01*
X-91827Y947546D01*
X-92088Y947654D01*
X-92359Y947739D01*
X-92636Y947801D01*
X-92917Y947838D01*
X-93200Y947850D01*
X-93483Y947838D01*
X-93764Y947801D01*
X-94041Y947739D01*
X-94312Y947654D01*
X-94574Y947546D01*
X-94825Y947415D01*
X-95064Y947262D01*
X-95289Y947090D01*
X-95498Y946898D01*
X-95690Y946689D01*
X-95862Y946464D01*
X-96015Y946225D01*
X-96146Y945974D01*
X-96254Y945712D01*
X-96339Y945441D01*
X-96401Y945164D01*
X-96438Y944883D01*
X-96450Y944600D01*
X-96450Y933600D01*
X-10050Y933600D02*
X-10038Y933317D01*
X-10001Y933036D01*
X-9939Y932759D01*
X-9854Y932488D01*
X-9746Y932227D01*
X-9615Y931975D01*
X-9462Y931736D01*
X-9290Y931511D01*
X-9098Y931302D01*
X-8889Y931110D01*
X-8664Y930938D01*
X-8425Y930785D01*
X-8174Y930655D01*
X-7912Y930546D01*
X-7641Y930461D01*
X-7364Y930399D01*
X-7083Y930362D01*
X-6800Y930350D01*
X-6517Y930362D01*
X-6236Y930399D01*
X-5959Y930461D01*
X-5688Y930546D01*
X-5427Y930655D01*
X-5175Y930785D01*
X-4936Y930938D01*
X-4711Y931110D01*
X-4502Y931302D01*
X-4310Y931511D01*
X-4138Y931736D01*
X-3985Y931975D01*
X-3855Y932227D01*
X-3746Y932488D01*
X-3661Y932759D01*
X-3599Y933036D01*
X-3562Y933317D01*
X-3550Y933600D01*
X-3550Y944600D01*
X-3562Y944883D01*
X-3599Y945164D01*
X-3661Y945441D01*
X-3746Y945712D01*
X-3855Y945974D01*
X-3985Y946225D01*
X-4138Y946464D01*
X-4310Y946689D01*
X-4502Y946898D01*
X-4711Y947090D01*
X-4936Y947262D01*
X-5175Y947415D01*
X-5427Y947546D01*
X-5688Y947654D01*
X-5959Y947739D01*
X-6236Y947801D01*
X-6517Y947838D01*
X-6800Y947850D01*
X-7083Y947838D01*
X-7364Y947801D01*
X-7641Y947739D01*
X-7912Y947654D01*
X-8174Y947546D01*
X-8425Y947415D01*
X-8664Y947262D01*
X-8889Y947090D01*
X-9098Y946898D01*
X-9290Y946689D01*
X-9462Y946464D01*
X-9615Y946225D01*
X-9746Y945974D01*
X-9854Y945712D01*
X-9939Y945441D01*
X-10001Y945164D01*
X-10038Y944883D01*
X-10050Y944600D01*
X-10050Y933600D01*
X-96450Y976600D02*
X-96438Y976317D01*
X-96401Y976036D01*
X-96339Y975759D01*
X-96254Y975488D01*
X-96146Y975227D01*
X-96015Y974975D01*
X-95862Y974736D01*
X-95690Y974511D01*
X-95498Y974302D01*
X-95289Y974110D01*
X-95064Y973938D01*
X-94825Y973785D01*
X-94574Y973655D01*
X-94312Y973546D01*
X-94041Y973461D01*
X-93764Y973399D01*
X-93483Y973362D01*
X-93200Y973350D01*
X-92917Y973362D01*
X-92636Y973399D01*
X-92359Y973461D01*
X-92088Y973546D01*
X-91827Y973655D01*
X-91575Y973785D01*
X-91336Y973938D01*
X-91111Y974110D01*
X-90902Y974302D01*
X-90710Y974511D01*
X-90538Y974736D01*
X-90385Y974975D01*
X-90255Y975227D01*
X-90146Y975488D01*
X-90061Y975759D01*
X-89999Y976036D01*
X-89962Y976317D01*
X-89950Y976600D01*
X-89950Y984600D01*
X-89962Y984883D01*
X-89999Y985164D01*
X-90061Y985441D01*
X-90146Y985712D01*
X-90255Y985974D01*
X-90385Y986225D01*
X-90538Y986464D01*
X-90710Y986689D01*
X-90902Y986898D01*
X-91111Y987090D01*
X-91336Y987262D01*
X-91575Y987415D01*
X-91827Y987546D01*
X-92088Y987654D01*
X-92359Y987739D01*
X-92636Y987801D01*
X-92917Y987838D01*
X-93200Y987850D01*
X-93483Y987838D01*
X-93764Y987801D01*
X-94041Y987739D01*
X-94312Y987654D01*
X-94574Y987546D01*
X-94825Y987415D01*
X-95064Y987262D01*
X-95289Y987090D01*
X-95498Y986898D01*
X-95690Y986689D01*
X-95862Y986464D01*
X-96015Y986225D01*
X-96146Y985974D01*
X-96254Y985712D01*
X-96339Y985441D01*
X-96401Y985164D01*
X-96438Y984883D01*
X-96450Y984600D01*
X-96450Y976600D01*
X-10050Y976600D02*
X-10038Y976317D01*
X-10001Y976036D01*
X-9939Y975759D01*
X-9854Y975488D01*
X-9746Y975227D01*
X-9615Y974975D01*
X-9462Y974736D01*
X-9290Y974511D01*
X-9098Y974302D01*
X-8889Y974110D01*
X-8664Y973938D01*
X-8425Y973785D01*
X-8174Y973655D01*
X-7912Y973546D01*
X-7641Y973461D01*
X-7364Y973399D01*
X-7083Y973362D01*
X-6800Y973350D01*
X-6517Y973362D01*
X-6236Y973399D01*
X-5959Y973461D01*
X-5688Y973546D01*
X-5427Y973655D01*
X-5175Y973785D01*
X-4936Y973938D01*
X-4711Y974110D01*
X-4502Y974302D01*
X-4310Y974511D01*
X-4138Y974736D01*
X-3985Y974975D01*
X-3855Y975227D01*
X-3746Y975488D01*
X-3661Y975759D01*
X-3599Y976036D01*
X-3562Y976317D01*
X-3550Y976600D01*
X-3550Y984600D01*
X-3562Y984883D01*
X-3599Y985164D01*
X-3661Y985441D01*
X-3746Y985712D01*
X-3855Y985974D01*
X-3985Y986225D01*
X-4138Y986464D01*
X-4310Y986689D01*
X-4502Y986898D01*
X-4711Y987090D01*
X-4936Y987262D01*
X-5175Y987415D01*
X-5427Y987546D01*
X-5688Y987654D01*
X-5959Y987739D01*
X-6236Y987801D01*
X-6517Y987838D01*
X-6800Y987850D01*
X-7083Y987838D01*
X-7364Y987801D01*
X-7641Y987739D01*
X-7912Y987654D01*
X-8174Y987546D01*
X-8425Y987415D01*
X-8664Y987262D01*
X-8889Y987090D01*
X-9098Y986898D01*
X-9290Y986689D01*
X-9462Y986464D01*
X-9615Y986225D01*
X-9746Y985974D01*
X-9854Y985712D01*
X-9939Y985441D01*
X-10001Y985164D01*
X-10038Y984883D01*
X-10050Y984600D01*
X-10050Y976600D01*
M02*
