M48
;GenerationSoftware,Autodesk,EAGLE,9.7.0*%
;CreationDate,2026-04-22T16:03:07Z*%
FMAT,2
ICI,OFF
METRIC,TZ,000.000
T7C0.150
T6C0.300
T5C0.559
T4C0.650
T3C0.700
T2C1.067
T1C2.451
%
G90
M71
T1
X14760Y75207
X9680Y75207
X14760Y78382
X9680Y78382
T2
X12220Y75207
X13236Y80287
X11204Y80287
T3
X-4310Y93510
X-10090Y93510
T4
X-11520Y93010
X-2880Y97160
X-11520Y97160
X-2880Y93010
T5
X3345Y66649
X-14888Y66649
X-18584Y66649
X-4010Y66696
X-7706Y66696
X7041Y66649
T6
X-2260Y79050
X-3460Y79050
X-3460Y80250
X-2260Y80250
X-1060Y80250
X140Y80250
X140Y79050
X-1060Y79050
X-3460Y77850
X-2260Y77850
X-1060Y77850
X140Y77850
X140Y76650
X-1060Y76650
X-2260Y76650
X-3460Y76650
T7
X-10605Y75819
X-27749Y73152
X-19939Y70231
X-15240Y75311
X-12600Y76236
X-27813Y73597
X-20955Y70231
X7810Y87884
X-9271Y71120
X-9081Y73724
X-14160Y71120
X-3175Y75502
X7175Y78931
X-1651Y97155
X5969Y75129
X-3492Y74105
X-3492Y71374
X-2984Y70866
X-14414Y69279
X-7683Y69279
X-8128Y73660
X-9398Y74930
X-17717Y83458
X-2096Y74525
X1207Y79058
X-8509Y71501
X1143Y76010
X-17907Y91821
X-22352Y70930
X-23558Y69723
X-17653Y70104
X-4699Y76200
X-14440Y80404
X318Y82042
X-5334Y81217
X12192Y76772
X11366Y73851
X4636Y76772
X4382Y90233
X-1397Y74779
X-6413Y90233
X-5080Y91567
X-5524Y74486
X-7810Y74486
X-7810Y76073
X-20701Y74613
X-8700Y91059
X1143Y83630
X1143Y84392
X-3810Y74613
X-6286Y73406
X-6096Y75248
X-1334Y95313
X5000Y91000
X4600Y92200
X-16764Y82868
X-16790Y81463
X-20638Y90551
X-24130Y94043
X-17590Y77534
X-18923Y94996
X-15418Y79426
X-14033Y94361
X-16256Y76200
X-21590Y74232
X-4382Y77026
X-26352Y73533
X-25463Y73343
X-22860Y70930
X-25844Y70803
X-22352Y67374
X-24447Y67945
X-13525Y67374
X-13144Y72898
X-12636Y71882
X-11303Y73279
X-10097Y73279
X-17590Y73660
X-14795Y77280
X2350Y78677
X-9300Y77100
X-8200Y76700
X-8128Y70104
X9271Y70358
X9081Y72581
X2477Y75742
X12509Y78423
X14224Y76708
X-1660Y75700
X4100Y75600
X4300Y74600
X6100Y74700
X7700Y79000
X9200Y80200
X-2159Y82423
X-6985Y87249
X-15621Y87693
X-15748Y82868
X-7747Y78677
M30