G04 EAGLE Gerber RS-274X export*
G75*
%MOMM*%
%FSLAX34Y34*%
%LPD*%
%INTop Copper*%
%IPPOS*%
%AMOC8*
5,1,8,0,0,1.08239X$1,22.5*%
G01*
G04 Define Apertures*
%ADD10R,1.150000X1.800000*%
%ADD11R,0.280000X0.430000*%
%ADD12R,0.600000X0.500000*%
%ADD13R,0.430000X0.280000*%
%ADD14R,0.500000X0.600000*%
%ADD15R,0.700000X0.600000*%
%ADD16R,1.200000X0.600000*%
%ADD17R,1.150000X0.800000*%
%ADD18C,0.200000*%
%ADD19R,0.300000X0.350000*%
%ADD20R,0.350000X0.300000*%
%ADD21C,0.250000*%
%ADD22C,0.216000*%
%ADD23C,0.783000*%
%ADD24R,0.300000X1.150000*%
%ADD25R,0.600000X1.150000*%
%ADD26C,1.170000*%
%ADD27R,0.700000X0.300000*%
%ADD28R,1.000000X0.300000*%
%ADD29R,2.200000X1.200000*%
%ADD30R,0.900000X5.300000*%
%ADD31R,0.900000X0.800000*%
%ADD32R,1.050000X0.500000*%
%ADD33R,0.350000X0.250000*%
%ADD34R,0.250000X0.350000*%
%ADD35R,1.168400X1.600200*%
%ADD36R,0.711200X1.092200*%
%ADD37R,1.066800X1.066800*%
%ADD38R,1.397000X1.092200*%
%ADD39C,2.000000*%
%ADD40R,4.850000X4.850000*%
%ADD41C,0.808000*%
%ADD42C,0.067500*%
%ADD43R,0.900000X1.300000*%
%ADD44R,0.950000X0.850000*%
%ADD45R,1.800000X1.000000*%
%ADD46C,0.127000*%
%ADD47C,0.302400*%
G36*
X-269460Y897630D02*
X-269460Y950970D01*
X-249140Y950970D01*
X-249140Y940892D01*
X-251744Y939192D01*
X-251744Y939192D01*
X-251744Y939192D01*
X-254462Y936962D01*
X-256689Y934248D01*
X-256689Y934248D01*
X-256689Y934248D01*
X-258343Y931152D01*
X-258343Y931152D01*
X-259359Y927802D01*
X-259173Y924300D01*
X-259359Y920798D01*
X-258343Y917448D01*
X-258343Y917448D01*
X-256689Y914352D01*
X-256689Y914352D01*
X-256689Y914352D01*
X-254462Y911638D01*
X-251744Y909408D01*
X-251744Y909408D01*
X-249140Y907708D01*
X-249140Y897630D01*
X-269460Y897630D01*
G37*
G36*
X-269460Y897630D02*
X-269460Y950970D01*
X-249140Y950970D01*
X-249140Y940892D01*
X-251744Y939192D01*
X-251744Y939192D01*
X-251744Y939192D01*
X-254462Y936962D01*
X-256689Y934248D01*
X-256689Y934248D01*
X-256689Y934248D01*
X-258343Y931152D01*
X-258343Y931152D01*
X-259359Y927802D01*
X-259173Y924300D01*
X-259359Y920798D01*
X-258343Y917448D01*
X-258343Y917448D01*
X-256689Y914352D01*
X-256689Y914352D01*
X-256689Y914352D01*
X-254462Y911638D01*
X-251744Y909408D01*
X-251744Y909408D01*
X-249140Y907708D01*
X-249140Y897630D01*
X-269460Y897630D01*
G37*
G36*
X-234460Y940892D02*
X-234460Y950970D01*
X-214140Y950970D01*
X-214140Y897630D01*
X-234460Y897630D01*
X-234460Y907708D01*
X-231856Y909408D01*
X-231856Y909408D01*
X-229138Y911638D01*
X-226911Y914352D01*
X-226911Y914352D01*
X-226911Y914352D01*
X-225257Y917448D01*
X-225257Y917448D01*
X-224241Y920798D01*
X-224427Y924300D01*
X-224241Y927802D01*
X-225257Y931152D01*
X-225257Y931152D01*
X-226911Y934248D01*
X-226911Y934248D01*
X-226911Y934248D01*
X-229138Y936962D01*
X-231856Y939192D01*
X-231856Y939192D01*
X-234460Y940892D01*
G37*
G36*
X-234460Y940892D02*
X-234460Y950970D01*
X-214140Y950970D01*
X-214140Y897630D01*
X-234460Y897630D01*
X-234460Y907708D01*
X-231856Y909408D01*
X-231856Y909408D01*
X-229138Y911638D01*
X-226911Y914352D01*
X-226911Y914352D01*
X-226911Y914352D01*
X-225257Y917448D01*
X-225257Y917448D01*
X-224241Y920798D01*
X-224427Y924300D01*
X-224241Y927802D01*
X-225257Y931152D01*
X-225257Y931152D01*
X-226911Y934248D01*
X-226911Y934248D01*
X-226911Y934248D01*
X-229138Y936962D01*
X-231856Y939192D01*
X-231856Y939192D01*
X-234460Y940892D01*
G37*
G36*
X-116379Y940767D02*
X-115200Y940900D01*
X-114021Y940767D01*
X-112900Y940375D01*
X-111895Y939744D01*
X-111056Y938905D01*
X-110425Y937900D01*
X-110033Y936779D01*
X-109900Y935603D01*
X-109900Y924597D01*
X-110033Y923421D01*
X-110425Y922300D01*
X-111056Y921295D01*
X-111895Y920456D01*
X-112900Y919825D01*
X-114021Y919433D01*
X-115200Y919300D01*
X-116379Y919433D01*
X-117500Y919825D01*
X-118505Y920456D01*
X-119344Y921295D01*
X-119975Y922300D01*
X-120367Y923421D01*
X-120500Y924597D01*
X-120500Y935603D01*
X-120367Y936779D01*
X-119975Y937900D01*
X-119344Y938905D01*
X-118505Y939744D01*
X-117500Y940375D01*
X-116379Y940767D01*
G37*
G36*
X-116379Y940767D02*
X-115200Y940900D01*
X-114021Y940767D01*
X-112900Y940375D01*
X-111895Y939744D01*
X-111056Y938905D01*
X-110425Y937900D01*
X-110033Y936779D01*
X-109900Y935603D01*
X-109900Y924597D01*
X-110033Y923421D01*
X-110425Y922300D01*
X-111056Y921295D01*
X-111895Y920456D01*
X-112900Y919825D01*
X-114021Y919433D01*
X-115200Y919300D01*
X-116379Y919433D01*
X-117500Y919825D01*
X-118505Y920456D01*
X-119344Y921295D01*
X-119975Y922300D01*
X-120367Y923421D01*
X-120500Y924597D01*
X-120500Y935603D01*
X-120367Y936779D01*
X-119975Y937900D01*
X-119344Y938905D01*
X-118505Y939744D01*
X-117500Y940375D01*
X-116379Y940767D01*
G37*
G36*
X-29979Y940767D02*
X-28800Y940900D01*
X-27621Y940767D01*
X-26500Y940375D01*
X-25495Y939744D01*
X-24656Y938905D01*
X-24025Y937900D01*
X-23633Y936779D01*
X-23500Y935603D01*
X-23500Y924597D01*
X-23633Y923421D01*
X-24025Y922300D01*
X-24656Y921295D01*
X-25495Y920456D01*
X-26500Y919825D01*
X-27621Y919433D01*
X-28800Y919300D01*
X-29979Y919433D01*
X-31100Y919825D01*
X-32105Y920456D01*
X-32944Y921295D01*
X-33575Y922300D01*
X-33967Y923421D01*
X-34100Y924597D01*
X-34100Y935603D01*
X-33967Y936779D01*
X-33575Y937900D01*
X-32944Y938905D01*
X-32105Y939744D01*
X-31100Y940375D01*
X-29979Y940767D01*
G37*
G36*
X-29979Y940767D02*
X-28800Y940900D01*
X-27621Y940767D01*
X-26500Y940375D01*
X-25495Y939744D01*
X-24656Y938905D01*
X-24025Y937900D01*
X-23633Y936779D01*
X-23500Y935603D01*
X-23500Y924597D01*
X-23633Y923421D01*
X-24025Y922300D01*
X-24656Y921295D01*
X-25495Y920456D01*
X-26500Y919825D01*
X-27621Y919433D01*
X-28800Y919300D01*
X-29979Y919433D01*
X-31100Y919825D01*
X-32105Y920456D01*
X-32944Y921295D01*
X-33575Y922300D01*
X-33967Y923421D01*
X-34100Y924597D01*
X-34100Y935603D01*
X-33967Y936779D01*
X-33575Y937900D01*
X-32944Y938905D01*
X-32105Y939744D01*
X-31100Y940375D01*
X-29979Y940767D01*
G37*
G36*
X-116379Y980767D02*
X-115200Y980900D01*
X-114021Y980767D01*
X-112900Y980375D01*
X-111895Y979744D01*
X-111056Y978905D01*
X-110425Y977900D01*
X-110033Y976779D01*
X-109900Y975603D01*
X-109900Y967597D01*
X-110033Y966421D01*
X-110425Y965300D01*
X-111056Y964295D01*
X-111895Y963456D01*
X-112900Y962825D01*
X-114021Y962433D01*
X-115200Y962300D01*
X-116379Y962433D01*
X-117500Y962825D01*
X-118505Y963456D01*
X-119344Y964295D01*
X-119975Y965300D01*
X-120367Y966421D01*
X-120500Y967597D01*
X-120500Y975603D01*
X-120367Y976779D01*
X-119975Y977900D01*
X-119344Y978905D01*
X-118505Y979744D01*
X-117500Y980375D01*
X-116379Y980767D01*
G37*
G36*
X-116379Y980767D02*
X-115200Y980900D01*
X-114021Y980767D01*
X-112900Y980375D01*
X-111895Y979744D01*
X-111056Y978905D01*
X-110425Y977900D01*
X-110033Y976779D01*
X-109900Y975603D01*
X-109900Y967597D01*
X-110033Y966421D01*
X-110425Y965300D01*
X-111056Y964295D01*
X-111895Y963456D01*
X-112900Y962825D01*
X-114021Y962433D01*
X-115200Y962300D01*
X-116379Y962433D01*
X-117500Y962825D01*
X-118505Y963456D01*
X-119344Y964295D01*
X-119975Y965300D01*
X-120367Y966421D01*
X-120500Y967597D01*
X-120500Y975603D01*
X-120367Y976779D01*
X-119975Y977900D01*
X-119344Y978905D01*
X-118505Y979744D01*
X-117500Y980375D01*
X-116379Y980767D01*
G37*
G36*
X-29979Y980767D02*
X-28800Y980900D01*
X-27621Y980767D01*
X-26500Y980375D01*
X-25495Y979744D01*
X-24656Y978905D01*
X-24025Y977900D01*
X-23633Y976779D01*
X-23500Y975603D01*
X-23500Y967597D01*
X-23633Y966421D01*
X-24025Y965300D01*
X-24656Y964295D01*
X-25495Y963456D01*
X-26500Y962825D01*
X-27621Y962433D01*
X-28800Y962300D01*
X-29979Y962433D01*
X-31100Y962825D01*
X-32105Y963456D01*
X-32944Y964295D01*
X-33575Y965300D01*
X-33967Y966421D01*
X-34100Y967597D01*
X-34100Y975603D01*
X-33967Y976779D01*
X-33575Y977900D01*
X-32944Y978905D01*
X-32105Y979744D01*
X-31100Y980375D01*
X-29979Y980767D01*
G37*
G36*
X-29979Y980767D02*
X-28800Y980900D01*
X-27621Y980767D01*
X-26500Y980375D01*
X-25495Y979744D01*
X-24656Y978905D01*
X-24025Y977900D01*
X-23633Y976779D01*
X-23500Y975603D01*
X-23500Y967597D01*
X-23633Y966421D01*
X-24025Y965300D01*
X-24656Y964295D01*
X-25495Y963456D01*
X-26500Y962825D01*
X-27621Y962433D01*
X-28800Y962300D01*
X-29979Y962433D01*
X-31100Y962825D01*
X-32105Y963456D01*
X-32944Y964295D01*
X-33575Y965300D01*
X-33967Y966421D01*
X-34100Y967597D01*
X-34100Y975603D01*
X-33967Y976779D01*
X-33575Y977900D01*
X-32944Y978905D01*
X-32105Y979744D01*
X-31100Y980375D01*
X-29979Y980767D01*
G37*
G36*
X-190537Y656838D02*
X-190537Y663696D01*
X-178853Y663696D01*
X-178853Y656838D01*
X-190537Y656838D01*
G37*
G36*
X-155867Y656838D02*
X-155867Y663696D01*
X-144183Y663696D01*
X-144183Y656838D01*
X-155867Y656838D01*
G37*
G36*
X-81757Y657304D02*
X-81757Y664162D01*
X-70073Y664162D01*
X-70073Y657304D01*
X-81757Y657304D01*
G37*
G36*
X-47087Y657304D02*
X-47087Y664162D01*
X-35403Y664162D01*
X-35403Y657304D01*
X-47087Y657304D01*
G37*
G36*
X28753Y656838D02*
X28753Y663696D01*
X40437Y663696D01*
X40437Y656838D01*
X28753Y656838D01*
G37*
G36*
X63423Y656838D02*
X63423Y663696D01*
X75107Y663696D01*
X75107Y656838D01*
X63423Y656838D01*
G37*
D10*
X123400Y868500D03*
X153400Y868500D03*
D11*
X31850Y817900D03*
X36950Y817900D03*
D12*
X-247400Y958600D03*
X-247400Y968600D03*
D13*
X-27100Y824150D03*
X-27100Y829250D03*
D11*
X29950Y805400D03*
X35050Y805400D03*
D13*
X6000Y825050D03*
X6000Y830150D03*
X-3100Y831350D03*
X-3100Y836450D03*
D14*
X-59800Y817400D03*
X-69800Y817400D03*
D12*
X-26600Y843300D03*
X-26600Y853300D03*
D13*
X-11100Y847950D03*
X-11100Y853050D03*
D11*
X-115950Y815100D03*
X-110850Y815100D03*
X-116450Y777100D03*
X-111350Y777100D03*
D13*
X-136400Y736050D03*
X-136400Y730950D03*
X14100Y848350D03*
X14100Y853450D03*
D14*
X-195300Y946600D03*
X-205300Y946600D03*
X-62800Y742400D03*
X-72800Y742400D03*
D12*
X-44400Y742700D03*
X-44400Y732700D03*
D13*
X109100Y869450D03*
X109100Y864350D03*
D12*
X-212600Y682800D03*
X-212600Y692800D03*
D13*
X-249100Y727050D03*
X-249100Y732150D03*
D14*
X-238900Y676100D03*
X-228900Y676100D03*
D12*
X-6803Y930046D03*
X-6803Y920046D03*
D13*
X-68400Y899050D03*
X-68400Y893950D03*
X90900Y860550D03*
X90900Y865650D03*
D14*
X-236400Y690100D03*
X-226400Y690100D03*
X35400Y917900D03*
X25400Y917900D03*
D13*
X81900Y931350D03*
X81900Y936450D03*
D15*
X-252975Y679644D03*
X-252975Y669644D03*
X-248600Y702500D03*
X-248600Y692500D03*
X-264600Y702300D03*
X-264600Y692300D03*
D13*
X100100Y872250D03*
X100100Y867150D03*
D11*
X-133850Y692900D03*
X-138950Y692900D03*
D12*
X35900Y696800D03*
X35900Y706800D03*
X-55100Y694000D03*
X-55100Y704000D03*
X-152100Y693200D03*
X-152100Y703200D03*
D11*
X-62950Y832400D03*
X-68050Y832400D03*
D14*
X-58300Y758400D03*
X-68300Y758400D03*
D13*
X-9400Y719550D03*
X-9400Y714450D03*
X-23400Y723050D03*
X-23400Y717950D03*
D11*
X22450Y781600D03*
X27550Y781600D03*
D16*
X17721Y958978D03*
X17721Y968478D03*
X17721Y977978D03*
X-7279Y977978D03*
X-7279Y968478D03*
X-7279Y958978D03*
D17*
X-174900Y971700D03*
X-139900Y971700D03*
X-133500Y936300D03*
X-168500Y936300D03*
X-189700Y974800D03*
X-224700Y974800D03*
D11*
X-150850Y840600D03*
X-155950Y840600D03*
D14*
X-125105Y834215D03*
X-135105Y834215D03*
X-147200Y785600D03*
X-157200Y785600D03*
X-132192Y776330D03*
X-142192Y776330D03*
X-136000Y796600D03*
X-146000Y796600D03*
X-156400Y767600D03*
X-166400Y767600D03*
X-157800Y756600D03*
X-167800Y756600D03*
X-175800Y745400D03*
X-185800Y745400D03*
X-151900Y871400D03*
X-161900Y871400D03*
X-148000Y857400D03*
X-158000Y857400D03*
D18*
X-273200Y739400D03*
X-269200Y739400D03*
X-273200Y735400D03*
X-269200Y735400D03*
X-273200Y731400D03*
X-269200Y731400D03*
X-273200Y727400D03*
X-269200Y727400D03*
D19*
X-102700Y753150D03*
X-107700Y753150D03*
X-112700Y753150D03*
X-117700Y753150D03*
D20*
X-117950Y747900D03*
X-117950Y742900D03*
D19*
X-117700Y737650D03*
X-112700Y737650D03*
X-107700Y737650D03*
X-102700Y737650D03*
D20*
X-102450Y742900D03*
X-102450Y747900D03*
D21*
X51300Y888600D03*
X46300Y888600D03*
X41300Y888600D03*
X51300Y893600D03*
X46300Y893600D03*
X41300Y893600D03*
X51300Y898600D03*
X46300Y898600D03*
X41300Y898600D03*
D22*
X-233200Y729400D03*
X-229200Y729400D03*
X-225200Y729400D03*
X-233200Y725400D03*
X-229200Y725400D03*
X-225200Y725400D03*
X-233200Y721400D03*
X-229200Y721400D03*
X-225200Y721400D03*
X-233200Y717400D03*
X-229200Y717400D03*
X-225200Y717400D03*
X-233200Y713400D03*
X-229200Y713400D03*
X-225200Y713400D03*
D23*
X128550Y764770D03*
X115850Y764770D03*
X128550Y777470D03*
X115850Y777470D03*
X128550Y790180D03*
X115850Y790180D03*
D24*
X-69500Y924350D03*
X-64500Y924350D03*
X-59500Y924350D03*
X-54500Y924350D03*
X-74500Y924350D03*
X-79500Y924350D03*
X-84500Y924350D03*
X-89500Y924350D03*
D25*
X-40000Y924350D03*
X-48000Y924350D03*
X-96000Y924350D03*
X-104000Y924350D03*
D26*
X-28800Y971600D03*
X-115200Y971600D03*
X-28800Y930100D03*
X-115200Y930100D03*
D27*
X-183950Y874300D03*
X-183950Y869300D03*
X-183950Y864300D03*
X-183950Y859300D03*
X-183950Y854300D03*
X-183950Y849300D03*
X-183950Y844300D03*
X-183950Y839300D03*
X-183950Y834300D03*
X-183950Y829300D03*
X-183950Y824300D03*
X-183950Y819300D03*
X-183950Y814300D03*
X-183950Y809300D03*
X-183950Y804300D03*
X-183950Y799300D03*
X-183950Y794300D03*
X-183950Y789300D03*
X-183950Y784300D03*
X-183950Y779300D03*
X-183950Y774300D03*
X-183950Y769300D03*
X-183950Y764300D03*
X-183950Y759300D03*
D28*
X-210450Y882200D03*
X-210450Y751400D03*
D29*
X71900Y849120D03*
X71900Y869680D03*
D12*
X-56100Y843900D03*
X-56100Y853900D03*
X-40100Y827400D03*
X-40100Y837400D03*
D30*
X-218940Y924300D03*
X-264660Y924300D03*
D29*
X-197900Y735130D03*
X-197900Y714570D03*
D31*
X-185800Y911600D03*
X-185800Y930600D03*
X-206800Y921100D03*
D32*
X-160000Y909000D03*
X-160000Y896000D03*
X-139000Y902500D03*
D33*
X-168500Y695750D03*
X-168500Y701250D03*
X57100Y690750D03*
X57100Y696250D03*
X-203500Y690750D03*
X-203500Y696250D03*
X-190100Y690750D03*
X-190100Y696250D03*
X-57100Y906750D03*
X-57100Y912250D03*
X-195800Y698846D03*
X-195800Y693346D03*
X-62700Y912250D03*
X-62700Y906750D03*
X-172100Y914250D03*
X-172100Y908750D03*
D34*
X-84750Y753500D03*
X-90250Y753500D03*
D33*
X-180900Y696250D03*
X-180900Y690750D03*
X-67700Y692750D03*
X-67700Y698250D03*
X-275638Y710983D03*
X-275638Y716483D03*
X-101300Y884250D03*
X-101300Y878750D03*
X-202300Y896750D03*
X-202300Y902250D03*
X-106900Y878750D03*
X-106900Y884250D03*
D35*
X-118720Y898700D03*
X-103480Y898700D03*
D36*
X-153358Y680015D03*
X-181362Y680015D03*
D37*
X-148882Y666490D03*
X-185838Y666490D03*
D38*
X-167360Y681539D03*
D36*
X-44578Y680481D03*
X-72582Y680481D03*
D37*
X-40102Y666956D03*
X-77058Y666956D03*
D38*
X-58580Y682005D03*
D36*
X65932Y680015D03*
X37928Y680015D03*
D37*
X70408Y666490D03*
X33452Y666490D03*
D38*
X51930Y681539D03*
D39*
X146600Y693900D03*
X112700Y961700D03*
X-101900Y669900D03*
X59500Y767900D03*
X65700Y971900D03*
X41800Y970700D03*
X98500Y663900D03*
X-160100Y729700D03*
X-136200Y753900D03*
X57100Y733900D03*
X102800Y693900D03*
X65400Y800900D03*
X-124100Y666900D03*
X-212866Y663129D03*
D40*
X-16600Y784500D03*
D18*
X-44100Y784500D03*
X-44100Y789500D03*
X-44100Y794500D03*
X-44100Y799500D03*
X-44100Y804500D03*
X-49100Y807000D03*
X-49100Y797000D03*
X-49100Y792000D03*
X-49100Y787000D03*
X-49100Y782000D03*
X-44100Y779500D03*
X-44100Y774500D03*
X-49100Y777000D03*
X-49100Y772000D03*
X-49100Y767000D03*
X-44100Y764500D03*
X-44100Y759500D03*
X-44100Y752000D03*
X-39100Y752000D03*
X-36600Y757000D03*
X-34100Y752000D03*
X-29100Y752000D03*
X-24100Y752000D03*
X-19100Y752000D03*
X-14100Y752000D03*
X-9100Y752000D03*
X-4100Y752000D03*
X900Y752000D03*
X5900Y752000D03*
X10900Y752000D03*
X3400Y757000D03*
X-1600Y757000D03*
X-6600Y757000D03*
X-11600Y757000D03*
X-16600Y757000D03*
X-21600Y757000D03*
X-26600Y757000D03*
X10900Y764500D03*
X15900Y762000D03*
X15900Y757000D03*
X15900Y767000D03*
X10900Y769500D03*
X15900Y772000D03*
X10900Y774500D03*
X10900Y779500D03*
X15900Y777000D03*
X15900Y782000D03*
X15900Y787000D03*
X15900Y792000D03*
X10900Y794500D03*
X10900Y799500D03*
X15900Y802000D03*
X10900Y804500D03*
X15900Y812000D03*
X-49100Y812000D03*
X-36600Y812000D03*
X-31600Y812000D03*
X-26600Y812000D03*
X-24100Y817000D03*
X-21600Y812000D03*
X-19100Y817000D03*
X-16600Y812000D03*
X-14100Y817000D03*
X-11600Y812000D03*
X-9100Y817000D03*
X-6600Y812000D03*
X-4100Y817000D03*
X-1600Y812000D03*
X900Y817000D03*
X5900Y817000D03*
X10900Y817000D03*
X-41600Y812000D03*
X-29100Y817000D03*
D41*
X-22600Y790500D03*
X-34600Y790500D03*
X-34600Y802500D03*
X-22600Y802500D03*
X-10600Y802500D03*
X1400Y802500D03*
X1400Y790500D03*
X-10600Y790500D03*
X-34600Y778500D03*
X-22600Y778500D03*
X-10600Y778500D03*
X1400Y778500D03*
X1400Y766500D03*
X-10600Y766500D03*
X-22600Y766500D03*
X-34600Y766500D03*
D42*
X-115987Y716587D02*
X-122913Y716587D01*
X-122913Y718613D01*
X-115987Y718613D01*
X-115987Y716587D01*
X-115987Y717228D02*
X-122913Y717228D01*
X-122913Y717869D02*
X-115987Y717869D01*
X-115987Y718510D02*
X-122913Y718510D01*
X-122913Y711587D02*
X-115987Y711587D01*
X-122913Y711587D02*
X-122913Y713613D01*
X-115987Y713613D01*
X-115987Y711587D01*
X-115987Y712228D02*
X-122913Y712228D01*
X-122913Y712869D02*
X-115987Y712869D01*
X-115987Y713510D02*
X-122913Y713510D01*
X-122913Y706587D02*
X-115987Y706587D01*
X-122913Y706587D02*
X-122913Y708613D01*
X-115987Y708613D01*
X-115987Y706587D01*
X-115987Y707228D02*
X-122913Y707228D01*
X-122913Y707869D02*
X-115987Y707869D01*
X-115987Y708510D02*
X-122913Y708510D01*
X-122913Y701587D02*
X-115987Y701587D01*
X-122913Y701587D02*
X-122913Y703613D01*
X-115987Y703613D01*
X-115987Y701587D01*
X-115987Y702228D02*
X-122913Y702228D01*
X-122913Y702869D02*
X-115987Y702869D01*
X-115987Y703510D02*
X-122913Y703510D01*
X-103213Y701587D02*
X-96287Y701587D01*
X-103213Y701587D02*
X-103213Y703613D01*
X-96287Y703613D01*
X-96287Y701587D01*
X-96287Y702228D02*
X-103213Y702228D01*
X-103213Y702869D02*
X-96287Y702869D01*
X-96287Y703510D02*
X-103213Y703510D01*
X-103213Y706587D02*
X-96287Y706587D01*
X-103213Y706587D02*
X-103213Y708613D01*
X-96287Y708613D01*
X-96287Y706587D01*
X-96287Y707228D02*
X-103213Y707228D01*
X-103213Y707869D02*
X-96287Y707869D01*
X-96287Y708510D02*
X-103213Y708510D01*
X-103213Y711587D02*
X-96287Y711587D01*
X-103213Y711587D02*
X-103213Y713613D01*
X-96287Y713613D01*
X-96287Y711587D01*
X-96287Y712228D02*
X-103213Y712228D01*
X-103213Y712869D02*
X-96287Y712869D01*
X-96287Y713510D02*
X-103213Y713510D01*
X-103213Y716587D02*
X-96287Y716587D01*
X-103213Y716587D02*
X-103213Y718613D01*
X-96287Y718613D01*
X-96287Y716587D01*
X-96287Y717228D02*
X-103213Y717228D01*
X-103213Y717869D02*
X-96287Y717869D01*
X-96287Y718510D02*
X-103213Y718510D01*
D43*
X-109600Y710100D03*
D44*
X28650Y834450D03*
X43150Y834450D03*
X43150Y845950D03*
X28650Y845950D03*
D45*
X-89500Y781600D03*
X-89500Y806600D03*
D46*
X-270510Y742315D02*
X-273050Y739775D01*
X-270510Y742315D02*
X-215900Y742315D01*
X-43815Y770255D02*
X-43815Y774065D01*
X-273050Y739775D02*
X-273200Y739400D01*
X-44100Y774500D02*
X-43815Y774065D01*
D47*
X-215900Y742315D03*
X-43815Y770255D03*
D46*
X-229235Y729615D02*
X-233045Y729615D01*
X-233200Y729400D01*
X-229235Y729615D02*
X-229200Y729400D01*
X-228600Y729615D02*
X-225425Y729615D01*
X-225200Y729400D01*
X-228600Y729615D02*
X-229200Y729400D01*
X-263525Y735330D02*
X-268605Y735330D01*
X-254635Y733425D02*
X-250825Y733425D01*
X-249555Y732155D01*
X-268605Y735330D02*
X-269200Y735400D01*
X-249555Y732155D02*
X-249100Y732150D01*
X-245110Y729615D02*
X-233680Y729615D01*
X-245110Y729615D02*
X-247015Y731520D01*
X-248920Y731520D01*
X-233680Y729615D02*
X-233200Y729400D01*
X-248920Y731520D02*
X-249100Y732150D01*
X-228600Y709295D02*
X-212725Y693420D01*
X-212600Y692800D01*
X-258445Y708025D02*
X-264160Y702310D01*
X-264600Y702300D01*
X-223520Y673735D02*
X-213360Y663575D01*
X-212866Y663129D01*
D47*
X-263525Y735330D03*
X-254635Y733425D03*
X-228600Y709295D03*
X-258445Y708025D03*
X-223520Y673735D03*
D46*
X-267970Y730885D02*
X-268605Y730885D01*
X-267970Y730885D02*
X-260985Y723900D01*
X-260985Y715645D01*
X-254635Y709295D01*
X-254635Y681355D01*
X-253365Y680085D01*
X-268605Y730885D02*
X-269200Y731400D01*
X-253365Y680085D02*
X-252975Y679644D01*
X-133350Y693420D02*
X-133350Y696595D01*
X-122555Y707390D01*
X-120015Y707390D01*
X-133350Y693420D02*
X-133850Y692900D01*
X-120015Y707390D02*
X-119450Y707600D01*
X-119380Y708025D02*
X-119380Y712470D01*
X-119450Y712600D01*
X-119380Y708025D02*
X-119450Y707600D01*
X-133350Y692785D02*
X-133350Y676275D01*
X-133033Y675958D02*
X-124460Y667385D01*
X-133033Y675958D02*
X-133350Y676275D01*
X-133350Y692785D02*
X-133850Y692900D01*
X-124460Y667385D02*
X-124100Y666900D01*
X-244475Y679450D02*
X-252730Y679450D01*
X-135255Y673735D02*
X-133033Y675958D01*
X-252730Y679450D02*
X-252975Y679644D01*
D47*
X-244475Y679450D03*
X-135255Y673735D03*
D46*
X-273685Y718820D02*
X-273685Y727075D01*
X-273685Y718820D02*
X-275590Y716915D01*
X-273685Y727075D02*
X-273200Y727400D01*
X-275590Y716915D02*
X-275638Y716483D01*
X-55880Y732155D02*
X-44450Y732155D01*
X-55880Y732155D02*
X-88900Y699135D01*
X-101600Y699135D02*
X-104140Y699135D01*
X-101600Y699135D02*
X-88900Y699135D01*
X-108268Y703263D02*
X-109220Y704215D01*
X-108268Y703263D02*
X-104140Y699135D01*
X-109220Y707390D02*
X-109220Y709930D01*
X-109220Y707390D02*
X-109220Y704215D01*
X-44450Y732155D02*
X-44400Y732700D01*
X-109220Y709930D02*
X-109600Y710100D01*
X-108585Y702945D02*
X-119380Y702945D01*
X-119450Y702600D01*
X-108585Y702945D02*
X-108268Y703263D01*
X-109220Y707390D02*
X-100330Y707390D01*
X-99750Y707600D01*
X-109220Y707390D02*
X-109600Y710100D01*
X-101600Y699135D02*
X-101600Y669925D01*
X-101900Y669900D01*
X-145098Y699453D02*
X-148590Y702945D01*
X-145098Y699453D02*
X-139065Y693420D01*
X-148590Y702945D02*
X-151765Y702945D01*
X-139065Y693420D02*
X-138950Y692900D01*
X-151765Y702945D02*
X-152100Y703200D01*
X-151765Y680085D02*
X-153035Y680085D01*
X-151765Y680085D02*
X-138950Y692900D01*
X-153035Y680085D02*
X-153358Y680015D01*
X-84455Y746125D02*
X-84455Y753110D01*
X-84455Y746125D02*
X-79375Y741045D01*
X-77470Y741045D02*
X-74295Y741045D01*
X-77470Y741045D02*
X-79375Y741045D01*
X-74295Y741045D02*
X-73025Y742315D01*
X-84455Y753110D02*
X-84750Y753500D01*
X-73025Y742315D02*
X-72800Y742400D01*
X-68580Y748665D02*
X-68580Y758190D01*
X-68580Y748665D02*
X-72390Y744855D01*
X-72390Y742950D01*
X-68580Y758190D02*
X-68300Y758400D01*
X-72390Y742950D02*
X-72800Y742400D01*
X-107950Y737870D02*
X-112395Y737870D01*
X-112700Y737650D01*
X-107950Y737870D02*
X-107700Y737650D01*
X-133350Y730885D02*
X-135890Y730885D01*
X-133350Y730885D02*
X-131445Y728980D01*
X-125730Y718820D02*
X-120650Y718820D01*
X-120015Y718185D01*
X-135890Y730885D02*
X-136400Y730950D01*
X-120015Y718185D02*
X-119450Y717600D01*
X-113030Y732790D02*
X-113030Y737235D01*
X-112700Y737650D01*
X-77470Y735330D02*
X-77470Y741045D01*
X-77470Y735330D02*
X-80010Y732790D01*
X-100965Y732790D01*
X-125730Y718820D02*
X-145098Y699453D01*
X-126365Y718820D02*
X-125730Y718820D01*
X-113665Y714375D02*
X-109855Y710565D01*
X-113665Y714375D02*
X-113665Y715010D01*
X-116205Y717550D01*
X-119380Y717550D01*
X-109855Y710565D02*
X-109600Y710100D01*
X-119380Y717550D02*
X-119450Y717600D01*
X-269240Y716915D02*
X-269240Y727075D01*
X-269240Y716915D02*
X-275590Y710565D01*
X-269240Y727075D02*
X-269200Y727400D01*
X-275638Y710983D02*
X-275590Y710565D01*
X-275590Y703580D02*
X-264795Y692785D01*
X-275590Y703580D02*
X-275590Y709930D01*
X-264795Y692785D02*
X-264600Y692300D01*
X-275590Y709930D02*
X-275638Y710983D01*
X-175260Y745490D02*
X-168910Y745490D01*
X-157800Y756600D01*
X-175260Y745490D02*
X-175800Y745400D01*
X-156845Y757555D02*
X-156845Y767080D01*
X-156845Y757555D02*
X-157800Y756600D01*
X-156845Y767080D02*
X-156400Y767600D01*
X-233045Y725170D02*
X-233045Y721995D01*
X-233200Y721400D01*
X-233045Y725170D02*
X-233200Y725400D01*
X-228600Y721360D02*
X-225425Y721360D01*
X-228600Y721360D02*
X-229200Y721400D01*
X-225425Y721360D02*
X-225200Y721400D01*
X-229235Y721995D02*
X-232410Y721995D01*
X-233200Y721400D01*
X-229200Y721400D02*
X-229235Y721995D01*
X-234950Y726440D02*
X-248920Y726440D01*
X-234950Y726440D02*
X-233680Y725170D01*
X-248920Y726440D02*
X-249100Y727050D01*
X-233680Y725170D02*
X-233200Y725400D01*
X-228600Y687705D02*
X-228600Y682625D01*
X-228600Y676275D01*
X-228600Y687705D02*
X-226695Y689610D01*
X-228600Y676275D02*
X-228900Y676100D01*
X-226695Y689610D02*
X-226400Y690100D01*
X-228600Y682625D02*
X-212725Y682625D01*
X-212600Y682800D01*
X-234950Y669925D02*
X-252730Y669925D01*
X-234950Y669925D02*
X-229235Y675640D01*
X-252730Y669925D02*
X-252975Y669644D01*
X-229235Y675640D02*
X-228900Y676100D01*
X-245110Y692785D02*
X-248285Y692785D01*
X-237173Y700723D02*
X-236855Y701040D01*
X-237173Y700723D02*
X-245110Y692785D01*
X-236855Y701040D02*
X-234315Y701040D01*
X-226695Y693420D01*
X-226695Y690245D01*
X-248285Y692785D02*
X-248600Y692500D01*
X-226695Y690245D02*
X-226400Y690100D01*
X-238760Y716280D02*
X-233680Y721360D01*
X-238760Y716280D02*
X-238760Y702310D01*
X-237173Y700723D01*
X-233680Y721360D02*
X-233200Y721400D01*
X-175895Y737235D02*
X-175895Y744855D01*
X-176213Y736918D02*
X-190500Y722630D01*
X-176213Y736918D02*
X-175895Y737235D01*
X-190500Y722630D02*
X-223520Y722630D01*
X-224790Y721360D01*
X-175895Y744855D02*
X-175800Y745400D01*
X-224790Y721360D02*
X-225200Y721400D01*
X-264160Y692150D02*
X-264160Y680720D01*
X-253365Y669925D01*
X-264160Y692150D02*
X-264600Y692300D01*
X-253365Y669925D02*
X-252975Y669644D01*
X-176213Y736918D02*
X-175895Y736600D01*
X-247015Y969010D02*
X-232410Y983615D01*
X-127000Y983615D01*
X-115570Y972185D01*
X-247015Y969010D02*
X-247400Y968600D01*
X-115570Y972185D02*
X-115200Y971600D01*
X-118110Y889635D02*
X-107315Y878840D01*
X-118110Y889635D02*
X-118110Y898525D01*
X-107315Y878840D02*
X-106900Y878750D01*
X-118110Y898525D02*
X-118720Y898700D01*
X-145670Y790955D02*
X-147200Y785600D01*
X-109855Y924560D02*
X-104140Y924560D01*
X-110173Y924878D02*
X-114935Y929640D01*
X-110173Y924878D02*
X-109855Y924560D01*
X-104140Y924560D02*
X-104000Y924350D01*
X-114935Y929640D02*
X-115200Y930100D01*
X-121285Y935990D02*
X-133350Y935990D01*
X-120968Y935673D02*
X-115570Y930275D01*
X-120968Y935673D02*
X-121285Y935990D01*
X-133350Y935990D02*
X-133500Y936300D01*
X-115570Y930275D02*
X-115200Y930100D01*
X-118110Y916940D02*
X-118110Y899160D01*
X-118110Y916940D02*
X-110173Y924878D01*
X-118110Y899160D02*
X-118720Y898700D01*
X-115570Y941070D02*
X-115570Y971550D01*
X-115570Y941070D02*
X-120968Y935673D01*
X-115570Y971550D02*
X-115200Y971600D01*
X-153035Y767715D02*
X-156210Y767715D01*
X-153035Y767715D02*
X-147955Y772795D01*
X-156210Y767715D02*
X-156400Y767600D01*
X-150495Y845185D02*
X-150495Y855345D01*
X-150495Y845185D02*
X-150495Y840740D01*
X-150495Y855345D02*
X-148590Y857250D01*
X-150495Y840740D02*
X-150850Y840600D01*
X-148590Y857250D02*
X-148000Y857400D01*
X-151765Y861060D02*
X-151765Y871220D01*
X-151765Y861060D02*
X-148590Y857885D01*
X-151765Y871220D02*
X-151900Y871400D01*
X-148590Y857885D02*
X-148000Y857400D01*
X-132080Y776605D02*
X-116840Y776605D01*
X-116450Y777100D01*
X-132080Y776605D02*
X-132192Y776330D01*
X-68580Y818515D02*
X-68580Y831850D01*
X-68580Y818515D02*
X-69215Y817880D01*
X-68580Y831850D02*
X-68050Y832400D01*
X-69215Y817880D02*
X-69800Y817400D01*
X-115950Y815100D02*
X-116205Y815340D01*
X-107315Y817880D02*
X-69850Y817880D01*
X-107315Y817880D02*
X-109220Y819785D01*
X-113030Y819785D01*
X-116205Y816610D01*
X-116205Y815975D01*
X-69850Y817880D02*
X-69800Y817400D01*
X-115950Y815100D02*
X-116205Y815975D01*
X-116205Y814705D02*
X-116205Y777240D01*
X-116450Y777100D01*
X-116205Y814705D02*
X-115950Y815100D01*
X-137780Y841660D02*
X-138471Y842351D01*
X-150850Y840600D01*
X-173990Y912495D02*
X-172720Y913765D01*
X-173990Y912495D02*
X-174625Y912495D01*
X-179070Y908050D01*
X-179070Y906780D01*
X-202883Y882968D02*
X-203200Y882650D01*
X-202883Y882968D02*
X-179070Y906780D01*
X-203200Y882650D02*
X-210185Y882650D01*
X-172720Y913765D02*
X-172100Y914250D01*
X-210185Y882650D02*
X-210450Y882200D01*
X-187325Y794385D02*
X-184150Y794385D01*
X-187643Y794703D02*
X-189865Y796925D01*
X-187643Y794703D02*
X-187325Y794385D01*
X-189865Y796925D02*
X-189865Y836295D01*
X-187643Y838518D02*
X-187325Y838835D01*
X-187643Y838518D02*
X-189865Y836295D01*
X-187325Y838835D02*
X-184150Y838835D01*
X-184150Y794385D02*
X-183950Y794300D01*
X-184150Y838835D02*
X-183950Y839300D01*
X-210185Y772160D02*
X-210185Y751840D01*
X-210185Y772160D02*
X-187643Y794703D01*
X-210185Y751840D02*
X-210450Y751400D01*
X-202565Y853440D02*
X-202565Y882650D01*
X-202565Y853440D02*
X-187643Y838518D01*
X-202565Y882650D02*
X-202883Y882968D01*
X-175260Y845185D02*
X-150495Y845185D01*
X-175260Y845185D02*
X-180975Y839470D01*
X-183515Y839470D01*
X-183950Y839300D01*
X-23400Y717950D02*
X-21952Y718407D01*
X-19948Y714450D02*
X-9400Y714450D01*
X-19948Y714450D02*
X-21952Y718407D01*
X-52070Y704215D02*
X-54610Y704215D01*
X-52070Y704215D02*
X-35878Y720408D01*
X-54610Y704215D02*
X-55100Y704000D01*
X-39724Y717950D02*
X-23400Y717950D01*
X-39724Y717950D02*
X-54610Y704215D01*
X35560Y707390D02*
X35900Y706800D01*
X35560Y707390D02*
X8800Y714450D01*
X-9400Y714450D01*
X-44450Y699135D02*
X-44450Y680720D01*
X-44450Y699135D02*
X-31115Y712470D01*
X-31115Y715645D01*
X-35878Y720408D01*
X-44450Y680720D02*
X-44578Y680481D01*
X59055Y755650D02*
X59055Y767715D01*
X59055Y755650D02*
X35560Y732155D01*
X35560Y721995D02*
X35560Y708025D01*
X35560Y721995D02*
X35560Y732155D01*
X59055Y767715D02*
X59500Y767900D01*
X35560Y708025D02*
X35900Y706800D01*
X128905Y777875D02*
X128905Y789940D01*
X128905Y777875D02*
X128550Y777470D01*
X128905Y789940D02*
X128550Y790180D01*
X149860Y680085D02*
X66040Y680085D01*
X149860Y680085D02*
X158750Y688975D01*
X158750Y719455D01*
X132398Y745808D02*
X132080Y746125D01*
X132398Y745808D02*
X158750Y719455D01*
X132080Y746125D02*
X132080Y759460D01*
X134620Y762000D01*
X134620Y771525D01*
X128905Y777240D01*
X66040Y680085D02*
X65932Y680015D01*
X128905Y777240D02*
X128550Y777470D01*
X-11430Y829310D02*
X-26670Y829310D01*
X-11430Y829310D02*
X-4445Y836295D01*
X-3175Y836295D01*
X-26670Y829310D02*
X-27100Y829250D01*
X-3175Y836295D02*
X-3100Y836450D01*
X4445Y830580D02*
X5715Y830580D01*
X-953Y835978D02*
X-1270Y836295D01*
X-953Y835978D02*
X4445Y830580D01*
X-1270Y836295D02*
X-2540Y836295D01*
X5715Y830580D02*
X6000Y830150D01*
X-2540Y836295D02*
X-3100Y836450D01*
X12700Y853440D02*
X13970Y853440D01*
X4763Y845503D02*
X-635Y840105D01*
X4763Y845503D02*
X12700Y853440D01*
X-635Y840105D02*
X-635Y836295D01*
X13970Y853440D02*
X14100Y853450D01*
X-635Y836295D02*
X-953Y835978D01*
X35560Y816610D02*
X35560Y809625D01*
X35560Y805815D01*
X35560Y816610D02*
X36830Y817880D01*
X35560Y805815D02*
X35050Y805400D01*
X36830Y817880D02*
X36950Y817900D01*
X37465Y818515D02*
X37465Y829310D01*
X42545Y834390D01*
X37465Y818515D02*
X36950Y817900D01*
X42545Y834390D02*
X43150Y834450D01*
X41275Y833755D02*
X29210Y845820D01*
X28650Y845950D01*
X41275Y833755D02*
X43150Y834450D01*
X10160Y840105D02*
X4763Y845503D01*
X10160Y840105D02*
X22225Y840105D01*
X28575Y846455D01*
X28650Y845950D01*
X-31750Y811530D02*
X-31750Y805180D01*
X-34290Y802640D01*
X-31750Y811530D02*
X-31600Y812000D01*
X3810Y800100D02*
X7620Y800100D01*
X10795Y800100D01*
X3810Y800100D02*
X1905Y802005D01*
X10795Y800100D02*
X10900Y799500D01*
X1905Y802005D02*
X-16600Y784500D01*
X-34290Y777875D02*
X-34290Y767080D01*
X-34600Y766500D01*
X-34290Y777875D02*
X-16600Y784500D01*
X-34290Y778510D02*
X-34600Y778500D01*
X-34290Y778510D02*
X-16600Y784500D01*
X-28575Y796290D02*
X-34290Y790575D01*
X-34600Y790500D01*
X-28575Y796290D02*
X-16600Y784500D01*
X-34290Y802640D02*
X-34600Y802500D01*
X-34290Y802640D02*
X-16600Y784500D01*
X-22225Y777875D02*
X-22225Y767080D01*
X-22600Y766500D01*
X-22225Y777875D02*
X-16600Y784500D01*
X-21590Y767080D02*
X-10795Y767080D01*
X-10600Y766500D01*
X-21590Y767080D02*
X-22600Y766500D01*
X-22600Y778500D02*
X-22225Y778510D01*
X-16600Y784500D01*
X-16510Y784225D02*
X-10795Y778510D01*
X-10600Y778500D01*
X-16510Y784225D02*
X-16600Y784500D01*
X1270Y777875D02*
X1270Y767080D01*
X1400Y766500D01*
X1270Y777875D02*
X-16600Y784500D01*
X1270Y778510D02*
X1400Y778500D01*
X1270Y778510D02*
X-16600Y784500D01*
X-22225Y790575D02*
X-22600Y790500D01*
X-22225Y790575D02*
X-16600Y784500D01*
X-10795Y790575D02*
X-10600Y790500D01*
X-10795Y790575D02*
X-16600Y784500D01*
X-27940Y796925D02*
X-22860Y802005D01*
X-22600Y802500D01*
X-27940Y796925D02*
X-16600Y784500D01*
X-4445Y796290D02*
X-10160Y802005D01*
X-10600Y802500D01*
X-4445Y796290D02*
X1270Y790575D01*
X1400Y790500D01*
X-4445Y796290D02*
X-16600Y784500D01*
X1400Y802500D02*
X1905Y802640D01*
X-16600Y784500D01*
X17780Y809625D02*
X35560Y809625D01*
X17780Y809625D02*
X15875Y807720D01*
X9525Y807720D01*
X7620Y805815D01*
X7620Y800100D01*
X-16600Y784500D01*
X27940Y784225D02*
X27940Y781685D01*
X85408Y841693D02*
X99695Y855980D01*
X85408Y841693D02*
X28258Y784543D01*
X27940Y784225D01*
X99695Y865505D02*
X99695Y866775D01*
X99695Y865505D02*
X99695Y864235D01*
X99695Y855980D01*
X27940Y781685D02*
X27550Y781600D01*
X99695Y866775D02*
X100100Y867150D01*
X99695Y864235D02*
X108585Y864235D01*
X109100Y864350D01*
X99695Y865505D02*
X91440Y865505D01*
X90900Y865650D01*
X-57150Y906780D02*
X-60325Y906780D01*
X-62230Y906780D01*
X-62700Y906750D01*
X-57150Y906780D02*
X-57100Y906750D01*
X-66675Y894080D02*
X-67945Y894080D01*
X-66358Y894398D02*
X-60325Y900430D01*
X-66358Y894398D02*
X-66675Y894080D01*
X-60325Y900430D02*
X-60325Y906780D01*
X-67945Y894080D02*
X-68400Y893950D01*
X-19050Y920115D02*
X-6985Y920115D01*
X-19050Y920115D02*
X-28575Y929640D01*
X-6985Y920115D02*
X-6803Y920046D01*
X-28575Y929640D02*
X-28800Y930100D01*
X-34290Y924560D02*
X-39370Y924560D01*
X-34290Y924560D02*
X-29210Y929640D01*
X-39370Y924560D02*
X-40000Y924350D01*
X-29210Y929640D02*
X-28800Y930100D01*
X-53975Y906780D02*
X-56515Y906780D01*
X-53975Y906780D02*
X-40005Y920750D01*
X-40005Y923925D01*
X-56515Y906780D02*
X-57100Y906750D01*
X-40005Y923925D02*
X-40000Y924350D01*
X36100Y899255D02*
X41275Y894080D01*
X72390Y935990D02*
X81550Y935990D01*
X72390Y935990D02*
X72105Y935990D01*
X41275Y894080D02*
X41300Y893600D01*
X81550Y935990D02*
X81900Y936450D01*
X-11430Y852805D02*
X-26035Y852805D01*
X-11430Y852805D02*
X-11100Y853050D01*
X-26035Y852805D02*
X-26600Y853300D01*
X51435Y893445D02*
X54610Y890270D01*
X54610Y887095D01*
X50483Y882968D02*
X50165Y882650D01*
X50483Y882968D02*
X54610Y887095D01*
X50165Y882650D02*
X38735Y882650D01*
X26670Y894715D02*
X26575Y894810D01*
X26670Y894715D02*
X38735Y882650D01*
X26670Y894715D02*
X26670Y915101D01*
X51300Y893600D02*
X51435Y893445D01*
X26670Y915101D02*
X25400Y917900D01*
X26575Y894810D02*
X3558Y871793D01*
X-11100Y853050D01*
X17780Y968375D02*
X20320Y968375D01*
X26035Y962660D01*
X26035Y920115D02*
X26035Y917970D01*
X26035Y920115D02*
X26035Y962660D01*
X17780Y968375D02*
X17721Y968478D01*
X25400Y917900D02*
X26035Y917970D01*
X38100Y984250D02*
X70485Y984250D01*
X38100Y984250D02*
X21590Y967740D01*
X17721Y968478D01*
X26035Y920115D02*
X-6350Y920115D01*
X-6803Y920046D01*
X87630Y865505D02*
X90805Y865505D01*
X87630Y865505D02*
X83820Y861695D01*
X59690Y861695D01*
X50800Y870585D01*
X50800Y882650D01*
X90805Y865505D02*
X90900Y865650D01*
X50800Y882650D02*
X50483Y882968D01*
X26035Y786765D02*
X23495Y786765D01*
X26035Y786765D02*
X28258Y784543D01*
X128270Y790575D02*
X128270Y795655D01*
X120015Y803910D01*
X120015Y807085D01*
X85408Y841693D01*
X128270Y790575D02*
X128550Y790180D01*
X92075Y721995D02*
X35560Y721995D01*
X92075Y721995D02*
X113665Y743585D01*
X130175Y743585D01*
X132398Y745808D01*
X-67945Y832485D02*
X-67945Y869315D01*
X-66040Y871220D01*
X-66040Y894080D01*
X-67945Y832485D02*
X-68050Y832400D01*
X-66040Y894080D02*
X-66358Y894398D01*
X-103505Y920115D02*
X-103505Y923925D01*
X-103505Y920115D02*
X-90170Y906780D01*
X-62865Y906780D01*
X-103505Y923925D02*
X-104000Y924350D01*
X-62865Y906780D02*
X-62700Y906750D01*
D47*
X-131445Y728980D03*
X-126365Y718820D03*
X-113030Y732790D03*
X-100965Y732790D03*
X-175895Y736600D03*
X-147955Y772795D03*
X23495Y786765D03*
D46*
X-130764Y841660D02*
X-137780Y841660D01*
X-130764Y841660D02*
X-128160Y839056D01*
X-128160Y827295D02*
X-116205Y815340D01*
X-128160Y827295D02*
X-128160Y837270D01*
X-128160Y839056D01*
X-128160Y837270D02*
X-125105Y834215D01*
D47*
X-144404Y804044D03*
D46*
X-144930Y791695D02*
X-145670Y790955D01*
X-137806Y796600D02*
X-136000Y796600D01*
X-142711Y791695D02*
X-144930Y791695D01*
X-142711Y791695D02*
X-137806Y796600D01*
X-140444Y804044D02*
X-144404Y804044D01*
X-136000Y799600D02*
X-136000Y796600D01*
X-136000Y799600D02*
X-140444Y804044D01*
X72105Y961469D02*
X77605Y966969D01*
X77605Y977130D01*
X70485Y984250D01*
X72105Y961469D02*
X72105Y935990D01*
X67398Y935990D01*
X36100Y904692D01*
X36100Y899255D01*
X-225425Y717550D02*
X-228600Y717550D01*
X-229200Y717400D01*
X-225425Y717550D02*
X-225200Y717400D01*
X-224790Y716915D02*
X-200025Y716915D01*
X-198120Y715010D01*
X-224790Y716915D02*
X-225200Y717400D01*
X-198120Y715010D02*
X-197900Y714570D01*
X-135255Y737235D02*
X-118110Y737235D01*
X-135255Y737235D02*
X-135890Y736600D01*
X-118110Y737235D02*
X-117700Y737650D01*
X-135890Y736600D02*
X-136400Y736050D01*
X-102870Y735965D02*
X-102870Y737235D01*
X-102870Y735965D02*
X-109855Y728980D01*
X-114300Y728980D01*
X-117475Y732155D01*
X-117475Y737235D01*
X-102870Y737235D02*
X-102700Y737650D01*
X-117475Y737235D02*
X-117700Y737650D01*
X-225425Y725805D02*
X-228600Y725805D01*
X-229200Y725400D01*
X-225425Y725805D02*
X-225200Y725400D01*
X-224790Y725805D02*
X-207010Y725805D01*
X-198120Y734695D01*
X-224790Y725805D02*
X-225200Y725400D01*
X-198120Y734695D02*
X-197900Y735130D01*
X-233680Y716915D02*
X-234315Y716915D01*
X-236220Y715010D01*
X-236220Y708660D01*
X-217805Y690245D01*
X-217805Y689610D01*
X-215900Y687705D01*
X-206375Y687705D01*
X-205740Y687070D01*
X-186055Y687070D01*
X-182880Y690245D01*
X-180975Y690245D01*
X-233200Y717400D02*
X-233680Y716915D01*
X-180900Y690750D02*
X-180975Y690245D01*
D47*
X-93000Y771000D03*
D46*
X-112177Y768350D02*
X-123825Y756702D01*
X-119545Y744495D02*
X-117950Y742900D01*
X-119545Y744495D02*
X-120489Y744495D01*
X-112177Y768350D02*
X-95650Y768350D01*
X-93000Y771000D01*
X-120489Y744495D02*
X-123825Y747831D01*
X-123825Y756702D01*
D47*
X-82000Y767000D03*
D46*
X-65000Y767000D01*
X-52500Y779500D01*
X-44100Y779500D01*
X-49100Y782000D02*
X-49785Y782685D01*
X-71390Y782685D01*
X-88265Y765810D01*
X-111125Y765810D01*
X-121285Y755650D01*
X-121285Y750570D01*
X-118110Y747395D01*
X-117950Y747900D01*
X-102235Y753110D02*
X-90805Y753110D01*
X-102235Y753110D02*
X-102700Y753150D01*
X-90805Y753110D02*
X-90250Y753500D01*
X16510Y762000D02*
X16510Y763270D01*
X53340Y800100D01*
X53340Y805815D01*
X60960Y813435D01*
X69850Y813435D01*
X81280Y802005D01*
X81280Y777875D01*
X90488Y768668D02*
X90805Y768350D01*
X90488Y768668D02*
X81280Y777875D01*
X90805Y768350D02*
X106680Y768350D01*
X115570Y777240D01*
X16510Y762000D02*
X15900Y762000D01*
X115570Y777240D02*
X115850Y777470D01*
X57150Y735330D02*
X57150Y734060D01*
X57150Y735330D02*
X90488Y768668D01*
X57150Y734060D02*
X57100Y733900D01*
X92710Y703580D02*
X102235Y694055D01*
X16510Y756920D02*
X15900Y757000D01*
X102235Y694055D02*
X102800Y693900D01*
X115570Y756920D02*
X115570Y764540D01*
X115570Y756920D02*
X111760Y753110D01*
X111760Y745490D01*
X92075Y725805D01*
X90805Y725805D01*
X115570Y764540D02*
X115850Y764770D01*
D47*
X92710Y703580D03*
X90805Y725805D03*
X24765Y757417D03*
D46*
X24268Y756920D01*
X16510Y756920D01*
X8890Y755015D02*
X6350Y752475D01*
X8890Y755015D02*
X13335Y755015D01*
X15875Y752475D01*
X26035Y752475D01*
X64770Y791210D01*
X64770Y800735D01*
X6350Y752475D02*
X5900Y752000D01*
X64770Y800735D02*
X65400Y800900D01*
X116205Y789940D02*
X119380Y789940D01*
X125095Y784225D01*
X142240Y767080D02*
X153670Y767080D01*
X162560Y758190D01*
X162560Y688975D01*
X137795Y664210D01*
X99060Y664210D01*
X116205Y789940D02*
X115850Y790180D01*
X99060Y664210D02*
X98500Y663900D01*
D47*
X125095Y784225D03*
X142240Y767080D03*
X-16600Y757000D03*
X41000Y756000D03*
D46*
X41000Y748000D01*
X43000Y746000D01*
D47*
X43000Y746000D03*
X61000Y747000D03*
D46*
X77000Y763000D01*
X77000Y790000D01*
D47*
X77000Y790000D03*
X92000Y802000D03*
D46*
X108739Y794900D02*
X111245Y794900D01*
X116205Y789940D01*
X101639Y802000D02*
X92000Y802000D01*
X101639Y802000D02*
X108739Y794900D01*
X-19685Y817245D02*
X-19685Y822325D01*
X-21590Y824230D01*
X-69850Y872490D02*
X-144780Y872490D01*
X-149225Y876935D01*
X-156210Y876935D01*
X-157480Y828675D02*
X-158750Y828675D01*
X-172720Y814705D01*
X-183515Y814705D01*
X-19685Y817245D02*
X-19100Y817000D01*
X-183515Y814705D02*
X-183950Y814300D01*
D47*
X-21590Y824230D03*
X-69850Y872490D03*
X-156210Y876935D03*
X-157480Y828675D03*
D46*
X-77470Y786765D02*
X-49530Y786765D01*
X-106045Y758190D02*
X-106045Y756285D01*
X-107315Y755015D01*
X-107315Y753745D01*
X-49530Y786765D02*
X-49100Y787000D01*
X-107315Y753745D02*
X-107700Y753150D01*
X-135890Y754380D02*
X-136200Y753900D01*
X-273685Y731520D02*
X-277495Y731520D01*
X-199390Y702310D02*
X-196215Y699135D01*
X-273200Y731400D02*
X-273685Y731520D01*
X-196215Y699135D02*
X-195800Y698846D01*
X-193675Y696595D02*
X-190500Y696595D01*
X-193675Y696595D02*
X-195580Y698500D01*
X-190500Y696595D02*
X-190100Y696250D01*
X-195580Y698500D02*
X-195800Y698846D01*
X-103505Y718185D02*
X-100330Y718185D01*
X-103505Y718185D02*
X-105410Y720090D01*
X-113665Y720090D01*
X-116205Y722630D01*
X-138430Y722630D01*
X-147955Y732155D01*
X-147955Y734695D01*
X-154623Y741363D02*
X-154940Y741680D01*
X-154623Y741363D02*
X-147955Y734695D01*
X-154940Y741680D02*
X-165100Y741680D01*
X-184785Y721995D01*
X-184785Y702945D01*
X-190500Y697230D01*
X-100330Y718185D02*
X-99750Y717600D01*
X-190100Y696250D02*
X-190500Y697230D01*
X-152400Y743585D02*
X-152400Y753110D01*
X-152400Y743585D02*
X-154623Y741363D01*
D47*
X-77470Y786765D03*
X-106045Y758190D03*
X-277495Y731520D03*
X-199390Y702310D03*
X-152400Y753110D03*
X-125997Y762362D03*
D46*
X-133980Y754380D01*
X-135890Y754380D01*
X-273685Y735965D02*
X-278130Y735965D01*
X-209550Y702310D02*
X-203835Y696595D01*
X-273200Y735400D02*
X-273685Y735965D01*
X-203835Y696595D02*
X-203500Y696250D01*
X-180340Y696595D02*
X-180340Y709930D01*
X-160655Y729615D01*
X-180340Y696595D02*
X-180900Y696250D01*
X-160655Y729615D02*
X-160100Y729700D01*
X51435Y898525D02*
X58420Y898525D01*
X78105Y878840D01*
X-92710Y711200D02*
X-98425Y711200D01*
X-99695Y712470D01*
X51300Y898600D02*
X51435Y898525D01*
X-99750Y712600D02*
X-99695Y712470D01*
X-102235Y747395D02*
X-102450Y747900D01*
X-141605Y711200D02*
X-160020Y729615D01*
X-160100Y729700D01*
D47*
X-278130Y735965D03*
X-209550Y702310D03*
X78105Y878840D03*
X-92710Y711200D03*
X-90805Y737235D03*
X-141605Y711200D03*
D46*
X-90841Y737235D02*
X-90805Y737235D01*
X-90841Y737235D02*
X-101001Y747395D01*
X-102235Y747395D01*
X-33655Y752475D02*
X-31750Y754380D01*
X-31750Y755015D01*
X-16510Y971550D02*
X-10160Y977900D01*
X-7620Y977900D01*
X-33655Y752475D02*
X-34100Y752000D01*
X-7620Y977900D02*
X-7279Y977978D01*
D47*
X-31750Y755015D03*
X71755Y789305D03*
X-16510Y971550D03*
X59690Y751294D03*
D46*
X71755Y763319D02*
X71755Y789305D01*
X71755Y763319D02*
X59730Y751294D01*
X59690Y751294D01*
X-154305Y695325D02*
X-168275Y695325D01*
X-154305Y695325D02*
X-152400Y693420D01*
X-168275Y695325D02*
X-168500Y695750D01*
X-152400Y693420D02*
X-152100Y693200D01*
X-180975Y683260D02*
X-180975Y680085D01*
X-180975Y683260D02*
X-168910Y695325D01*
X-180975Y680085D02*
X-181362Y680015D01*
X-168910Y695325D02*
X-168500Y695750D01*
X41910Y690880D02*
X56515Y690880D01*
X41593Y691198D02*
X36195Y696595D01*
X41593Y691198D02*
X41910Y690880D01*
X56515Y690880D02*
X57100Y690750D01*
X36195Y696595D02*
X35900Y696800D01*
X38100Y687705D02*
X38100Y680085D01*
X38100Y687705D02*
X41593Y691198D01*
X38100Y680085D02*
X37928Y680015D01*
X-29210Y746760D02*
X-29210Y751840D01*
X-29210Y746760D02*
X-34925Y741045D01*
X-34925Y713740D02*
X-54610Y694055D01*
X-29210Y751840D02*
X-29100Y752000D01*
X-54610Y694055D02*
X-55100Y694000D01*
X-55880Y692785D02*
X-67310Y692785D01*
X-55880Y692785D02*
X-55245Y693420D01*
X-67310Y692785D02*
X-67700Y692750D01*
X-55245Y693420D02*
X-55100Y694000D01*
X-72390Y687705D02*
X-72390Y680720D01*
X-72073Y688023D02*
X-67945Y692150D01*
X-72073Y688023D02*
X-72390Y687705D01*
X-72390Y680720D02*
X-72582Y680481D01*
X-67945Y692150D02*
X-67700Y692750D01*
X-18415Y697230D02*
X35560Y697230D01*
X-18415Y697230D02*
X-29845Y708660D01*
X35560Y697230D02*
X35900Y696800D01*
X-144145Y692785D02*
X-151765Y692785D01*
X-76835Y692785D02*
X-72073Y688023D01*
X-151765Y692785D02*
X-152100Y693200D01*
D47*
X-34925Y741045D03*
X-34925Y713740D03*
X-29845Y708660D03*
X-144145Y692785D03*
X-76835Y692785D03*
D46*
X-24130Y749935D02*
X-24130Y751840D01*
X-24130Y749935D02*
X-26670Y747395D01*
X-26670Y744220D01*
X-33655Y737235D01*
X-54610Y737235D01*
X-69215Y722630D01*
X-112395Y722630D01*
X-114935Y725170D01*
X-137160Y725170D01*
X-145415Y733425D01*
X-145415Y746125D01*
X-148590Y749300D01*
X-148590Y761365D01*
X-137160Y772795D01*
X-145415Y833120D02*
X-158115Y833120D01*
X-166370Y824865D01*
X-183515Y824865D01*
X-24100Y752000D02*
X-24130Y751840D01*
X-183515Y824865D02*
X-183950Y824300D01*
X-130700Y830426D02*
X-130700Y838004D01*
X-131816Y839120D01*
X-138394Y839120D01*
X-139510Y838004D01*
X-139510Y834362D01*
X-140998Y832874D01*
X-145169Y832874D01*
X-145415Y833120D01*
X-137160Y787246D02*
X-137160Y772795D01*
X-137160Y787246D02*
X-131595Y792811D01*
X-131595Y829531D02*
X-130700Y830426D01*
X-131595Y829531D02*
X-131595Y792811D01*
X-19685Y751840D02*
X-19685Y749300D01*
X-20955Y748030D01*
X-81280Y736600D02*
X-93980Y749300D01*
X-177990Y833755D02*
X-177165Y834580D01*
X-177990Y833755D02*
X-183515Y833755D01*
X-19685Y751840D02*
X-19100Y752000D01*
X-183515Y833755D02*
X-183950Y834300D01*
D47*
X-81280Y736600D03*
X-93980Y749300D03*
X-177165Y834580D03*
X-20955Y745248D03*
D46*
X-20955Y748030D01*
X13335Y791845D02*
X15875Y791845D01*
X13335Y791845D02*
X12065Y790575D01*
X-85090Y715010D02*
X-85090Y713740D01*
X-95885Y702945D01*
X-99695Y702945D01*
X15875Y791845D02*
X15900Y792000D01*
X-99695Y702945D02*
X-99750Y702600D01*
D47*
X12065Y790575D03*
X-85090Y715010D03*
D46*
X11430Y760095D02*
X11430Y763905D01*
X-179070Y918210D02*
X-185420Y911860D01*
X10900Y764500D02*
X11430Y763905D01*
X-185420Y911860D02*
X-185800Y911600D01*
X-200025Y897255D02*
X-201930Y897255D01*
X-200025Y897255D02*
X-186055Y911225D01*
X-201930Y897255D02*
X-202300Y896750D01*
X-186055Y911225D02*
X-185800Y911600D01*
D47*
X11430Y760095D03*
X-179070Y918210D03*
D46*
X-202565Y901700D02*
X-207010Y901700D01*
X-213360Y895350D01*
X-234950Y895350D01*
X-236855Y897255D01*
X-236855Y963930D02*
X-236855Y975360D01*
X-236855Y963930D02*
X-236855Y897255D01*
X-236855Y975360D02*
X-231140Y981075D01*
X-218440Y981075D01*
X-200025Y962660D01*
X-200025Y942975D01*
X-187960Y930910D01*
X-186055Y930910D01*
X-202300Y902250D02*
X-202565Y901700D01*
X-185800Y930600D02*
X-186055Y930910D01*
X46355Y899160D02*
X78105Y930910D01*
X81550Y930910D01*
X46355Y899160D02*
X46300Y898600D01*
X81550Y930910D02*
X81900Y931350D01*
X112395Y959485D02*
X112395Y961390D01*
X109910Y957000D02*
X84455Y931545D01*
X82185Y931545D01*
X112395Y961390D02*
X112700Y961700D01*
X82185Y931545D02*
X81900Y931350D01*
X-236855Y963930D02*
X-251460Y963930D01*
X-252730Y965200D01*
X-252730Y971550D01*
X-240030Y984250D01*
X-235585Y984250D01*
X-233045Y986790D01*
X71755Y986790D01*
X-225425Y713740D02*
X-228600Y713740D01*
X-229200Y713400D01*
X-225425Y713740D02*
X-225200Y713400D01*
X-224790Y713105D02*
X-224790Y710565D01*
X-223520Y709295D01*
X-235585Y697230D02*
X-235585Y690880D01*
X-236220Y690245D01*
X-224790Y713105D02*
X-225200Y713400D01*
X-236220Y690245D02*
X-236400Y690100D01*
X-176530Y701040D02*
X-168910Y701040D01*
X-168500Y701250D01*
X-238760Y687705D02*
X-238760Y676275D01*
X-238760Y687705D02*
X-236855Y689610D01*
X-238760Y676275D02*
X-238900Y676100D01*
X-236855Y689610D02*
X-236400Y690100D01*
X-48895Y766445D02*
X-46355Y766445D01*
X-44450Y764540D01*
X-48895Y766445D02*
X-49100Y767000D01*
X-44450Y764540D02*
X-44100Y764500D01*
X-112395Y756920D02*
X-112395Y753745D01*
X-112395Y756920D02*
X-106045Y763270D01*
X-80645Y763270D01*
X-112395Y753745D02*
X-112700Y753150D01*
X-57785Y758190D02*
X-49530Y766445D01*
X-49100Y767000D01*
X-57785Y758190D02*
X-58300Y758400D01*
X-13970Y744665D02*
X-13970Y739140D01*
X-13970Y744665D02*
X-13970Y747788D01*
X-13970Y739140D02*
X-13653Y738823D01*
X-13970Y724351D02*
X-9400Y719550D01*
X-13970Y724351D02*
X-13970Y739140D01*
X3620Y744665D02*
X10795Y751840D01*
X3620Y744665D02*
X-13970Y744665D01*
X10795Y751840D02*
X10900Y752000D01*
X-67310Y700405D02*
X-67310Y698500D01*
X-66993Y700723D02*
X-34290Y733425D01*
X-66993Y700723D02*
X-67310Y700405D01*
X-34290Y733425D02*
X-32364Y733425D01*
X-67310Y698500D02*
X-67700Y698250D01*
X-32364Y733425D02*
X-23400Y723050D01*
X-21773Y738505D02*
X-13970Y738505D01*
X-13653Y738823D01*
X-21773Y738505D02*
X-23400Y723050D01*
X-46355Y762000D02*
X-44450Y763905D01*
X-46355Y762000D02*
X-46990Y762000D01*
X-44450Y763905D02*
X-44100Y764500D01*
X-67310Y701040D02*
X-81280Y701040D01*
X-67310Y701040D02*
X-66993Y700723D01*
X57150Y696595D02*
X80645Y696595D01*
X91440Y707390D01*
X113665Y707390D02*
X132715Y707390D01*
X113665Y707390D02*
X91440Y707390D01*
X132715Y707390D02*
X146050Y694055D01*
X57150Y696595D02*
X57100Y696250D01*
X146050Y694055D02*
X146600Y693900D01*
X5715Y820420D02*
X5715Y824865D01*
X5715Y820420D02*
X5715Y817245D01*
X5900Y817000D01*
X5715Y824865D02*
X6000Y825050D01*
X-53340Y812165D02*
X-54610Y812165D01*
X-53340Y812165D02*
X-49530Y812165D01*
X-54610Y812165D02*
X-59690Y817245D01*
X-49530Y812165D02*
X-49100Y812000D01*
X-59690Y817245D02*
X-59800Y817400D01*
X3175Y820420D02*
X5715Y820420D01*
X124460Y765175D02*
X128270Y765175D01*
X124460Y765175D02*
X121920Y767715D01*
X128270Y765175D02*
X128550Y764770D01*
X113665Y738505D02*
X113665Y707390D01*
X12700Y751840D02*
X11430Y751840D01*
X12700Y751840D02*
X14605Y749935D01*
X28575Y749935D01*
X46355Y767715D01*
X11430Y751840D02*
X10900Y752000D01*
X46355Y899795D02*
X43815Y902335D01*
X46355Y899795D02*
X46300Y898600D01*
D47*
X-223520Y709295D03*
X-235585Y697230D03*
X-176530Y701040D03*
X-46990Y762000D03*
X-81280Y701040D03*
X3175Y820420D03*
X-53340Y812165D03*
X121920Y767715D03*
X113665Y738505D03*
X46355Y767715D03*
X43815Y902335D03*
X-13970Y747788D03*
D46*
X-13970Y751870D01*
X-14100Y752000D01*
X88000Y970545D02*
X71755Y986790D01*
X88000Y970545D02*
X88000Y962000D01*
X93000Y957000D01*
X109910Y957000D01*
X112395Y959485D01*
X-64047Y764147D02*
X-58300Y758400D01*
X-64047Y764147D02*
X-79768Y764147D01*
X-80645Y763270D01*
X-42545Y756920D02*
X-36830Y756920D01*
X-42545Y756920D02*
X-44450Y755015D01*
X-50165Y755015D01*
X-62230Y742950D01*
X-36830Y756920D02*
X-36600Y757000D01*
X-62230Y742950D02*
X-62800Y742400D01*
X16510Y781685D02*
X22225Y781685D01*
X16510Y781685D02*
X15900Y782000D01*
X22225Y781685D02*
X22450Y781600D01*
X-95885Y924560D02*
X-95885Y928370D01*
X-64135Y960120D01*
X-18415Y960120D01*
X-10160Y968375D01*
X-7620Y968375D01*
X-95885Y924560D02*
X-96000Y924350D01*
X-7620Y968375D02*
X-7279Y968478D01*
X-262255Y739140D02*
X-268605Y739140D01*
X-258763Y735648D02*
X-258445Y735330D01*
X-258763Y735648D02*
X-262255Y739140D01*
X-258445Y735330D02*
X-258445Y716915D01*
X-248920Y707390D01*
X-248920Y702945D01*
X-268605Y739140D02*
X-269200Y739400D01*
X-248920Y702945D02*
X-248600Y702500D01*
X-43815Y742950D02*
X-43815Y744855D01*
X-43815Y751840D01*
X-44100Y752000D01*
X-43815Y742950D02*
X-44400Y742700D01*
X-67945Y899160D02*
X-64770Y902335D01*
X-64135Y902335D01*
X-50800Y915670D02*
X-50800Y921385D01*
X-48260Y923925D01*
X-67945Y899160D02*
X-68400Y899050D01*
X-48260Y923925D02*
X-48000Y924350D01*
X-12700Y930275D02*
X-6985Y930275D01*
X-12700Y930275D02*
X-25400Y942975D01*
X-44450Y942975D01*
X-49530Y937895D01*
X-49530Y925830D01*
X-48260Y924560D01*
X-6985Y930275D02*
X-6803Y930046D01*
X-48000Y924350D02*
X-48260Y924560D01*
X-43815Y744855D02*
X-55245Y744855D01*
X-78105Y744855D02*
X-78105Y760730D01*
X-43815Y744855D02*
X-44400Y742700D01*
X-257175Y735965D02*
X-258445Y735965D01*
X-257175Y735965D02*
X-254635Y738505D01*
X-214630Y738505D01*
X-207010Y746125D01*
X-258445Y735965D02*
X-258763Y735648D01*
X-95885Y919480D02*
X-95885Y923925D01*
X-95885Y919480D02*
X-86995Y910590D01*
X-95885Y923925D02*
X-96000Y924350D01*
D47*
X-64135Y902335D03*
X-50800Y915670D03*
X-55245Y744855D03*
X-78105Y744855D03*
X-78105Y760730D03*
X-207010Y746125D03*
X-86995Y910590D03*
D46*
X11430Y804545D02*
X13970Y804545D01*
X14605Y805180D01*
X29845Y805180D01*
X11430Y804545D02*
X10900Y804500D01*
X29845Y805180D02*
X29950Y805400D01*
X34925Y795020D02*
X11430Y795020D01*
X34925Y795020D02*
X71755Y831850D01*
X71755Y848995D01*
X11430Y795020D02*
X10900Y794500D01*
X71755Y848995D02*
X71900Y849120D01*
X86360Y860425D02*
X90805Y860425D01*
X86360Y860425D02*
X75565Y849630D01*
X72390Y849630D01*
X90805Y860425D02*
X90900Y860550D01*
X72390Y849630D02*
X71900Y849120D01*
X100330Y871855D02*
X106680Y871855D01*
X108585Y869950D01*
X100330Y871855D02*
X100100Y872250D01*
X108585Y869950D02*
X109100Y869450D01*
X109220Y869315D02*
X122555Y869315D01*
X123190Y868680D01*
X109220Y869315D02*
X109100Y869450D01*
X123190Y868680D02*
X123400Y868500D01*
X96520Y869950D02*
X72390Y869950D01*
X96520Y869950D02*
X98425Y871855D01*
X99695Y871855D01*
X72390Y869950D02*
X71900Y869680D01*
X99695Y871855D02*
X100100Y872250D01*
X-36195Y814705D02*
X-36195Y812165D01*
X-36195Y814705D02*
X-27305Y823595D01*
X-36195Y812165D02*
X-36600Y812000D01*
X-27305Y823595D02*
X-27100Y824150D01*
X-40640Y835660D02*
X-40640Y836930D01*
X-40640Y835660D02*
X-45085Y831215D01*
X-45085Y823595D01*
X-36195Y814705D01*
X-40640Y836930D02*
X-40100Y837400D01*
X16510Y801370D02*
X27305Y801370D01*
X27940Y800735D01*
X36830Y800735D01*
X50165Y814070D01*
X50165Y850900D01*
X43815Y857250D01*
X-635Y857250D01*
X-9525Y848360D01*
X-10795Y848360D01*
X15900Y802000D02*
X16510Y801370D01*
X-11100Y847950D02*
X-10795Y848360D01*
X-15240Y843915D02*
X-26035Y843915D01*
X-15240Y843915D02*
X-11430Y847725D01*
X-26035Y843915D02*
X-26600Y843300D01*
X-11430Y847725D02*
X-11100Y847950D01*
X-31750Y827405D02*
X-27940Y823595D01*
X-31750Y827405D02*
X-31750Y838200D01*
X-26670Y843280D01*
X-27100Y824150D02*
X-27940Y823595D01*
X-26670Y843280D02*
X-26600Y843300D01*
X16510Y812165D02*
X26035Y812165D01*
X31750Y817880D01*
X16510Y812165D02*
X15900Y812000D01*
X31750Y817880D02*
X31850Y817900D01*
X29210Y821055D02*
X29210Y834390D01*
X29210Y821055D02*
X31750Y818515D01*
X29210Y834390D02*
X28650Y834450D01*
X31750Y818515D02*
X31850Y817900D01*
X11430Y817245D02*
X11430Y836295D01*
X11430Y843915D02*
X11430Y845185D01*
X13970Y847725D01*
X11430Y817245D02*
X10900Y817000D01*
X13970Y847725D02*
X14100Y848350D01*
X40005Y846455D02*
X42545Y846455D01*
X40005Y846455D02*
X34290Y852170D01*
X19685Y852170D01*
X15875Y848360D01*
X14605Y848360D01*
X42545Y846455D02*
X43150Y845950D01*
X14605Y848360D02*
X14100Y848350D01*
D47*
X11430Y836295D03*
X11430Y843915D03*
D46*
X-45720Y810260D02*
X-48895Y807085D01*
X-45720Y810260D02*
X-45720Y814705D01*
X-62865Y831850D01*
X-49100Y807000D02*
X-48895Y807085D01*
X-62865Y831850D02*
X-62950Y832400D01*
X-44450Y803910D02*
X-86360Y803910D01*
X-88900Y806450D01*
X-44450Y803910D02*
X-44100Y804500D01*
X-88900Y806450D02*
X-89500Y806600D01*
X-97155Y814705D02*
X-110490Y814705D01*
X-97155Y814705D02*
X-89535Y807085D01*
X-110490Y814705D02*
X-110850Y815100D01*
X-89535Y807085D02*
X-89500Y806600D01*
X-70485Y800100D02*
X-44450Y800100D01*
X-70485Y800100D02*
X-88900Y781685D01*
X-44450Y800100D02*
X-44100Y799500D01*
X-88900Y781685D02*
X-89500Y781600D01*
X-93345Y777240D02*
X-111125Y777240D01*
X-93345Y777240D02*
X-89535Y781050D01*
X-111125Y777240D02*
X-111350Y777100D01*
X-89535Y781050D02*
X-89500Y781600D01*
X-41910Y812165D02*
X-41910Y816610D01*
X-55880Y830580D01*
X-55880Y843280D01*
X-41910Y812165D02*
X-41600Y812000D01*
X-55880Y843280D02*
X-56100Y843900D01*
X-3810Y830580D02*
X-3810Y817245D01*
X-3810Y830580D02*
X-3175Y831215D01*
X-3810Y817245D02*
X-4100Y817000D01*
X-3175Y831215D02*
X-3100Y831350D01*
X-47625Y853440D02*
X-55880Y853440D01*
X-47625Y853440D02*
X-34925Y840740D01*
X-34925Y832485D01*
X-40005Y827405D01*
X-55880Y853440D02*
X-56100Y853900D01*
X-40100Y827400D02*
X-40005Y827405D01*
X-198755Y690245D02*
X-203200Y690245D01*
X-198755Y690245D02*
X-198120Y689610D01*
X-191135Y689610D01*
X-190500Y690245D01*
X-203200Y690245D02*
X-203500Y690750D01*
X-190500Y690245D02*
X-190100Y690750D01*
X-38735Y746760D02*
X-38735Y751840D01*
X-38735Y746760D02*
X-38100Y746125D01*
X-62865Y734060D02*
X-67310Y738505D01*
X-67310Y746125D01*
X-60960Y752475D01*
X-13335Y953135D02*
X-7620Y958850D01*
X-39100Y752000D02*
X-38735Y751840D01*
X-7620Y958850D02*
X-7279Y958978D01*
D47*
X-38100Y746125D03*
X-62865Y734060D03*
X-60960Y752475D03*
X-13335Y953135D03*
D46*
X-74295Y923925D02*
X-74295Y918845D01*
X-71755Y916305D01*
X-67310Y916305D01*
X-64770Y918845D01*
X-64770Y923925D01*
X-74295Y923925D02*
X-74500Y924350D01*
X-64770Y923925D02*
X-64500Y924350D01*
X8255Y958850D02*
X17145Y958850D01*
X8255Y958850D02*
X-5080Y945515D01*
X-48895Y945515D01*
X-64135Y930275D01*
X-64135Y924560D01*
X17145Y958850D02*
X17721Y958978D01*
X-64135Y924560D02*
X-64500Y924350D01*
X-79375Y924560D02*
X-79375Y929640D01*
X-76835Y932180D01*
X-71755Y932180D01*
X-70168Y930593D02*
X-69850Y930275D01*
X-70168Y930593D02*
X-71755Y932180D01*
X-69850Y930275D02*
X-69850Y924560D01*
X-79375Y924560D02*
X-79500Y924350D01*
X-69850Y924560D02*
X-69500Y924350D01*
X15240Y977900D02*
X17145Y977900D01*
X15240Y977900D02*
X635Y963295D01*
X635Y955040D01*
X-6350Y948055D01*
X-52705Y948055D01*
X-70168Y930593D01*
X17145Y977900D02*
X17721Y977978D01*
X-57150Y916940D02*
X-57150Y912495D01*
X-57150Y916940D02*
X-59055Y918845D01*
X-59055Y923925D01*
X-57150Y912495D02*
X-57100Y912250D01*
X-59055Y923925D02*
X-59500Y924350D01*
X-62865Y912495D02*
X-83185Y912495D01*
X-88900Y918210D01*
X-88900Y923925D01*
X-62865Y912495D02*
X-62700Y912250D01*
X-88900Y923925D02*
X-89500Y924350D01*
X42545Y885190D02*
X45720Y888365D01*
X42545Y885190D02*
X40005Y885190D01*
X30020Y895175D01*
X30020Y910130D01*
X34144Y914254D01*
X45720Y888365D02*
X46300Y888600D01*
X34144Y914254D02*
X35400Y917900D01*
X32560Y897715D02*
X41275Y889000D01*
X42275Y970225D02*
X41800Y970700D01*
X41275Y889000D02*
X41300Y888600D01*
X42275Y914459D02*
X42275Y970225D01*
X42275Y914459D02*
X32560Y904744D01*
X32560Y897715D01*
X39000Y900900D02*
X41300Y898600D01*
X39000Y900900D02*
X39000Y904000D01*
X45000Y910000D01*
X50000Y910000D01*
D47*
X50000Y910000D03*
X46000Y922000D03*
D46*
X46000Y952200D01*
X65700Y971900D01*
X-247650Y958215D02*
X-247650Y941070D01*
X-247968Y940753D02*
X-264160Y924560D01*
X-247968Y940753D02*
X-247650Y941070D01*
X-247650Y958215D02*
X-247400Y958600D01*
X-264160Y924560D02*
X-264660Y924300D01*
X-167640Y828675D02*
X-156210Y840105D01*
X-167895Y814625D02*
X-177975Y804545D01*
X-183515Y804545D01*
X-156210Y840105D02*
X-155950Y840600D01*
X-183515Y804545D02*
X-183950Y804300D01*
X-184150Y803910D02*
X-184150Y799465D01*
X-183950Y799300D01*
X-184150Y803910D02*
X-183950Y804300D01*
X-206375Y905510D02*
X-206375Y920750D01*
X-206800Y921100D01*
X-241300Y940435D02*
X-247650Y940435D01*
X-247968Y940753D01*
D47*
X-167640Y828675D03*
X-167895Y814625D03*
X-206375Y905510D03*
X-241300Y940435D03*
D46*
X-173990Y871220D02*
X-161925Y871220D01*
X-173990Y871220D02*
X-180340Y864870D01*
X-183515Y864870D01*
X-161925Y871220D02*
X-161900Y871400D01*
X-183515Y864870D02*
X-183950Y864300D01*
X-182245Y857885D02*
X-158115Y857885D01*
X-182245Y857885D02*
X-183515Y859155D01*
X-158115Y857885D02*
X-158000Y857400D01*
X-183515Y859155D02*
X-183950Y859300D01*
X-183515Y789305D02*
X-163975Y789305D01*
X-183515Y789305D02*
X-183950Y789300D01*
X-135105Y818175D02*
X-135105Y834215D01*
X-135105Y818175D02*
X-163975Y789305D01*
X-183515Y784860D02*
X-183950Y784300D01*
X-183515Y784860D02*
X-157940Y784860D01*
X-157200Y785600D01*
X-172085Y776605D02*
X-142240Y776605D01*
X-172085Y776605D02*
X-174625Y779145D01*
X-183515Y779145D01*
X-142240Y776605D02*
X-142192Y776330D01*
X-183515Y779145D02*
X-183950Y779300D01*
X-182880Y775335D02*
X-175895Y775335D01*
X-182880Y775335D02*
X-183515Y774700D01*
X-183950Y774300D01*
X-189230Y949960D02*
X-189230Y974725D01*
X-189700Y974800D01*
D47*
X-175895Y775335D03*
X-189230Y949960D03*
X-154184Y794264D03*
D46*
X-146945Y795655D02*
X-146000Y796600D01*
X-146945Y795655D02*
X-152793Y795655D01*
X-154184Y794264D01*
X-167005Y767715D02*
X-182245Y767715D01*
X-183515Y768985D01*
X-167005Y767715D02*
X-166400Y767600D01*
X-183515Y768985D02*
X-183950Y769300D01*
X-173355Y756920D02*
X-168275Y756920D01*
X-173355Y756920D02*
X-180340Y763905D01*
X-183515Y763905D01*
X-168275Y756920D02*
X-167800Y756600D01*
X-183515Y763905D02*
X-183950Y764300D01*
X-140335Y943610D02*
X-140335Y971550D01*
X-162560Y762000D02*
X-167640Y756920D01*
X-140335Y971550D02*
X-139900Y971700D01*
X-167640Y756920D02*
X-167800Y756600D01*
D47*
X-140335Y943610D03*
X-162560Y762000D03*
D46*
X-185420Y757555D02*
X-185420Y745490D01*
X-185420Y757555D02*
X-184150Y758825D01*
X-185420Y745490D02*
X-185800Y745400D01*
X-184150Y758825D02*
X-183950Y759300D01*
X-205740Y937260D02*
X-205740Y946150D01*
X-206058Y936943D02*
X-218440Y924560D01*
X-206058Y936943D02*
X-205740Y937260D01*
X-205740Y946150D02*
X-205300Y946600D01*
X-218440Y924560D02*
X-218940Y924300D01*
X-143510Y902970D02*
X-139065Y902970D01*
X-143510Y902970D02*
X-165100Y924560D01*
X-193675Y924560D01*
X-206058Y936943D01*
X-139065Y902970D02*
X-139000Y902500D01*
X-224155Y965200D02*
X-224155Y974725D01*
X-224155Y965200D02*
X-205740Y946785D01*
X-224155Y974725D02*
X-224700Y974800D01*
X-205740Y946785D02*
X-205300Y946600D01*
X-194945Y946150D02*
X-178435Y946150D01*
X-178118Y945833D02*
X-168910Y936625D01*
X-178118Y945833D02*
X-178435Y946150D01*
X-194945Y946150D02*
X-195300Y946600D01*
X-168910Y936625D02*
X-168500Y936300D01*
X-175260Y948690D02*
X-175260Y971550D01*
X-175260Y948690D02*
X-178118Y945833D01*
X-175260Y971550D02*
X-174900Y971700D01*
X-172085Y908685D02*
X-160020Y908685D01*
X-172085Y908685D02*
X-172100Y908750D01*
X-160020Y908685D02*
X-160000Y909000D01*
X-183515Y896620D02*
X-183515Y874395D01*
X-183515Y896620D02*
X-172085Y908050D01*
X-183515Y874395D02*
X-183950Y874300D01*
X-172085Y908050D02*
X-172100Y908750D01*
X-104775Y875030D02*
X-101600Y878205D01*
X-104775Y875030D02*
X-138430Y875030D01*
X-156528Y893128D02*
X-159385Y895985D01*
X-156528Y893128D02*
X-138430Y875030D01*
X-101600Y878205D02*
X-101300Y878750D01*
X-159385Y895985D02*
X-160000Y896000D01*
X-180340Y869315D02*
X-183515Y869315D01*
X-180340Y869315D02*
X-156528Y893128D01*
X-183515Y869315D02*
X-183950Y869300D01*
X-103505Y884555D02*
X-101600Y884555D01*
X-103505Y884555D02*
X-106680Y884555D01*
X-106900Y884250D01*
X-101600Y884555D02*
X-101300Y884250D01*
X-103505Y884555D02*
X-103505Y898525D01*
X-103480Y898700D01*
M02*
