G04 EAGLE Gerber RS-274X export*
G75*
%MOMM*%
%FSLAX34Y34*%
%LPD*%
%IN*%
%IPPOS*%
%AMOC8*
5,1,8,0,0,1.08239X$1,22.5*%
G01*
G04 Define Apertures*
%ADD10C,0.254000*%
D10*
X-288500Y711900D02*
X-288234Y705799D01*
X-287437Y699745D01*
X-286115Y693783D01*
X-284278Y687959D01*
X-281942Y682317D01*
X-279122Y676900D01*
X-275841Y671750D01*
X-272123Y666905D01*
X-267997Y662403D01*
X-263495Y658277D01*
X-258650Y654559D01*
X-253500Y651278D01*
X-248083Y648458D01*
X-242441Y646122D01*
X-236617Y644285D01*
X-230655Y642963D01*
X-224601Y642166D01*
X-218500Y641900D01*
X-192500Y641900D01*
X-192500Y659900D01*
X-144500Y659900D01*
X-144500Y641900D01*
X-82500Y641900D01*
X-82500Y659900D01*
X-34500Y659900D01*
X-34500Y641900D01*
X27500Y641900D01*
X27500Y659900D01*
X75500Y659900D01*
X75500Y641900D01*
X101500Y641900D01*
X107601Y642166D01*
X113655Y642963D01*
X119617Y644285D01*
X125441Y646122D01*
X131083Y648458D01*
X136500Y651278D01*
X141650Y654559D01*
X146495Y658277D01*
X150997Y662403D01*
X155123Y666905D01*
X158841Y671750D01*
X162122Y676900D01*
X164942Y682317D01*
X167278Y687959D01*
X169115Y693783D01*
X170437Y699745D01*
X171234Y705799D01*
X171500Y711900D01*
X171500Y921900D01*
X171234Y928001D01*
X170437Y934055D01*
X169115Y940017D01*
X167278Y945841D01*
X164942Y951483D01*
X162122Y956900D01*
X158841Y962050D01*
X155123Y966895D01*
X150997Y971397D01*
X146495Y975523D01*
X141650Y979241D01*
X136500Y982522D01*
X131083Y985342D01*
X125441Y987678D01*
X119617Y989515D01*
X113655Y990837D01*
X107601Y991634D01*
X101500Y991900D01*
X-218500Y991900D01*
X-224601Y991634D01*
X-230655Y990837D01*
X-236617Y989515D01*
X-242441Y987678D01*
X-248083Y985342D01*
X-253500Y982522D01*
X-258650Y979241D01*
X-263495Y975523D01*
X-267997Y971397D01*
X-272123Y966895D01*
X-275841Y962050D01*
X-279122Y956900D01*
X-281942Y951483D01*
X-284278Y945841D01*
X-286115Y940017D01*
X-287437Y934055D01*
X-288234Y928001D01*
X-288500Y921900D01*
X-288500Y885900D01*
X-218500Y885900D01*
X-218500Y747900D01*
X-288500Y747900D01*
X-288500Y711900D01*
X-118450Y924600D02*
X-118438Y924317D01*
X-118401Y924036D01*
X-118339Y923759D01*
X-118254Y923488D01*
X-118146Y923227D01*
X-118015Y922975D01*
X-117862Y922736D01*
X-117690Y922511D01*
X-117498Y922302D01*
X-117289Y922110D01*
X-117064Y921938D01*
X-116825Y921785D01*
X-116574Y921655D01*
X-116312Y921546D01*
X-116041Y921461D01*
X-115764Y921399D01*
X-115483Y921362D01*
X-115200Y921350D01*
X-114917Y921362D01*
X-114636Y921399D01*
X-114359Y921461D01*
X-114088Y921546D01*
X-113827Y921655D01*
X-113575Y921785D01*
X-113336Y921938D01*
X-113111Y922110D01*
X-112902Y922302D01*
X-112710Y922511D01*
X-112538Y922736D01*
X-112385Y922975D01*
X-112255Y923227D01*
X-112146Y923488D01*
X-112061Y923759D01*
X-111999Y924036D01*
X-111962Y924317D01*
X-111950Y924600D01*
X-111950Y935600D01*
X-111962Y935883D01*
X-111999Y936164D01*
X-112061Y936441D01*
X-112146Y936712D01*
X-112255Y936974D01*
X-112385Y937225D01*
X-112538Y937464D01*
X-112710Y937689D01*
X-112902Y937898D01*
X-113111Y938090D01*
X-113336Y938262D01*
X-113575Y938415D01*
X-113827Y938546D01*
X-114088Y938654D01*
X-114359Y938739D01*
X-114636Y938801D01*
X-114917Y938838D01*
X-115200Y938850D01*
X-115483Y938838D01*
X-115764Y938801D01*
X-116041Y938739D01*
X-116312Y938654D01*
X-116574Y938546D01*
X-116825Y938415D01*
X-117064Y938262D01*
X-117289Y938090D01*
X-117498Y937898D01*
X-117690Y937689D01*
X-117862Y937464D01*
X-118015Y937225D01*
X-118146Y936974D01*
X-118254Y936712D01*
X-118339Y936441D01*
X-118401Y936164D01*
X-118438Y935883D01*
X-118450Y935600D01*
X-118450Y924600D01*
X-32050Y924600D02*
X-32038Y924317D01*
X-32001Y924036D01*
X-31939Y923759D01*
X-31854Y923488D01*
X-31746Y923227D01*
X-31615Y922975D01*
X-31462Y922736D01*
X-31290Y922511D01*
X-31098Y922302D01*
X-30889Y922110D01*
X-30664Y921938D01*
X-30425Y921785D01*
X-30174Y921655D01*
X-29912Y921546D01*
X-29641Y921461D01*
X-29364Y921399D01*
X-29083Y921362D01*
X-28800Y921350D01*
X-28517Y921362D01*
X-28236Y921399D01*
X-27959Y921461D01*
X-27688Y921546D01*
X-27427Y921655D01*
X-27175Y921785D01*
X-26936Y921938D01*
X-26711Y922110D01*
X-26502Y922302D01*
X-26310Y922511D01*
X-26138Y922736D01*
X-25985Y922975D01*
X-25855Y923227D01*
X-25746Y923488D01*
X-25661Y923759D01*
X-25599Y924036D01*
X-25562Y924317D01*
X-25550Y924600D01*
X-25550Y935600D01*
X-25562Y935883D01*
X-25599Y936164D01*
X-25661Y936441D01*
X-25746Y936712D01*
X-25855Y936974D01*
X-25985Y937225D01*
X-26138Y937464D01*
X-26310Y937689D01*
X-26502Y937898D01*
X-26711Y938090D01*
X-26936Y938262D01*
X-27175Y938415D01*
X-27427Y938546D01*
X-27688Y938654D01*
X-27959Y938739D01*
X-28236Y938801D01*
X-28517Y938838D01*
X-28800Y938850D01*
X-29083Y938838D01*
X-29364Y938801D01*
X-29641Y938739D01*
X-29912Y938654D01*
X-30174Y938546D01*
X-30425Y938415D01*
X-30664Y938262D01*
X-30889Y938090D01*
X-31098Y937898D01*
X-31290Y937689D01*
X-31462Y937464D01*
X-31615Y937225D01*
X-31746Y936974D01*
X-31854Y936712D01*
X-31939Y936441D01*
X-32001Y936164D01*
X-32038Y935883D01*
X-32050Y935600D01*
X-32050Y924600D01*
X-118450Y967600D02*
X-118438Y967317D01*
X-118401Y967036D01*
X-118339Y966759D01*
X-118254Y966488D01*
X-118146Y966227D01*
X-118015Y965975D01*
X-117862Y965736D01*
X-117690Y965511D01*
X-117498Y965302D01*
X-117289Y965110D01*
X-117064Y964938D01*
X-116825Y964785D01*
X-116574Y964655D01*
X-116312Y964546D01*
X-116041Y964461D01*
X-115764Y964399D01*
X-115483Y964362D01*
X-115200Y964350D01*
X-114917Y964362D01*
X-114636Y964399D01*
X-114359Y964461D01*
X-114088Y964546D01*
X-113827Y964655D01*
X-113575Y964785D01*
X-113336Y964938D01*
X-113111Y965110D01*
X-112902Y965302D01*
X-112710Y965511D01*
X-112538Y965736D01*
X-112385Y965975D01*
X-112255Y966227D01*
X-112146Y966488D01*
X-112061Y966759D01*
X-111999Y967036D01*
X-111962Y967317D01*
X-111950Y967600D01*
X-111950Y975600D01*
X-111962Y975883D01*
X-111999Y976164D01*
X-112061Y976441D01*
X-112146Y976712D01*
X-112255Y976974D01*
X-112385Y977225D01*
X-112538Y977464D01*
X-112710Y977689D01*
X-112902Y977898D01*
X-113111Y978090D01*
X-113336Y978262D01*
X-113575Y978415D01*
X-113827Y978546D01*
X-114088Y978654D01*
X-114359Y978739D01*
X-114636Y978801D01*
X-114917Y978838D01*
X-115200Y978850D01*
X-115483Y978838D01*
X-115764Y978801D01*
X-116041Y978739D01*
X-116312Y978654D01*
X-116574Y978546D01*
X-116825Y978415D01*
X-117064Y978262D01*
X-117289Y978090D01*
X-117498Y977898D01*
X-117690Y977689D01*
X-117862Y977464D01*
X-118015Y977225D01*
X-118146Y976974D01*
X-118254Y976712D01*
X-118339Y976441D01*
X-118401Y976164D01*
X-118438Y975883D01*
X-118450Y975600D01*
X-118450Y967600D01*
X-32050Y967600D02*
X-32038Y967317D01*
X-32001Y967036D01*
X-31939Y966759D01*
X-31854Y966488D01*
X-31746Y966227D01*
X-31615Y965975D01*
X-31462Y965736D01*
X-31290Y965511D01*
X-31098Y965302D01*
X-30889Y965110D01*
X-30664Y964938D01*
X-30425Y964785D01*
X-30174Y964655D01*
X-29912Y964546D01*
X-29641Y964461D01*
X-29364Y964399D01*
X-29083Y964362D01*
X-28800Y964350D01*
X-28517Y964362D01*
X-28236Y964399D01*
X-27959Y964461D01*
X-27688Y964546D01*
X-27427Y964655D01*
X-27175Y964785D01*
X-26936Y964938D01*
X-26711Y965110D01*
X-26502Y965302D01*
X-26310Y965511D01*
X-26138Y965736D01*
X-25985Y965975D01*
X-25855Y966227D01*
X-25746Y966488D01*
X-25661Y966759D01*
X-25599Y967036D01*
X-25562Y967317D01*
X-25550Y967600D01*
X-25550Y975600D01*
X-25562Y975883D01*
X-25599Y976164D01*
X-25661Y976441D01*
X-25746Y976712D01*
X-25855Y976974D01*
X-25985Y977225D01*
X-26138Y977464D01*
X-26310Y977689D01*
X-26502Y977898D01*
X-26711Y978090D01*
X-26936Y978262D01*
X-27175Y978415D01*
X-27427Y978546D01*
X-27688Y978654D01*
X-27959Y978739D01*
X-28236Y978801D01*
X-28517Y978838D01*
X-28800Y978850D01*
X-29083Y978838D01*
X-29364Y978801D01*
X-29641Y978739D01*
X-29912Y978654D01*
X-30174Y978546D01*
X-30425Y978415D01*
X-30664Y978262D01*
X-30889Y978090D01*
X-31098Y977898D01*
X-31290Y977689D01*
X-31462Y977464D01*
X-31615Y977225D01*
X-31746Y976974D01*
X-31854Y976712D01*
X-31939Y976441D01*
X-32001Y976164D01*
X-32038Y975883D01*
X-32050Y975600D01*
X-32050Y967600D01*
M02*
