G04 EAGLE Gerber RS-274X export*
G75*
%MOMM*%
%FSLAX34Y34*%
%LPD*%
%INSoldermask Top*%
%IPPOS*%
%AMOC8*
5,1,8,0,0,1.08239X$1,22.5*%
G01*
G04 Define Apertures*
%ADD10R,1.353200X2.003200*%
%ADD11R,0.483200X0.633200*%
%ADD12R,0.803200X0.703200*%
%ADD13R,0.633200X0.483200*%
%ADD14R,0.703200X0.803200*%
%ADD15R,0.903200X0.803200*%
%ADD16R,1.403200X0.803200*%
%ADD17R,1.353200X1.003200*%
%ADD18C,0.403200*%
%ADD19R,0.503200X0.553200*%
%ADD20R,0.553200X0.503200*%
%ADD21C,0.453200*%
%ADD22C,0.419200*%
%ADD23C,0.986200*%
%ADD24C,2.654200*%
%ADD25C,1.270200*%
%ADD26R,0.503200X1.353200*%
%ADD27C,0.903200*%
%ADD28R,0.803200X1.353200*%
%ADD29C,1.373200*%
%ADD30R,0.903200X0.503200*%
%ADD31R,1.203200X0.503200*%
%ADD32R,2.403200X1.403200*%
%ADD33R,1.103200X5.503200*%
%ADD34R,1.103200X1.003200*%
%ADD35R,1.253200X0.703200*%
%ADD36R,0.553200X0.453200*%
%ADD37R,0.453200X0.553200*%
%ADD38R,0.152400X1.828800*%
%ADD39R,1.371600X1.803400*%
%ADD40R,0.914400X1.295400*%
%ADD41R,1.270000X1.270000*%
%ADD42R,1.600200X1.295400*%
%ADD43C,2.203200*%
%ADD44R,5.053200X5.053200*%
%ADD45C,0.269722*%
%ADD46R,1.103200X1.503200*%
%ADD47R,1.153200X1.053200*%
%ADD48R,2.003200X1.203200*%
%ADD49C,0.505600*%
G36*
X-116429Y941779D02*
X-115200Y941900D01*
X-113971Y941779D01*
X-112789Y941421D01*
X-111700Y940838D01*
X-110745Y940055D01*
X-109962Y939100D01*
X-109379Y938011D01*
X-109021Y936829D01*
X-108900Y935602D01*
X-108900Y924598D01*
X-109021Y923371D01*
X-109379Y922189D01*
X-109962Y921100D01*
X-110745Y920145D01*
X-111700Y919362D01*
X-112789Y918779D01*
X-113971Y918421D01*
X-115200Y918300D01*
X-116429Y918421D01*
X-117611Y918779D01*
X-118700Y919362D01*
X-119655Y920145D01*
X-120438Y921100D01*
X-121021Y922189D01*
X-121379Y923371D01*
X-121500Y924598D01*
X-121500Y935602D01*
X-121379Y936829D01*
X-121021Y938011D01*
X-120438Y939100D01*
X-119655Y940055D01*
X-118700Y940838D01*
X-117611Y941421D01*
X-116429Y941779D01*
G37*
G36*
X-30029Y941779D02*
X-28800Y941900D01*
X-27571Y941779D01*
X-26389Y941421D01*
X-25300Y940838D01*
X-24345Y940055D01*
X-23562Y939100D01*
X-22979Y938011D01*
X-22621Y936829D01*
X-22500Y935602D01*
X-22500Y924598D01*
X-22621Y923371D01*
X-22979Y922189D01*
X-23562Y921100D01*
X-24345Y920145D01*
X-25300Y919362D01*
X-26389Y918779D01*
X-27571Y918421D01*
X-28800Y918300D01*
X-30029Y918421D01*
X-31211Y918779D01*
X-32300Y919362D01*
X-33255Y920145D01*
X-34038Y921100D01*
X-34621Y922189D01*
X-34979Y923371D01*
X-35100Y924598D01*
X-35100Y935602D01*
X-34979Y936829D01*
X-34621Y938011D01*
X-34038Y939100D01*
X-33255Y940055D01*
X-32300Y940838D01*
X-31211Y941421D01*
X-30029Y941779D01*
G37*
G36*
X-116429Y981779D02*
X-115200Y981900D01*
X-113971Y981779D01*
X-112789Y981421D01*
X-111700Y980838D01*
X-110745Y980055D01*
X-109962Y979100D01*
X-109379Y978011D01*
X-109021Y976829D01*
X-108900Y975602D01*
X-108900Y967598D01*
X-109021Y966371D01*
X-109379Y965189D01*
X-109962Y964100D01*
X-110745Y963145D01*
X-111700Y962362D01*
X-112789Y961779D01*
X-113971Y961421D01*
X-115200Y961300D01*
X-116429Y961421D01*
X-117611Y961779D01*
X-118700Y962362D01*
X-119655Y963145D01*
X-120438Y964100D01*
X-121021Y965189D01*
X-121379Y966371D01*
X-121500Y967598D01*
X-121500Y975602D01*
X-121379Y976829D01*
X-121021Y978011D01*
X-120438Y979100D01*
X-119655Y980055D01*
X-118700Y980838D01*
X-117611Y981421D01*
X-116429Y981779D01*
G37*
G36*
X-30029Y981779D02*
X-28800Y981900D01*
X-27571Y981779D01*
X-26389Y981421D01*
X-25300Y980838D01*
X-24345Y980055D01*
X-23562Y979100D01*
X-22979Y978011D01*
X-22621Y976829D01*
X-22500Y975602D01*
X-22500Y967598D01*
X-22621Y966371D01*
X-22979Y965189D01*
X-23562Y964100D01*
X-24345Y963145D01*
X-25300Y962362D01*
X-26389Y961779D01*
X-27571Y961421D01*
X-28800Y961300D01*
X-30029Y961421D01*
X-31211Y961779D01*
X-32300Y962362D01*
X-33255Y963145D01*
X-34038Y964100D01*
X-34621Y965189D01*
X-34979Y966371D01*
X-35100Y967598D01*
X-35100Y975602D01*
X-34979Y976829D01*
X-34621Y978011D01*
X-34038Y979100D01*
X-33255Y980055D01*
X-32300Y980838D01*
X-31211Y981421D01*
X-30029Y981779D01*
G37*
G36*
X-190537Y656838D02*
X-190537Y663696D01*
X-178853Y663696D01*
X-178853Y656838D01*
X-190537Y656838D01*
G37*
G36*
X-155867Y656838D02*
X-155867Y663696D01*
X-144183Y663696D01*
X-144183Y656838D01*
X-155867Y656838D01*
G37*
G36*
X-81757Y657304D02*
X-81757Y664162D01*
X-70073Y664162D01*
X-70073Y657304D01*
X-81757Y657304D01*
G37*
G36*
X-47087Y657304D02*
X-47087Y664162D01*
X-35403Y664162D01*
X-35403Y657304D01*
X-47087Y657304D01*
G37*
G36*
X28753Y656838D02*
X28753Y663696D01*
X40437Y663696D01*
X40437Y656838D01*
X28753Y656838D01*
G37*
G36*
X63423Y656838D02*
X63423Y663696D01*
X75107Y663696D01*
X75107Y656838D01*
X63423Y656838D01*
G37*
D10*
X123400Y868500D03*
X153400Y868500D03*
D11*
X31850Y817900D03*
X36950Y817900D03*
D12*
X-247400Y958600D03*
X-247400Y968600D03*
D13*
X-27100Y824150D03*
X-27100Y829250D03*
D11*
X29950Y805400D03*
X35050Y805400D03*
D13*
X6000Y825050D03*
X6000Y830150D03*
X-3100Y831350D03*
X-3100Y836450D03*
D14*
X-59800Y817400D03*
X-69800Y817400D03*
D12*
X-26600Y843300D03*
X-26600Y853300D03*
D13*
X-11100Y847950D03*
X-11100Y853050D03*
D11*
X-115950Y815100D03*
X-110850Y815100D03*
X-116450Y777100D03*
X-111350Y777100D03*
D13*
X-136400Y736050D03*
X-136400Y730950D03*
X14100Y848350D03*
X14100Y853450D03*
D14*
X-195300Y946600D03*
X-205300Y946600D03*
X-62800Y742400D03*
X-72800Y742400D03*
D12*
X-44400Y742700D03*
X-44400Y732700D03*
D13*
X109100Y869450D03*
X109100Y864350D03*
D12*
X-212600Y682800D03*
X-212600Y692800D03*
D13*
X-249100Y727050D03*
X-249100Y732150D03*
D14*
X-238900Y676100D03*
X-228900Y676100D03*
D12*
X-6803Y930046D03*
X-6803Y920046D03*
D13*
X-68400Y899050D03*
X-68400Y893950D03*
X90900Y860550D03*
X90900Y865650D03*
D14*
X-236400Y690100D03*
X-226400Y690100D03*
X35400Y917900D03*
X25400Y917900D03*
D13*
X81900Y931350D03*
X81900Y936450D03*
D15*
X-252975Y679644D03*
X-252975Y669644D03*
X-248600Y702500D03*
X-248600Y692500D03*
X-264600Y702300D03*
X-264600Y692300D03*
D13*
X100100Y872250D03*
X100100Y867150D03*
D11*
X-133850Y692900D03*
X-138950Y692900D03*
D12*
X35900Y696800D03*
X35900Y706800D03*
X-55100Y694000D03*
X-55100Y704000D03*
X-152100Y693200D03*
X-152100Y703200D03*
D11*
X-62950Y832400D03*
X-68050Y832400D03*
D14*
X-58300Y758400D03*
X-68300Y758400D03*
D13*
X-9400Y719550D03*
X-9400Y714450D03*
X-23400Y723050D03*
X-23400Y717950D03*
D11*
X22450Y781600D03*
X27550Y781600D03*
D16*
X17721Y958978D03*
X17721Y968478D03*
X17721Y977978D03*
X-7279Y977978D03*
X-7279Y968478D03*
X-7279Y958978D03*
D17*
X-174900Y971700D03*
X-139900Y971700D03*
X-133500Y936300D03*
X-168500Y936300D03*
X-189700Y974800D03*
X-224700Y974800D03*
D11*
X-150850Y840600D03*
X-155950Y840600D03*
D14*
X-125105Y834215D03*
X-135105Y834215D03*
X-147200Y785600D03*
X-157200Y785600D03*
X-132192Y776330D03*
X-142192Y776330D03*
X-136000Y796600D03*
X-146000Y796600D03*
X-156400Y767600D03*
X-166400Y767600D03*
X-157800Y756600D03*
X-167800Y756600D03*
X-175800Y745400D03*
X-185800Y745400D03*
X-151900Y871400D03*
X-161900Y871400D03*
X-148000Y857400D03*
X-158000Y857400D03*
D18*
X-273200Y739400D03*
X-269200Y739400D03*
X-273200Y735400D03*
X-269200Y735400D03*
X-273200Y731400D03*
X-269200Y731400D03*
X-273200Y727400D03*
X-269200Y727400D03*
D19*
X-102700Y753150D03*
X-107700Y753150D03*
X-112700Y753150D03*
X-117700Y753150D03*
D20*
X-117950Y747900D03*
X-117950Y742900D03*
D19*
X-117700Y737650D03*
X-112700Y737650D03*
X-107700Y737650D03*
X-102700Y737650D03*
D20*
X-102450Y742900D03*
X-102450Y747900D03*
D21*
X51300Y888600D03*
X46300Y888600D03*
X41300Y888600D03*
X51300Y893600D03*
X46300Y893600D03*
X41300Y893600D03*
X51300Y898600D03*
X46300Y898600D03*
X41300Y898600D03*
D22*
X-233200Y729400D03*
X-229200Y729400D03*
X-225200Y729400D03*
X-233200Y725400D03*
X-229200Y725400D03*
X-225200Y725400D03*
X-233200Y721400D03*
X-229200Y721400D03*
X-225200Y721400D03*
X-233200Y717400D03*
X-229200Y717400D03*
X-225200Y717400D03*
X-233200Y713400D03*
X-229200Y713400D03*
X-225200Y713400D03*
D23*
X128550Y764770D03*
X115850Y764770D03*
X128550Y777470D03*
X115850Y777470D03*
X128550Y790180D03*
X115850Y790180D03*
D24*
X147600Y752070D03*
D25*
X122200Y752070D03*
D24*
X96800Y752070D03*
X147600Y783820D03*
X96800Y783820D03*
D25*
X132360Y802870D03*
X112040Y802870D03*
D26*
X-69500Y924350D03*
X-64500Y924350D03*
X-59500Y924350D03*
X-54500Y924350D03*
X-74500Y924350D03*
X-79500Y924350D03*
X-84500Y924350D03*
X-89500Y924350D03*
D27*
X-43100Y935100D03*
X-100900Y935100D03*
D28*
X-40000Y924350D03*
X-48000Y924350D03*
X-96000Y924350D03*
X-104000Y924350D03*
D29*
X-28800Y971600D03*
X-115200Y971600D03*
X-28800Y930100D03*
X-115200Y930100D03*
D30*
X-183950Y874300D03*
X-183950Y869300D03*
X-183950Y864300D03*
X-183950Y859300D03*
X-183950Y854300D03*
X-183950Y849300D03*
X-183950Y844300D03*
X-183950Y839300D03*
X-183950Y834300D03*
X-183950Y829300D03*
X-183950Y824300D03*
X-183950Y819300D03*
X-183950Y814300D03*
X-183950Y809300D03*
X-183950Y804300D03*
X-183950Y799300D03*
X-183950Y794300D03*
X-183950Y789300D03*
X-183950Y784300D03*
X-183950Y779300D03*
X-183950Y774300D03*
X-183950Y769300D03*
X-183950Y764300D03*
X-183950Y759300D03*
D31*
X-210450Y882200D03*
X-210450Y751400D03*
D32*
X71900Y849120D03*
X71900Y869680D03*
D12*
X-56100Y843900D03*
X-56100Y853900D03*
X-40100Y827400D03*
X-40100Y837400D03*
D33*
X-218940Y924300D03*
X-264660Y924300D03*
D32*
X-197900Y735130D03*
X-197900Y714570D03*
D34*
X-185800Y911600D03*
X-185800Y930600D03*
X-206800Y921100D03*
D35*
X-160000Y909000D03*
X-160000Y896000D03*
X-139000Y902500D03*
D36*
X-168500Y695750D03*
X-168500Y701250D03*
X57100Y690750D03*
X57100Y696250D03*
X-203500Y690750D03*
X-203500Y696250D03*
X-190100Y690750D03*
X-190100Y696250D03*
X-57100Y906750D03*
X-57100Y912250D03*
X-195800Y698846D03*
X-195800Y693346D03*
X-62700Y912250D03*
X-62700Y906750D03*
X-172100Y914250D03*
X-172100Y908750D03*
D37*
X-84750Y753500D03*
X-90250Y753500D03*
D36*
X-180900Y696250D03*
X-180900Y690750D03*
X-67700Y692750D03*
X-67700Y698250D03*
X-275638Y710983D03*
X-275638Y716483D03*
X-101300Y884250D03*
X-101300Y878750D03*
X-202300Y896750D03*
X-202300Y902250D03*
X-106900Y878750D03*
X-106900Y884250D03*
D38*
X-111100Y898700D03*
D39*
X-118720Y898700D03*
X-103480Y898700D03*
D40*
X-153358Y680015D03*
X-181362Y680015D03*
D41*
X-148882Y666490D03*
X-185838Y666490D03*
D42*
X-167360Y681539D03*
D40*
X-44578Y680481D03*
X-72582Y680481D03*
D41*
X-40102Y666956D03*
X-77058Y666956D03*
D42*
X-58580Y682005D03*
D40*
X65932Y680015D03*
X37928Y680015D03*
D41*
X70408Y666490D03*
X33452Y666490D03*
D42*
X51930Y681539D03*
D43*
X146600Y693900D03*
X112700Y961700D03*
X-101900Y669900D03*
X59500Y767900D03*
X65700Y971900D03*
X41800Y970700D03*
X98500Y663900D03*
X-160100Y729700D03*
X-136200Y753900D03*
X57100Y733900D03*
X102800Y693900D03*
X65400Y800900D03*
X-124100Y666900D03*
X-212866Y663129D03*
D44*
X-16600Y784500D03*
D18*
X-44100Y784500D03*
X-44100Y789500D03*
X-44100Y794500D03*
X-44100Y799500D03*
X-44100Y804500D03*
X-49100Y807000D03*
X-49100Y797000D03*
X-49100Y792000D03*
X-49100Y787000D03*
X-49100Y782000D03*
X-44100Y779500D03*
X-44100Y774500D03*
X-49100Y777000D03*
X-49100Y772000D03*
X-49100Y767000D03*
X-44100Y764500D03*
X-44100Y759500D03*
X-44100Y752000D03*
X-39100Y752000D03*
X-36600Y757000D03*
X-34100Y752000D03*
X-29100Y752000D03*
X-24100Y752000D03*
X-19100Y752000D03*
X-14100Y752000D03*
X-9100Y752000D03*
X-4100Y752000D03*
X900Y752000D03*
X5900Y752000D03*
X10900Y752000D03*
X3400Y757000D03*
X-1600Y757000D03*
X-6600Y757000D03*
X-11600Y757000D03*
X-16600Y757000D03*
X-21600Y757000D03*
X-26600Y757000D03*
X10900Y764500D03*
X15900Y762000D03*
X15900Y757000D03*
X15900Y767000D03*
X10900Y769500D03*
X15900Y772000D03*
X10900Y774500D03*
X10900Y779500D03*
X15900Y777000D03*
X15900Y782000D03*
X15900Y787000D03*
X15900Y792000D03*
X10900Y794500D03*
X10900Y799500D03*
X15900Y802000D03*
X10900Y804500D03*
X15900Y812000D03*
X-49100Y812000D03*
X-36600Y812000D03*
X-31600Y812000D03*
X-26600Y812000D03*
X-24100Y817000D03*
X-21600Y812000D03*
X-19100Y817000D03*
X-16600Y812000D03*
X-14100Y817000D03*
X-11600Y812000D03*
X-9100Y817000D03*
X-6600Y812000D03*
X-4100Y817000D03*
X-1600Y812000D03*
X900Y817000D03*
X5900Y817000D03*
X10900Y817000D03*
X-41600Y812000D03*
X-29100Y817000D03*
D45*
X-115982Y716582D02*
X-122918Y716582D01*
X-122918Y718618D01*
X-115982Y718618D01*
X-115982Y716582D01*
X-115982Y711582D02*
X-122918Y711582D01*
X-122918Y713618D01*
X-115982Y713618D01*
X-115982Y711582D01*
X-115982Y706582D02*
X-122918Y706582D01*
X-122918Y708618D01*
X-115982Y708618D01*
X-115982Y706582D01*
X-115982Y701582D02*
X-122918Y701582D01*
X-122918Y703618D01*
X-115982Y703618D01*
X-115982Y701582D01*
X-103218Y701582D02*
X-96282Y701582D01*
X-103218Y701582D02*
X-103218Y703618D01*
X-96282Y703618D01*
X-96282Y701582D01*
X-96282Y706582D02*
X-103218Y706582D01*
X-103218Y708618D01*
X-96282Y708618D01*
X-96282Y706582D01*
X-96282Y711582D02*
X-103218Y711582D01*
X-103218Y713618D01*
X-96282Y713618D01*
X-96282Y711582D01*
X-96282Y716582D02*
X-103218Y716582D01*
X-103218Y718618D01*
X-96282Y718618D01*
X-96282Y716582D01*
D46*
X-109600Y710100D03*
D47*
X28650Y834450D03*
X43150Y834450D03*
X43150Y845950D03*
X28650Y845950D03*
D48*
X-89500Y781600D03*
X-89500Y806600D03*
D49*
X-215900Y742315D03*
X-43815Y770255D03*
X-263525Y735330D03*
X-254635Y733425D03*
X-228600Y709295D03*
X-258445Y708025D03*
X-223520Y673735D03*
X-244475Y679450D03*
X-135255Y673735D03*
X-131445Y728980D03*
X-126365Y718820D03*
X-113030Y732790D03*
X-100965Y732790D03*
X-175895Y736600D03*
X-147955Y772795D03*
X23495Y786765D03*
X-144404Y804044D03*
X-93000Y771000D03*
X-82000Y767000D03*
X92710Y703580D03*
X90805Y725805D03*
X24765Y757417D03*
X125095Y784225D03*
X142240Y767080D03*
X-16600Y757000D03*
X41000Y756000D03*
X43000Y746000D03*
X61000Y747000D03*
X77000Y790000D03*
X92000Y802000D03*
X-21590Y824230D03*
X-69850Y872490D03*
X-156210Y876935D03*
X-157480Y828675D03*
X-77470Y786765D03*
X-106045Y758190D03*
X-277495Y731520D03*
X-199390Y702310D03*
X-152400Y753110D03*
X-125997Y762362D03*
X-278130Y735965D03*
X-209550Y702310D03*
X78105Y878840D03*
X-92710Y711200D03*
X-90805Y737235D03*
X-141605Y711200D03*
X-31750Y755015D03*
X71755Y789305D03*
X-16510Y971550D03*
X59690Y751294D03*
X-34925Y741045D03*
X-34925Y713740D03*
X-29845Y708660D03*
X-144145Y692785D03*
X-76835Y692785D03*
X-81280Y736600D03*
X-93980Y749300D03*
X-177165Y834580D03*
X-20955Y745248D03*
X12065Y790575D03*
X-85090Y715010D03*
X11430Y760095D03*
X-179070Y918210D03*
X-223520Y709295D03*
X-235585Y697230D03*
X-176530Y701040D03*
X-46990Y762000D03*
X-81280Y701040D03*
X3175Y820420D03*
X-53340Y812165D03*
X121920Y767715D03*
X113665Y738505D03*
X46355Y767715D03*
X43815Y902335D03*
X-13970Y747788D03*
X-64135Y902335D03*
X-50800Y915670D03*
X-55245Y744855D03*
X-78105Y744855D03*
X-78105Y760730D03*
X-207010Y746125D03*
X-86995Y910590D03*
X11430Y836295D03*
X11430Y843915D03*
X-38100Y746125D03*
X-62865Y734060D03*
X-60960Y752475D03*
X-13335Y953135D03*
X50000Y910000D03*
X46000Y922000D03*
X-167640Y828675D03*
X-167895Y814625D03*
X-206375Y905510D03*
X-241300Y940435D03*
X-175895Y775335D03*
X-189230Y949960D03*
X-154184Y794264D03*
X-140335Y943610D03*
X-162560Y762000D03*
M02*
